<?xml version="1.0" encoding="utf-8"?>
<!-- Generator: Adobe Illustrator 16.0.0, SVG Export Plug-In . SVG Version: 6.00 Build 0)  -->
<!DOCTYPE svg PUBLIC "-//W3C//DTD SVG 1.1//EN" "http://www.w3.org/Graphics/SVG/1.1/DTD/svg11.dtd">
<svg version="1.1" id="Layer_1" xmlns="http://www.w3.org/2000/svg" xmlns:xlink="http://www.w3.org/1999/xlink" x="0px" y="0px"
	 width="160px" height="131px" viewBox="-0.458 336.435 160 131" enable-background="new -0.458 336.435 160 131"
	 xml:space="preserve">
<radialGradient id="SVGID_1_" cx="133.2905" cy="-60.8843" r="99.7888" gradientTransform="matrix(0.909 0 0 -0.8368 -42.1406 357.843)" gradientUnits="userSpaceOnUse">
	<stop  offset="0" style="stop-color:#FFB524"/>
	<stop  offset="0.1557" style="stop-color:#C28A1B;stop-opacity:0.8443"/>
	<stop  offset="0.3239" style="stop-color:#886013;stop-opacity:0.6761"/>
	<stop  offset="0.4866" style="stop-color:#573E0C;stop-opacity:0.5134"/>
	<stop  offset="0.6344" style="stop-color:#312307;stop-opacity:0"/>
	<stop  offset="0.7804" style="stop-color:#161003;stop-opacity:0"/>
	<stop  offset="0.905" style="stop-color:#060401;stop-opacity:0"/>
	<stop  offset="1" style="stop-color:#000000;stop-opacity:0"/>
</radialGradient>
<ellipse fill="url(#SVGID_1_)" cx="79.02" cy="408.79" rx="90.713" ry="83.5"/>
<polygon fill="#FFFFFF" points="79.622,344.746 88.135,345.422 94.219,352.313 96.77,366.504 106.583,378.565 115.222,390.33 
	115.038,403.035 101.972,417.945 90.147,423.501 71.935,424.565 59.045,419.128 50.18,406.238 48.758,391.455 57.745,376.91 
	64.61,371.942 66.143,358.817 70.991,348.293 "/>
<path fill="#FFCC00" d="M119.745,360.353c-1.629,1.127-2.902,2.674-4.183,4.166c-1.379,1.604-2.942,3.383-3.431,5.494
	c-0.486,2.108,1.672,3.807,3.599,2.764c1.679-0.909,2.915-2.514,4.188-3.897c1.34-1.451,2.854-2.729,4.037-4.313
	C125.801,362.092,122.208,358.649,119.745,360.353z"/>
<path fill="#FFCC00" d="M138.163,380.705c-2.398,0.252-4.791,0.522-7.178,0.871c-2.425,0.353-5.027,0.51-6.791,2.373
	c-0.881,0.932-0.605,2.223,0.377,2.926c1.809,1.295,4.07,1.144,6.213,1.05c2.467-0.105,4.918-0.277,7.379-0.484
	C142.484,387.078,142.456,380.254,138.163,380.705z"/>
<path fill="#FFCC00" d="M139.954,415.928c-3.039-2.391-7.918-4.232-11.832-3.925c-2.221,0.178-3.094,2.94-1.137,4.2
	c1.566,1.011,3.314,1.578,5.021,2.313c1.718,0.741,3.324,1.728,5.115,2.275C139.761,421.605,142.306,417.771,139.954,415.928z"/>
<path fill="#FFCC00" d="M121.588,437.936c-0.793-1.619-2.271-2.941-3.355-4.391c-1.074-1.43-2.18-3.041-3.602-4.141
	c-1.811-1.398-3.973-0.107-3.67,2.137c0.271,1.99,1.397,3.939,2.479,5.605c1.154,1.783,2.329,3.615,4.048,4.888
	C120.127,443.982,122.771,440.354,121.588,437.936z"/>
<path fill="#FFCC00" d="M91.391,452.61c-0.656-2.066-1.049-4.177-1.542-6.28c-0.32-1.354-0.731-6.179-3.235-5.541
	c-2.796,0.713-2.531,5.177-2.564,7.402c-0.055,3.199,0.457,8.295,3.053,10.408c1.561,1.268,4.156,0.987,4.707-1.244
	C92.25,455.553,91.948,454.359,91.391,452.61z"/>
<path fill="#FFCC00" d="M61.914,438.305c-4.138,1.815-6.521,7.031-8.09,10.968c-1.699,4.263,5.361,6.273,6.925,1.907
	c1.256-3.503,3.801-6.492,4.874-10.021C66.334,438.83,63.802,437.48,61.914,438.305z"/>
<path fill="#FFCC00" d="M40.869,422.628c-4.726,1.329-10.435,3.911-14.125,7.174c-2.486,2.202,0.12,6.492,3.214,5.524
	c2.521-0.793,4.857-2.354,7.073-3.77c2.23-1.424,4.391-2.839,6.329-4.652C45.244,425.133,43.294,421.945,40.869,422.628z"/>
<path fill="#FFCC00" d="M34.042,396.766c-1.294-2.258-3.805-2.165-6.158-2.196c-2.967-0.041-5.918,0.065-8.882,0.171
	c-4.624,0.161-4.62,7.41,0,7.182C21.236,401.809,37.152,402.205,34.042,396.766z"/>
<path fill="#FFCC00" d="M47.165,372.75c-1.304-2.324-3.812-3.844-5.824-5.519c-1.956-1.625-4.015-4.399-6.615-4.811
	c-2.359-0.372-4.306,1.329-3.79,3.792c0.562,2.688,3.348,4.42,5.379,6.045c2.208,1.769,4.809,4.167,7.702,4.589
	C46.342,377.185,48.471,375.077,47.165,372.75z"/>
<polygon opacity="0.5" fill="#FDCE07" enable-background="new    " points="79.622,344.746 88.135,345.422 94.219,352.313 
	96.77,366.504 106.583,378.565 115.222,390.33 115.038,403.035 101.972,417.945 90.147,423.501 71.935,424.565 59.045,419.128 
	50.18,406.238 48.758,391.455 57.745,376.91 64.61,371.942 66.143,358.817 70.991,348.293 "/>
<path opacity="0.7" fill="#FFCC00" enable-background="new    " d="M115.222,394.966c-0.093-1.001-0.25-2.005-0.511-3.014
	c-0.275-1.073-0.547-2.157-0.842-3.235c-7.371,2.277-14.353,5.453-21.008,9.25c6.235-4.969,12.598-9.774,18.942-14.538
	c-0.119-0.229-0.235-0.457-0.353-0.687c-0.511-0.492-0.988-0.99-1.406-1.478c-0.489-0.576-1.016-1.257-1.496-1.986
	c-11.127,4.729-21.428,10.753-31.305,17.472c8.525-7.75,17.424-15.084,26.696-21.832c-0.58-0.438-1.118-0.912-1.591-1.405
	c-0.766-0.796-1.346-1.563-1.801-2.367c-9.42,3.899-18.316,8.774-26.904,14.185c7.934-6.119,16.152-11.894,24.43-17.588
	c-0.797-1.321-1.432-2.732-1.926-4.214c-8.466,4.217-16.701,8.758-24.729,13.822c-4.724,2.983-9.292,6.603-13.98,9.992
	c11.947-10.656,24.432-20.669,37.42-30.072c0.004-0.608,0.229-1.063,0.59-1.36c-0.164-1.072-0.26-2.158-0.318-3.252
	c-7.147,4.352-14.293,8.717-21.433,13.077c5.281-4.92,10.56-9.844,15.821-14.786c1.252-1.175-0.386-3.323-1.838-2.382
	c-4.769,3.086-9.536,6.172-14.304,9.26c3.26-3.422,6.407-6.952,9.448-10.604c0.688-0.826-0.238-2.34-1.234-1.603
	c-5.565,4.125-11.061,8.346-16.587,12.521c0.007,0.396,0.003,0.793-0.014,1.192c3.385-2.298,6.777-4.584,10.166-6.875
	c-3.38,3.504-6.886,6.894-10.462,10.192c-0.201,1.483-0.453,2.83-0.628,3.81c-0.05,0.263-0.105,0.51-0.157,0.767
	c3.659-2.322,7.32-4.643,10.981-6.963c-4.114,3.787-8.223,7.575-12.338,11.361c-0.818,1.891-1.896,3.514-3.264,4.904
	c0.459,0.662,1.343,1.048,2.179,0.547c2.751-1.655,5.493-3.321,8.244-4.979c-7.069,5.722-13.98,11.634-20.752,17.701
	c-0.017,0.104-0.037,0.213-0.056,0.32c-0.401,2.497-0.539,5.184-0.834,7.832c8.005-4.064,15.049-10.277,22.487-15.166
	c0.021-0.013,0.039-0.025,0.059-0.038c-7.845,6.021-15.436,12.359-22.59,19.19c0.314,1.711,0.639,3.422,1,5.118
	c0.171,0.069,0.337,0.149,0.491,0.263c12.252-8.87,24.67-17.563,37.905-24.824c-11.882,9.729-23.225,20.015-33.905,31.16
	c1.287,1.141,2.582,2.268,3.882,3.392c11.847-9.228,23.996-18.499,37.098-25.964c-11.548,9.146-22.638,18.797-33.07,29.258
	c0.109,0.084,0.22,0.168,0.334,0.25c1.591,0.881,3.16,1.816,4.803,2.614c11.767-9.526,23.758-18.854,37.349-25.315
	c-10.547,8.494-20.797,17.341-30.049,27.215c3.241,0.031,6.475,0.186,9.709,0.381c5.184-3.987,10.477-7.824,15.98-11.309
	c-4.176,3.361-8.191,6.898-11.986,10.695c2.668-0.682,5.296-1.539,7.803-2.674c3.782-1.707,7.115-3.861,10.479-6.045
	c-0.195-0.122-0.411-0.207-0.646-0.24c1.771-1.402,3.58-2.765,5.396-4.113c0.93-1.454,1.771-2.957,2.526-4.428
	c0.752-1.469,1.373-2.908,1.914-4.338c0.059-0.878,0.125-1.757,0.182-2.632c-6.629,2.659-12.889,6.021-18.877,9.846
	C102.491,404.993,108.84,399.955,115.222,394.966z"/>
<path fill="#FFFFFF" d="M50.188,412.034c14.935,25.095,56.438,16.771,65.986-8.79c2.322-6.219,1.25-13.322-2.023-18.968
	c-3.002-5.17-8.291-8.551-12.316-12.83c-2.418-2.569-3.836-5.424-4.521-8.875c-0.707-3.545-0.703-7.137-1.757-10.618
	c-1.449-4.779-7.079-9.874-12.105-6.771c-0.578,0.354-0.4,1.457,0.369,1.371c9.453-1.033,9.202,10.586,10.158,16.937
	c0.98,6.52,5.438,10.989,10.072,15.254c5.471,5.028,9.677,10.278,9.533,18.104c-0.146,7.787-5.946,14.361-11.826,18.811
	c-11.916,9.01-28.233,10.977-40.804,2.244c-11.405-7.928-14.566-24.935-4.923-35.501c4.137-4.53,9.264-7.305,10.965-13.609
	c1.359-5.036-1.755-16.229,7.668-20.337c2.508-1.095,7.202-4.565,4.499-4.64c-8.938-0.236-14.972,9.699-15.558,15.574
	c-0.368,3.7-0.005,7.506-1.753,10.924c-1.549,3.033-4.711,5.168-7.198,7.384C44.978,386.315,43.705,401.145,50.188,412.034z"/>
<g>
	<path d="M68.146,378.915c0.604,0.939,1.489,1.38,2.482,1.355c-0.225,1.604-0.435,3.222-0.557,4.826
		c-0.066,0.891,0.002,1.896,0.864,2.397c1.849,1.084,3.81-1.563,4.915-3.572c0.711,1.382,1.436,2.757,2.07,4.168
		c0.197,0.438,0.771,0.396,1.08,0.142c1.049-0.869,1.828-1.89,2.246-3.137c0.334,0.305,0.652,0.618,0.961,0.963
		c0.196,0.221,0.576,0.151,0.715-0.093c0.449-0.776,0.861-1.575,1.266-2.379c0.729,1.687,1.469,3.369,2.157,5.07
		c0.271,0.663,1.106,0.683,1.372,0c0.882-2.286,1.685-4.604,2.504-6.912c0.72,0.862,0.826,2.708,1.355,3.579
		c0.498,0.818,1.355,1.173,2.271,1.129c1.021-0.053,1.551-1.069,1.89-1.885c0.744-1.799,1.85-3.719,2.178-5.678
		c0.646,0.311,1.303,0.5,1.941,0.487c0.33-0.006,0.503-0.348,0.359-0.63c-0.896-1.771-3.189-3.085-4.543-4.568
		c-1.648-1.815-2.932-3.978-3.967-6.188c-1.061-2.275-1.729-4.8-2.021-7.287c-0.245-2.101,0.261-4.745-0.749-6.647
		c-0.17-0.317-0.607-0.345-0.854-0.11c-1.67,1.575-1.459,4.671-1.254,6.76c0.275,2.813,1.075,5.517,2.252,8.081
		c1.11,2.434,2.698,4.62,4.521,6.564c0.805,0.858,1.921,2,3.142,2.852c-0.574,0.756-0.93,1.589-1.328,2.503
		c-0.226,0.51-1.74,5.179-2.826,3.396c-0.971-1.592-0.396-3.535-2.562-4.201c-0.407-0.127-0.782,0.148-0.914,0.521
		c-0.729,2.049-1.481,4.092-2.192,6.146c-0.729-1.586-1.437-3.187-2.153-4.774c-0.187-0.403-0.901-0.413-1.083,0
		c-0.458,1.043-0.917,2.087-1.333,3.147c-0.356-0.356-0.692-0.728-1.026-1.123c-0.199-0.237-0.662-0.178-0.795,0.104
		c-0.494,1.031-1.041,1.918-1.805,2.701c-0.771-1.6-1.46-3.234-2.204-4.848c-0.232-0.506-1.127-0.522-1.357,0
		c-0.274,0.635-0.58,1.216-0.939,1.805c0.037-0.063-2.714,3.158-2.805,2.038c-0.158-1.913,0.682-4.229,0.941-6.138
		c0.075-0.545-0.347-1.236-1-0.998c-0.917,0.34-1.567,0.107-2.345-0.439C68.492,377.668,67.81,378.394,68.146,378.915z"/>
	<path d="M65.619,379.331c3.958-2.613,6.212-6.913,7.646-11.321c0.744-2.291,1.039-4.717,1.147-7.112
		c0.079-1.801,0-4.264-1.243-5.682c-0.11-0.127-0.35-0.098-0.429,0.057c-0.723,1.47-0.544,3.33-0.694,4.938
		c-0.203,2.197-0.64,4.291-1.239,6.41c-1.22,4.334-3.792,8.003-6.105,11.795C64.358,378.974,65.051,379.704,65.619,379.331z"/>
</g>
</svg>
