<?xml version="1.0" encoding="utf-8"?>
<!-- Generator: Adobe Illustrator 16.0.0, SVG Export Plug-In . SVG Version: 6.00 Build 0)  -->
<!DOCTYPE svg PUBLIC "-//W3C//DTD SVG 1.1//EN" "http://www.w3.org/Graphics/SVG/1.1/DTD/svg11.dtd">
<svg version="1.1" id="Layer_1" xmlns="http://www.w3.org/2000/svg" xmlns:xlink="http://www.w3.org/1999/xlink" x="0px" y="0px"
	 width="768px" height="1024px" viewBox="0 0 768 1024" enable-background="new 0 0 768 1024" xml:space="preserve">
<rect fill="#3F9ED7" width="768" height="1024"/>
<image display="none" overflow="visible" width="203" height="34" xlink:href="logo.png"  transform="matrix(0.7501 0 0 0.7501 318.1357 684.334)">
</image>
<g>
	<g>
		<path fill="#FFFFFF" d="M293.993,616.42c-3.516,0-6.87-0.649-10.059-1.953c-3.192-1.3-5.957-3.125-8.301-5.469
			s-4.199-5.044-5.566-8.105c-1.367-3.058-2.051-6.348-2.051-9.863V361.146c0-3.516,0.684-6.836,2.051-9.961
			s3.223-5.826,5.566-8.105c2.344-2.276,5.108-4.102,8.301-5.469c3.188-1.367,6.543-2.051,10.059-2.051h69.531
			c25.26,0,47.266,3.159,66.016,9.473c18.75,6.317,34.342,15.497,46.777,27.539c12.434,12.045,21.711,26.855,27.832,44.434
			c6.119,17.578,9.18,37.631,9.18,60.156c0,22.528-3.354,42.45-10.059,59.766c-6.707,17.319-16.375,31.87-29.004,43.652
			c-12.631,11.786-28.125,20.703-46.484,26.758s-39.131,9.082-62.305,9.082H293.993z M319.969,580.678h44.141
			c16.924,0,31.348-2.374,43.262-7.129c11.914-4.751,21.646-11.621,29.199-20.605c7.551-8.984,13.053-19.922,16.504-32.813
			c3.449-12.891,5.176-27.539,5.176-43.945c0-18.097-2.215-33.722-6.641-46.875c-4.428-13.15-10.938-24.023-19.531-32.617
			s-19.207-14.941-31.836-19.043c-12.631-4.102-27.085-6.152-43.36-6.152h-36.914V580.678z"/>
	</g>
	<path fill="#FFFFFF" d="M304.066,355.434c0,0,184.492-29.998,184.492,100.495s-64.496,136.493-185.991,136.493L304.066,355.434z"/>
	<path fill="#3F9ED7" stroke="#3F9ED7" stroke-width="0.5" stroke-miterlimit="10" d="M431.479,483.629l-66.344,66.339
		c-4.21,4.222-11.057,4.222-15.279,0c-4.211-4.223-4.211-11.066,0-15.284l58.699-58.7l-58.699-58.694
		c-4.211-4.217-4.211-11.055,0-15.279c4.222-4.217,11.068-4.217,15.291,0l66.345,66.341c2.101,2.111,3.155,4.873,3.155,7.633
		C434.647,478.75,433.593,481.518,431.479,483.629z"/>
	<path fill="#FFFFFF" d="M296.605,645.073c0-0.792,0.648-1.44,1.404-1.44h7.343c7.919,0,13.391,5.436,13.391,12.526v0.072
		c0,7.092-5.472,12.599-13.391,12.599h-7.343c-0.756,0-1.404-0.647-1.404-1.439V645.073z M305.353,666.202
		c6.371,0,10.438-4.319,10.438-9.898v-0.072c0-5.579-4.067-9.971-10.438-9.971h-5.903v19.941H305.353z"/>
	<path fill="#FFFFFF" d="M332.425,669.262c-5.111,0-9.287-3.923-9.287-9.683v-0.072c0-5.363,3.78-9.683,8.928-9.683
		c5.507,0,8.639,4.5,8.639,9.431c0,0.756-0.612,1.296-1.296,1.296h-13.463c0.396,4.032,3.24,6.3,6.552,6.3
		c2.304,0,3.995-0.9,5.363-2.16c0.216-0.18,0.468-0.324,0.792-0.324c0.684,0,1.224,0.54,1.224,1.188
		c0,0.324-0.144,0.647-0.432,0.899C337.681,668.146,335.593,669.262,332.425,669.262z M337.933,658.499
		c-0.288-3.383-2.232-6.335-5.939-6.335c-3.24,0-5.688,2.7-6.048,6.335H337.933z"/>
	<path fill="#FFFFFF" d="M344.197,663.431v-0.072c0-3.923,3.24-6.011,7.955-6.011c2.376,0,4.067,0.324,5.724,0.792v-0.648
		c0-3.348-2.052-5.075-5.543-5.075c-1.872,0-3.456,0.432-4.824,1.044c-0.18,0.072-0.359,0.108-0.504,0.108
		c-0.647,0-1.224-0.54-1.224-1.188c0-0.575,0.396-1.008,0.756-1.151c1.836-0.792,3.708-1.26,6.083-1.26
		c2.628,0,4.644,0.684,6.012,2.052c1.26,1.26,1.908,3.06,1.908,5.435v10.188c0,0.792-0.576,1.367-1.332,1.367
		c-0.792,0-1.332-0.575-1.332-1.296v-1.691c-1.296,1.691-3.456,3.203-6.731,3.203C347.689,669.226,344.197,667.246,344.197,663.431z
		 M357.912,661.991v-1.8c-1.368-0.396-3.204-0.792-5.472-0.792c-3.491,0-5.436,1.512-5.436,3.852v0.072
		c0,2.339,2.16,3.707,4.68,3.707C355.104,667.03,357.912,664.942,357.912,661.991z"/>
	<path fill="#FFFFFF" d="M366.697,643.777c0-0.756,0.612-1.404,1.368-1.404c0.791,0,1.403,0.648,1.403,1.404v23.829
		c0,0.792-0.576,1.403-1.368,1.403c-0.791,0-1.403-0.611-1.403-1.403V643.777z"/>
	<path fill="#FFFFFF" d="M384.048,669.262c-5.111,0-9.287-3.923-9.287-9.683v-0.072c0-5.363,3.78-9.683,8.928-9.683
		c5.507,0,8.639,4.5,8.639,9.431c0,0.756-0.612,1.296-1.296,1.296h-13.463c0.396,4.032,3.24,6.3,6.552,6.3
		c2.304,0,3.995-0.9,5.363-2.16c0.216-0.18,0.468-0.324,0.792-0.324c0.684,0,1.224,0.54,1.224,1.188
		c0,0.324-0.144,0.647-0.432,0.899C389.304,668.146,387.216,669.262,384.048,669.262z M389.556,658.499
		c-0.288-3.383-2.232-6.335-5.939-6.335c-3.24,0-5.688,2.7-6.048,6.335H389.556z"/>
	<path fill="#FFFFFF" d="M397.225,651.444c0-0.756,0.612-1.404,1.368-1.404c0.791,0,1.403,0.612,1.403,1.404v3.491
		c1.368-3.096,4.067-4.967,6.407-4.967c0.828,0,1.368,0.611,1.368,1.403c0,0.756-0.504,1.296-1.225,1.404
		c-3.599,0.432-6.551,3.131-6.551,8.495v6.335c0,0.756-0.576,1.403-1.368,1.403c-0.791,0-1.403-0.611-1.403-1.403V651.444z"/>
	<path fill="#FFFFFF" d="M411.805,651.444c0-0.756,0.612-1.404,1.368-1.404c0.791,0,1.403,0.612,1.403,1.404v2.016
		c1.224-2.016,3.168-3.636,6.371-3.636c4.5,0,7.127,3.023,7.127,7.451v10.331c0,0.792-0.611,1.403-1.367,1.403
		c-0.792,0-1.404-0.611-1.404-1.403v-9.647c0-3.455-1.872-5.615-5.147-5.615c-3.203,0-5.579,2.34-5.579,5.832v9.431
		c0,0.792-0.576,1.403-1.368,1.403c-0.791,0-1.403-0.611-1.403-1.403V651.444z"/>
	<path fill="#FFFFFF" d="M442.115,669.262c-5.111,0-9.287-3.923-9.287-9.683v-0.072c0-5.363,3.78-9.683,8.928-9.683
		c5.507,0,8.639,4.5,8.639,9.431c0,0.756-0.612,1.296-1.296,1.296h-13.463c0.396,4.032,3.24,6.3,6.552,6.3
		c2.304,0,3.995-0.9,5.363-2.16c0.216-0.18,0.468-0.324,0.792-0.324c0.684,0,1.224,0.54,1.224,1.188
		c0,0.324-0.144,0.647-0.432,0.899C447.371,668.146,445.283,669.262,442.115,669.262z M447.623,658.499
		c-0.288-3.383-2.232-6.335-5.939-6.335c-3.24,0-5.688,2.7-6.048,6.335H447.623z"/>
	<path fill="#FFFFFF" d="M453.78,666.851l6.083-7.487l-5.723-7.02c-0.288-0.323-0.433-0.647-0.433-1.008
		c0-0.792,0.576-1.296,1.296-1.296c0.54,0,0.9,0.252,1.225,0.648l5.363,6.803l5.327-6.767c0.324-0.396,0.684-0.685,1.188-0.685
		c0.72,0,1.26,0.54,1.26,1.26c0,0.36-0.144,0.648-0.359,0.9l-5.796,7.091l6.048,7.415c0.252,0.324,0.396,0.648,0.396,1.008
		c0,0.756-0.576,1.296-1.296,1.296c-0.54,0-0.899-0.252-1.224-0.647l-5.651-7.163l-5.615,7.127
		c-0.324,0.396-0.684,0.684-1.188,0.684c-0.721,0-1.26-0.575-1.26-1.26C453.421,667.391,453.528,667.103,453.78,666.851z"/>
	<path fill="#FFFFFF" d="M475.885,663.898v-11.23h-1.512c-0.647,0-1.224-0.576-1.224-1.224c0-0.684,0.576-1.224,1.224-1.224h1.512
		v-4.392c0-0.756,0.576-1.404,1.368-1.404c0.756,0,1.403,0.648,1.403,1.404v4.392h4.823c0.685,0,1.261,0.575,1.261,1.224
		c0,0.684-0.576,1.224-1.261,1.224h-4.823v10.871c0,2.268,1.26,3.096,3.132,3.096c0.972,0,1.476-0.252,1.691-0.252
		c0.648,0,1.188,0.539,1.188,1.188c0,0.504-0.324,0.899-0.792,1.08c-0.792,0.323-1.656,0.504-2.735,0.504
		C478.152,669.154,475.885,667.679,475.885,663.898z"/>
</g>
</svg>
