<?xml version="1.0" encoding="utf-8"?>
<!-- Generator: Adobe Illustrator 16.0.0, SVG Export Plug-In . SVG Version: 6.00 Build 0)  -->
<!DOCTYPE svg PUBLIC "-//W3C//DTD SVG 1.1//EN" "http://www.w3.org/Graphics/SVG/1.1/DTD/svg11.dtd">
<svg version="1.1" id="Layer_1" xmlns="http://www.w3.org/2000/svg" xmlns:xlink="http://www.w3.org/1999/xlink" x="0px" y="0px"
	 width="500px" height="500px" viewBox="0 0 399.6 590.4" enable-background="new 0 0 399.6 590.4" xml:space="preserve">
<g display="none">
	
		<linearGradient id="SVGID_1_" gradientUnits="userSpaceOnUse" x1="-293.1123" y1="81.4321" x2="-4.5509" y2="548.4634" gradientTransform="matrix(1 -5.810708e-004 5.810708e-004 1 -3.281 18.4333)">
		<stop  offset="0" style="stop-color:#3E3B3B"/>
		<stop  offset="0.1317" style="stop-color:#141414"/>
		<stop  offset="0.2976" style="stop-color:#D4D4D4"/>
		<stop  offset="0.3009" style="stop-color:#D0D0D0"/>
		<stop  offset="0.3464" style="stop-color:#9C9C9C"/>
		<stop  offset="0.3911" style="stop-color:#727272"/>
		<stop  offset="0.4343" style="stop-color:#515151"/>
		<stop  offset="0.4754" style="stop-color:#393939"/>
		<stop  offset="0.5137" style="stop-color:#2B2B2B"/>
		<stop  offset="0.5463" style="stop-color:#262626"/>
		<stop  offset="0.6324" style="stop-color:#282828"/>
		<stop  offset="0.6634" style="stop-color:#2F2F2F"/>
		<stop  offset="0.6855" style="stop-color:#3B3B3B"/>
		<stop  offset="0.7033" style="stop-color:#4C4C4C"/>
		<stop  offset="0.7186" style="stop-color:#626262"/>
		<stop  offset="0.7322" style="stop-color:#7D7D7D"/>
		<stop  offset="0.7442" style="stop-color:#9C9C9C"/>
		<stop  offset="0.7551" style="stop-color:#C1C1C1"/>
		<stop  offset="0.7561" style="stop-color:#C4C4C4"/>
		<stop  offset="1" style="stop-color:#1C1C1C"/>
	</linearGradient>
	<path display="inline" fill="url(#SVGID_1_)" d="M-291.369,74.678c0,0,1.86-26.204,29.923-26.221
		c26.652-0.017,170.996-0.105,170.996-0.105s30.963-0.019,30.983,33.374c0.021,33.395,0.262,426.156,0.262,426.156
		s0.836,33.505-31.044,33.524c-31.883,0.02-172.125,0.105-172.125,0.105s-28.655,0.019-28.674-30.889
		S-291.369,74.678-291.369,74.678z"/>
	<path display="inline" fill="#ADACB2" d="M-61.568,84.666c-0.156-33.227-29.105-34.687-29.423-34.697
		c0,0-39.188,0.008-80.387,0.034c-49.188,0.03-79.392,0.07-89.776,0.121c-26.254,0.123-28.58,26.901-28.602,27.226
		c0.02,4.025,2.032,402.882,2.051,433.032c0.018,28.064,27.517,28.37,28.697,28.37c1.672,0,167.248,0.055,169.486,0.053h0.001
		c7.614-0.004,13.856-2.432,18.555-7.213c9.603-9.772,9.443-25.776,9.431-26.441C-61.534,501.274-61.415,117.249-61.568,84.666z"/>
	<path display="inline" fill="#040105" d="M-289.072,77.345c0,0,1.995-26.418,27.921-26.539c25.927-0.125,170.16-0.154,170.16-0.154
		s28.585,1.061,28.74,34.017c0.154,32.958,0.033,420.482,0.033,420.482s0.563,32.953-27.304,32.97
		c-2.265,0.001-169.486-0.055-169.486-0.055s-27.996,0.172-28.013-27.685C-287.041,479.878-289.072,77.345-289.072,77.345z"/>
	<g display="inline">
		<g>
			<path fill="#403E3E" d="M-201.167,78.609c0,1.977-1.687,3.58-3.767,3.581c-2.081,0.001-3.77-1.6-3.771-3.576
				c-0.001-1.973,1.686-3.575,3.766-3.576C-202.858,75.037-201.169,76.637-201.167,78.609z"/>
			<ellipse fill="#191819" cx="-204.937" cy="78.613" rx="2.787" ry="2.646"/>
		</g>
		<g>
			<path fill="#1F1813" d="M-152.832,78.866c0.001,1.936-1.176,3.504-2.626,3.504l-34.049,0.021
				c-1.452,0.001-2.627-1.565-2.628-3.501l0,0c0-1.936,1.173-3.502,2.624-3.503l34.05-0.021
				C-154.011,75.365-152.833,76.93-152.832,78.866L-152.832,78.866z"/>
			<path fill="#403E3E" d="M-154.123,78.826c0.001,1.452-1.241,2.629-2.77,2.63l-31.115,0.019c-1.531,0.001-2.773-1.175-2.774-2.627
				l0,0c-0.001-1.454,1.24-2.631,2.771-2.632l31.115-0.019C-155.367,76.197-154.123,77.372-154.123,78.826L-154.123,78.826z"/>
		</g>
	</g>
	<g display="inline">
		
			<linearGradient id="SVGID_2_" gradientUnits="userSpaceOnUse" x1="-62.4438" y1="72.7617" x2="-62.4438" y2="94.7043" gradientTransform="matrix(0.9008 -5.473420e-004 7.646978e-004 1.193 -236.0515 20.048)">
			<stop  offset="0" style="stop-color:#808080"/>
			<stop  offset="0.0287" style="stop-color:#6C6C6C"/>
			<stop  offset="0.0871" style="stop-color:#4B4B4B"/>
			<stop  offset="0.15" style="stop-color:#303030"/>
			<stop  offset="0.218" style="stop-color:#1A1A1A"/>
			<stop  offset="0.2933" style="stop-color:#0B0B0B"/>
			<stop  offset="0.382" style="stop-color:#030303"/>
			<stop  offset="0.5171" style="stop-color:#000000"/>
			<stop  offset="0.6285" style="stop-color:#030303"/>
			<stop  offset="0.7059" style="stop-color:#0C0C0C"/>
			<stop  offset="0.7731" style="stop-color:#1B1A1B"/>
			<stop  offset="0.8344" style="stop-color:#303031"/>
			<stop  offset="0.8917" style="stop-color:#4B4B4D"/>
			<stop  offset="0.9458" style="stop-color:#6D6C70"/>
			<stop  offset="0.9969" style="stop-color:#949398"/>
			<stop  offset="1" style="stop-color:#97969B"/>
		</linearGradient>
		<path fill="url(#SVGID_2_)" d="M-291.492,104.425c-0.065-0.013-0.131-0.026-0.198-0.026c-0.725,0-1.312,0.779-1.311,1.74
			l0.013,21.807c0.001,0.96,0.588,1.736,1.313,1.736c0.067,0,0.133-0.013,0.198-0.027L-291.492,104.425z"/>
		
			<linearGradient id="SVGID_3_" gradientUnits="userSpaceOnUse" x1="-62.4463" y1="103.8198" x2="-62.4463" y2="133.0902" gradientTransform="matrix(0.9008 -5.473420e-004 7.646978e-004 1.193 -236.0515 20.048)">
			<stop  offset="0" style="stop-color:#808080"/>
			<stop  offset="0.0287" style="stop-color:#6C6C6C"/>
			<stop  offset="0.0871" style="stop-color:#4B4B4B"/>
			<stop  offset="0.15" style="stop-color:#303030"/>
			<stop  offset="0.218" style="stop-color:#1A1A1A"/>
			<stop  offset="0.2933" style="stop-color:#0B0B0B"/>
			<stop  offset="0.382" style="stop-color:#030303"/>
			<stop  offset="0.5171" style="stop-color:#000000"/>
			<stop  offset="0.6285" style="stop-color:#030303"/>
			<stop  offset="0.7059" style="stop-color:#0C0C0C"/>
			<stop  offset="0.7731" style="stop-color:#1B1A1B"/>
			<stop  offset="0.8344" style="stop-color:#303031"/>
			<stop  offset="0.8917" style="stop-color:#4B4B4D"/>
			<stop  offset="0.9458" style="stop-color:#6D6C70"/>
			<stop  offset="0.9969" style="stop-color:#949398"/>
			<stop  offset="1" style="stop-color:#97969B"/>
		</linearGradient>
		<path fill="url(#SVGID_3_)" d="M-291.47,140.647c-0.065-0.014-0.131-0.027-0.198-0.027c-0.725,0.001-1.311,0.779-1.311,1.741
			l0.019,30.25c0,0.96,0.588,1.736,1.313,1.736c0.067,0,0.133-0.014,0.198-0.027L-291.47,140.647z"/>
		
			<linearGradient id="SVGID_4_" gradientUnits="userSpaceOnUse" x1="-62.4468" y1="142.2896" x2="-62.4468" y2="171.5594" gradientTransform="matrix(0.9008 -5.473420e-004 7.646978e-004 1.193 -236.0515 20.048)">
			<stop  offset="0" style="stop-color:#808080"/>
			<stop  offset="0.0287" style="stop-color:#6C6C6C"/>
			<stop  offset="0.0871" style="stop-color:#4B4B4B"/>
			<stop  offset="0.15" style="stop-color:#303030"/>
			<stop  offset="0.218" style="stop-color:#1A1A1A"/>
			<stop  offset="0.2933" style="stop-color:#0B0B0B"/>
			<stop  offset="0.382" style="stop-color:#030303"/>
			<stop  offset="0.5171" style="stop-color:#000000"/>
			<stop  offset="0.6285" style="stop-color:#030303"/>
			<stop  offset="0.7059" style="stop-color:#0C0C0C"/>
			<stop  offset="0.7731" style="stop-color:#1B1A1B"/>
			<stop  offset="0.8344" style="stop-color:#303031"/>
			<stop  offset="0.8917" style="stop-color:#4B4B4D"/>
			<stop  offset="0.9458" style="stop-color:#6D6C70"/>
			<stop  offset="0.9969" style="stop-color:#949398"/>
			<stop  offset="1" style="stop-color:#97969B"/>
		</linearGradient>
		<path fill="url(#SVGID_4_)" d="M-291.441,186.541c-0.065-0.013-0.13-0.026-0.198-0.026c-0.725,0-1.312,0.778-1.311,1.741
			l0.019,30.25c0.001,0.96,0.589,1.736,1.313,1.736c0.067,0,0.133-0.014,0.198-0.027L-291.441,186.541z"/>
	</g>
	<g display="inline">
		<path fill="#3A3736" d="M-154.073,508.037c0.006,10.096-8.525,18.282-19.058,18.289c-10.526,0.007-19.071-8.17-19.077-18.266
			c-0.006-10.093,8.528-18.279,19.054-18.286C-162.621,489.769-154.08,497.944-154.073,508.037z"/>
		<path fill="#040105" d="M-155.798,508.039c0.006,9.631-7.753,17.44-17.333,17.445c-9.574,0.007-17.346-7.794-17.352-17.425
			c-0.006-9.627,7.757-17.438,17.33-17.443C-163.573,490.611-155.804,498.411-155.798,508.039z"/>
	</g>
</g>
<linearGradient id="SVGID_5_" gradientUnits="userSpaceOnUse" x1="139.4409" y1="336.2422" x2="457.5809" y2="121.9044">
	<stop  offset="0" style="stop-color:#000000"/>
	<stop  offset="0.0643" style="stop-color:#020202"/>
	<stop  offset="0.0874" style="stop-color:#080909"/>
	<stop  offset="0.1039" style="stop-color:#131414"/>
	<stop  offset="0.1173" style="stop-color:#232525"/>
	<stop  offset="0.1287" style="stop-color:#373A3B"/>
	<stop  offset="0.1388" style="stop-color:#515557"/>
	<stop  offset="0.148" style="stop-color:#6F7577"/>
	<stop  offset="0.1564" style="stop-color:#929A9D"/>
	<stop  offset="0.1639" style="stop-color:#B8C2C6"/>
	<stop  offset="0.1687" style="stop-color:#D5E1E5"/>
	<stop  offset="0.1757" style="stop-color:#D3DFE3"/>
	<stop  offset="0.1782" style="stop-color:#CDD8DC"/>
	<stop  offset="0.18" style="stop-color:#C2CDD0"/>
	<stop  offset="0.1814" style="stop-color:#B2BCC0"/>
	<stop  offset="0.1826" style="stop-color:#9EA7AA"/>
	<stop  offset="0.1837" style="stop-color:#848C8E"/>
	<stop  offset="0.1847" style="stop-color:#666C6E"/>
	<stop  offset="0.1856" style="stop-color:#434748"/>
	<stop  offset="0.1864" style="stop-color:#1D1F1F"/>
	<stop  offset="0.1869" style="stop-color:#000000"/>
</linearGradient>
<path fill="url(#SVGID_5_)" d="M396.654,558.877c0,15.257-12.368,27.625-27.625,27.625H32.279
	c-15.257,0-27.625-12.368-27.625-27.625V31.127c0-15.257,12.368-27.625,27.625-27.625h336.75c15.257,0,27.625,12.368,27.625,27.625
	V558.877z"/>
<linearGradient id="SVGID_6_" gradientUnits="userSpaceOnUse" x1="145.1196" y1="257.543" x2="463.2119" y2="472.0989">
	<stop  offset="0" style="stop-color:#000000"/>
	<stop  offset="0.0653" style="stop-color:#020202"/>
	<stop  offset="0.0888" style="stop-color:#080809"/>
	<stop  offset="0.1055" style="stop-color:#121414"/>
	<stop  offset="0.1191" style="stop-color:#212425"/>
	<stop  offset="0.1307" style="stop-color:#35393B"/>
	<stop  offset="0.141" style="stop-color:#4D5357"/>
	<stop  offset="0.1503" style="stop-color:#6A7277"/>
	<stop  offset="0.1588" style="stop-color:#8C979D"/>
	<stop  offset="0.1664" style="stop-color:#B0BEC6"/>
	<stop  offset="0.1687" style="stop-color:#BDCCD4"/>
	<stop  offset="0.1758" style="stop-color:#BBCAD2"/>
	<stop  offset="0.1783" style="stop-color:#B5C4CB"/>
	<stop  offset="0.1801" style="stop-color:#ABB8C0"/>
	<stop  offset="0.1816" style="stop-color:#9CA8AF"/>
	<stop  offset="0.1828" style="stop-color:#889399"/>
	<stop  offset="0.1839" style="stop-color:#70797D"/>
	<stop  offset="0.1849" style="stop-color:#535A5D"/>
	<stop  offset="0.1859" style="stop-color:#313537"/>
	<stop  offset="0.1867" style="stop-color:#0D0E0E"/>
	<stop  offset="0.1869" style="stop-color:#000000"/>
</linearGradient>
<path fill="url(#SVGID_6_)" d="M396.654,558.877c0,15.257-12.368,27.625-27.625,27.625H32.279
	c-15.257,0-27.625-12.368-27.625-27.625V31.127c0-15.257,12.368-27.625,27.625-27.625h336.75c15.257,0,27.625,12.368,27.625,27.625
	V558.877z"/>
<path fill="#5F666A" d="M394.654,558.877c0,14.152-11.473,25.625-25.625,25.625H32.279c-14.152,0-25.625-11.473-25.625-25.625
	V31.127c0-14.152,11.473-25.625,25.625-25.625h336.75c14.152,0,25.625,11.473,25.625,25.625V558.877z"/>
<path d="M393.654,558.877c0,13.6-11.025,24.625-24.625,24.625H32.279c-13.6,0-24.625-11.025-24.625-24.625V31.127
	c0-13.6,11.025-24.625,24.625-24.625h336.75c13.6,0,24.625,11.025,24.625,24.625V558.877z"/>
<path fill="#1A1A1A" d="M377.654,529.502c0,0.553-0.447,1-1,1h-351c-0.552,0-1-0.447-1-1v-468c0-0.552,0.448-1,1-1h351
	c0.553,0,1,0.448,1,1V529.502z"/>
<g>
	<linearGradient id="SVGID_7_" gradientUnits="userSpaceOnUse" x1="200.9907" y1="543.001" x2="200.9907" y2="572.3115">
		<stop  offset="0" style="stop-color:#000000"/>
		<stop  offset="0.2801" style="stop-color:#020202"/>
		<stop  offset="0.381" style="stop-color:#090808"/>
		<stop  offset="0.4527" style="stop-color:#141213"/>
		<stop  offset="0.5044" style="stop-color:#231F20"/>
		<stop  offset="0.5332" style="stop-color:#242122"/>
		<stop  offset="0.5436" style="stop-color:#282629"/>
		<stop  offset="0.551" style="stop-color:#2F3034"/>
		<stop  offset="0.557" style="stop-color:#383E45"/>
		<stop  offset="0.562" style="stop-color:#45505B"/>
		<stop  offset="0.5646" style="stop-color:#4D5B69"/>
		<stop  offset="1" style="stop-color:#99A4AC"/>
	</linearGradient>
	<circle fill="url(#SVGID_7_)" cx="200.991" cy="557.657" r="14.654"/>
	<path fill="#929497" d="M203.349,552.159h-4.717c-1.732,0-3.139,1.404-3.139,3.137v4.717c0,1.736,1.406,3.141,3.139,3.141h4.717
		c1.734,0,3.14-1.404,3.14-3.141v-4.717C206.489,553.563,205.083,552.159,203.349,552.159z M205.748,560.013
		c0,1.322-1.075,2.4-2.398,2.4h-4.717c-1.324,0-2.396-1.078-2.396-2.4v-4.717c0-1.32,1.072-2.396,2.396-2.396h4.717
		c1.323,0,2.398,1.076,2.398,2.396V560.013z"/>
</g>
<g>
	<linearGradient id="SVGID_8_" gradientUnits="userSpaceOnUse" x1="200.3633" y1="37.7446" x2="201.6835" y2="29.4091">
		<stop  offset="0" style="stop-color:#231F20"/>
		<stop  offset="1" style="stop-color:#000000"/>
	</linearGradient>
	<circle fill="url(#SVGID_8_)" cx="201.023" cy="33.576" r="4.219"/>
	<g>
		<g>
			<circle fill="#0069BF" cx="201.023" cy="33.576" r="2.219"/>
		</g>
		<defs>
			<filter id="Adobe_OpacityMaskFilter" filterUnits="userSpaceOnUse" x="198.804" y="31.357" width="4.438" height="4.438">
				
					<feColorMatrix  type="matrix" values="-1 0 0 0 1  0 -1 0 0 1  0 0 -1 0 1  0 0 0 1 0" color-interpolation-filters="sRGB" result="source"/>
			</filter>
		</defs>
		<mask maskUnits="userSpaceOnUse" x="198.804" y="31.357" width="4.438" height="4.438" id="SVGID_9_">
			<g filter="url(#Adobe_OpacityMaskFilter)">
				
					<image overflow="visible" width="36" height="36" xlink:href="80A4089C.jpg"  transform="matrix(0.24 0 0 0.24 196.8042 29.3569)">
				</image>
			</g>
		</mask>
		<g mask="url(#SVGID_9_)">
			<circle cx="201.023" cy="33.576" r="2.219"/>
		</g>
	</g>
</g>
</svg>
