<?xml version="1.0" encoding="utf-8"?>
<!-- Generator: Adobe Illustrator 16.0.0, SVG Export Plug-In . SVG Version: 6.00 Build 0)  -->
<!DOCTYPE svg PUBLIC "-//W3C//DTD SVG 1.1//EN" "http://www.w3.org/Graphics/SVG/1.1/DTD/svg11.dtd">
<svg version="1.1" id="Layer_1" xmlns="http://www.w3.org/2000/svg" xmlns:xlink="http://www.w3.org/1999/xlink" x="0px" y="0px"
	 width="1000px" height="500px" viewBox="0 0 1000 500" enable-background="new 0 0 1000 500" xml:space="preserve">
<g>
	<polyline fill="#226AB2" points="627.562,217.198 514.711,163.441 514.637,194.789 627.715,250.889 	"/>
	<polyline fill="#347EC0" points="393.25,216.998 514.711,163.417 514.711,194.841 393.25,250.836 	"/>
	<g>
		<polyline fill="#226AB2" points="627.562,163.215 514.711,114.343 514.711,145.539 627.715,196.904 		"/>
		<polygon fill="#A5C6E8" points="515.317,208.939 515.317,252.452 627.715,196.855 627.715,163.014 		"/>
		<polyline fill="#347EC0" points="393.25,163.014 514.711,114.267 514.711,145.69 393.25,196.855 		"/>
		<polygon fill="#538ECB" points="515.317,208.939 515.317,252.452 393.25,196.855 393.25,163.014 		"/>
	</g>
	<polygon fill="#A5C6E8" points="515.317,272.591 515.317,316.104 627.715,250.836 627.715,216.998 	"/>
	<polygon fill="#538ECB" points="515.317,272.591 515.317,316.104 393.25,250.836 393.25,216.998 	"/>
</g>
<image display="none" overflow="visible" width="110" height="29" xlink:href="../../../../Users/Vignila sweet/Desktop/LatentView.png"  transform="matrix(1.0002 0 0 1.0002 460 339)">
</image>
<g>
	<path d="M433.763,339.124c0.144-0.023,0.342-0.042,0.594-0.054s0.45-0.019,0.595-0.019c0.119,0,0.312,0.007,0.575,0.019
		c0.265,0.012,0.469,0.03,0.612,0.054v22.212c0,0.625,0.072,1.11,0.216,1.458c0.145,0.349,0.324,0.601,0.54,0.756
		c0.216,0.156,0.456,0.252,0.72,0.288c0.265,0.036,0.505,0.054,0.721,0.054c0.264,0,0.54-0.018,0.828-0.054s0.527-0.077,0.72-0.126
		c0.12,0.288,0.203,0.601,0.252,0.937c0.048,0.336,0.084,0.647,0.108,0.936c-0.337,0.12-0.715,0.204-1.135,0.252
		s-0.81,0.072-1.17,0.072c-0.504,0-1.008-0.055-1.512-0.162c-0.504-0.108-0.954-0.312-1.35-0.612
		c-0.396-0.3-0.715-0.707-0.954-1.224c-0.24-0.516-0.36-1.193-0.36-2.034V339.124z"/>
	<path d="M453.923,353.452c0-1.584-0.372-2.741-1.116-3.474s-1.849-1.099-3.312-1.099c-0.961,0-1.837,0.066-2.629,0.198
		s-1.5,0.294-2.124,0.486c-0.12-0.217-0.222-0.528-0.306-0.937c-0.084-0.407-0.126-0.792-0.126-1.151
		c0.624-0.192,1.392-0.354,2.304-0.486s1.849-0.198,2.809-0.198c2.327,0,4.056,0.511,5.184,1.53s1.692,2.622,1.692,4.806v12.132
		c-0.841,0.168-1.86,0.336-3.061,0.504s-2.34,0.252-3.42,0.252c-2.231,0-3.99-0.443-5.273-1.332
		c-1.284-0.888-1.926-2.327-1.926-4.32c0-0.959,0.186-1.817,0.558-2.573s0.888-1.392,1.548-1.908c0.66-0.516,1.452-0.905,2.376-1.17
		c0.924-0.264,1.938-0.396,3.042-0.396c0.864,0,1.607,0.029,2.232,0.09c0.623,0.061,1.14,0.113,1.548,0.162V353.452z
		 M453.923,356.656c-0.408-0.048-0.918-0.102-1.53-0.162c-0.612-0.06-1.194-0.09-1.746-0.09c-1.8,0-3.192,0.336-4.176,1.008
		c-0.984,0.672-1.476,1.633-1.476,2.88c0,0.792,0.149,1.429,0.449,1.908c0.3,0.48,0.69,0.846,1.17,1.098
		c0.48,0.252,1.009,0.42,1.584,0.504c0.576,0.085,1.152,0.126,1.729,0.126c0.743,0,1.439-0.036,2.088-0.107
		c0.648-0.072,1.283-0.168,1.908-0.288V356.656z"/>
	<path d="M463.102,349.24h-3.132c-0.024-0.12-0.042-0.275-0.055-0.469c-0.012-0.191-0.018-0.383-0.018-0.576
		c0-0.191,0.006-0.371,0.018-0.539c0.013-0.168,0.03-0.313,0.055-0.432h3.132v-3.457l2.231-2.195h0.145v5.652h4.968
		c0.023,0.119,0.042,0.264,0.054,0.432c0.013,0.168,0.019,0.348,0.019,0.539c0,0.193-0.006,0.385-0.019,0.576
		c-0.012,0.193-0.03,0.349-0.054,0.469h-4.968v11.951c0,0.601,0.077,1.075,0.234,1.423c0.155,0.348,0.359,0.618,0.611,0.81
		c0.252,0.192,0.54,0.318,0.864,0.378c0.324,0.061,0.653,0.09,0.99,0.09c0.84,0,1.571-0.107,2.195-0.323
		c0.168,0.624,0.288,1.296,0.36,2.016c-0.864,0.264-1.872,0.396-3.024,0.396c-1.367,0-2.478-0.366-3.329-1.099
		c-0.853-0.731-1.278-1.926-1.278-3.582V349.24z"/>
	<path d="M475.989,356.764c0,2.448,0.563,4.248,1.692,5.4c1.128,1.152,2.819,1.728,5.076,1.728c0.911,0,1.758-0.077,2.538-0.233
		c0.779-0.156,1.541-0.366,2.286-0.63c0.119,0.264,0.216,0.588,0.287,0.972c0.072,0.384,0.12,0.732,0.145,1.044
		c-0.696,0.313-1.512,0.552-2.448,0.72c-0.936,0.168-1.956,0.252-3.06,0.252c-1.584,0-2.946-0.233-4.086-0.701
		c-1.141-0.469-2.076-1.122-2.809-1.963c-0.732-0.84-1.272-1.842-1.62-3.006s-0.521-2.441-0.521-3.834
		c0-1.344,0.162-2.604,0.486-3.779c0.323-1.176,0.815-2.208,1.476-3.097c0.66-0.888,1.506-1.584,2.538-2.088
		c1.031-0.504,2.268-0.756,3.708-0.756c1.199,0,2.268,0.204,3.204,0.612c0.936,0.408,1.722,0.979,2.357,1.709
		c0.636,0.732,1.116,1.609,1.44,2.629s0.486,2.13,0.486,3.33c0,0.216-0.007,0.492-0.019,0.828c-0.013,0.336-0.03,0.624-0.054,0.863
		H475.989z M486.79,354.784c0-0.743-0.097-1.476-0.288-2.196c-0.192-0.72-0.492-1.35-0.9-1.891
		c-0.408-0.539-0.936-0.977-1.584-1.313c-0.648-0.335-1.428-0.504-2.34-0.504c-1.681,0-2.988,0.517-3.924,1.548
		c-0.937,1.032-1.501,2.484-1.692,4.356H486.79z"/>
	<path d="M494.385,347.225c0.191-0.024,0.378-0.043,0.558-0.055c0.181-0.012,0.354-0.018,0.522-0.018
		c0.191,0,0.372,0.006,0.54,0.018s0.348,0.03,0.54,0.055c0.048,0.432,0.084,0.971,0.107,1.619c0.024,0.648,0.036,1.213,0.036,1.692
		c0.24-0.433,0.552-0.87,0.937-1.313c0.384-0.444,0.833-0.847,1.35-1.207c0.516-0.359,1.11-0.653,1.782-0.882
		c0.672-0.228,1.404-0.342,2.196-0.342c2.111,0,3.647,0.63,4.607,1.89s1.44,3.031,1.44,5.311v11.592
		c-0.145,0.023-0.342,0.042-0.594,0.054s-0.45,0.019-0.595,0.019c-0.12,0-0.312-0.007-0.576-0.019
		c-0.264-0.012-0.468-0.03-0.611-0.054v-10.872c0-2.04-0.318-3.504-0.954-4.392c-0.637-0.889-1.59-1.332-2.862-1.332
		c-0.84,0-1.632,0.168-2.376,0.504s-1.386,0.822-1.926,1.458s-0.967,1.422-1.278,2.358c-0.312,0.936-0.468,2.004-0.468,3.203v9.072
		c-0.144,0.023-0.342,0.042-0.594,0.054s-0.45,0.019-0.594,0.019c-0.121,0-0.313-0.007-0.576-0.019
		c-0.265-0.012-0.469-0.03-0.612-0.054V347.225z"/>
	<path d="M515.805,349.24h-3.132c-0.024-0.12-0.042-0.275-0.055-0.469c-0.012-0.191-0.018-0.383-0.018-0.576
		c0-0.191,0.006-0.371,0.018-0.539c0.013-0.168,0.03-0.313,0.055-0.432h3.132v-3.457l2.231-2.195h0.145v5.652h4.968
		c0.023,0.119,0.042,0.264,0.054,0.432c0.013,0.168,0.019,0.348,0.019,0.539c0,0.193-0.006,0.385-0.019,0.576
		c-0.012,0.193-0.03,0.349-0.054,0.469h-4.968v11.951c0,0.601,0.077,1.075,0.234,1.423c0.155,0.348,0.359,0.618,0.611,0.81
		c0.252,0.192,0.54,0.318,0.864,0.378c0.324,0.061,0.653,0.09,0.99,0.09c0.84,0,1.571-0.107,2.195-0.323
		c0.168,0.624,0.288,1.296,0.36,2.016c-0.864,0.264-1.872,0.396-3.024,0.396c-1.367,0-2.478-0.366-3.329-1.099
		c-0.853-0.731-1.278-1.926-1.278-3.582V349.24z"/>
	<path fill="#347EC0" d="M524.948,347.225c0.145-0.024,0.348-0.043,0.612-0.055c0.264-0.012,0.516-0.018,0.756-0.018
		c0.192,0,0.433,0.006,0.721,0.018c0.287,0.012,0.504,0.03,0.647,0.055l5.796,15.875l5.904-15.875
		c0.144-0.024,0.336-0.043,0.576-0.055c0.239-0.012,0.455-0.018,0.647-0.018s0.408,0.006,0.648,0.018
		c0.239,0.012,0.432,0.03,0.576,0.055l-7.309,18.359c-0.359,0.072-0.732,0.108-1.115,0.108c-0.385,0-0.769-0.036-1.152-0.108
		L524.948,347.225z"/>
	<path fill="#347EC0" d="M547.053,349.24h-2.304c-0.024-0.12-0.043-0.264-0.055-0.432s-0.018-0.348-0.018-0.541
		c0-0.191,0.006-0.383,0.018-0.576c0.012-0.191,0.03-0.348,0.055-0.467h4.68v18.359c-0.145,0.023-0.342,0.042-0.594,0.054
		s-0.45,0.019-0.595,0.019c-0.12,0-0.312-0.007-0.575-0.019c-0.265-0.012-0.469-0.03-0.612-0.054V349.24z M545.864,342.725
		c-0.023-0.217-0.042-0.48-0.054-0.793c-0.013-0.312-0.018-0.576-0.018-0.791c0-0.192,0.005-0.433,0.018-0.721
		c0.012-0.288,0.03-0.527,0.054-0.72c0.216-0.024,0.48-0.042,0.792-0.054s0.576-0.019,0.792-0.019c0.192,0,0.433,0.007,0.721,0.019
		s0.527,0.029,0.72,0.054c0.023,0.192,0.042,0.432,0.054,0.72s0.019,0.528,0.019,0.721c0,0.215-0.007,0.479-0.019,0.791
		c-0.012,0.313-0.03,0.576-0.054,0.793c-0.192,0.023-0.432,0.041-0.72,0.053c-0.288,0.014-0.528,0.019-0.721,0.019
		c-0.216,0-0.48-0.005-0.792-0.019C546.345,342.766,546.08,342.748,545.864,342.725z"/>
	<path fill="#347EC0" d="M557.276,356.764c0,2.448,0.563,4.248,1.692,5.4c1.128,1.152,2.819,1.728,5.076,1.728
		c0.911,0,1.758-0.077,2.538-0.233c0.779-0.156,1.541-0.366,2.286-0.63c0.119,0.264,0.216,0.588,0.287,0.972
		c0.072,0.384,0.12,0.732,0.145,1.044c-0.696,0.313-1.512,0.552-2.448,0.72c-0.936,0.168-1.956,0.252-3.06,0.252
		c-1.584,0-2.946-0.233-4.086-0.701c-1.141-0.469-2.076-1.122-2.809-1.963c-0.732-0.84-1.272-1.842-1.62-3.006
		s-0.521-2.441-0.521-3.834c0-1.344,0.162-2.604,0.486-3.779c0.323-1.176,0.815-2.208,1.476-3.097
		c0.66-0.888,1.506-1.584,2.538-2.088c1.031-0.504,2.268-0.756,3.708-0.756c1.199,0,2.268,0.204,3.204,0.612
		c0.936,0.408,1.722,0.979,2.357,1.709c0.636,0.732,1.116,1.609,1.44,2.629s0.486,2.13,0.486,3.33c0,0.216-0.007,0.492-0.019,0.828
		c-0.013,0.336-0.03,0.624-0.054,0.863H557.276z M568.077,354.784c0-0.743-0.097-1.476-0.288-2.196
		c-0.192-0.72-0.492-1.35-0.9-1.891c-0.408-0.539-0.936-0.977-1.584-1.313c-0.648-0.335-1.428-0.504-2.34-0.504
		c-1.681,0-2.988,0.517-3.924,1.548c-0.937,1.032-1.501,2.484-1.692,4.356H568.077z"/>
	<path fill="#347EC0" d="M573.152,347.225c0.144-0.024,0.329-0.043,0.558-0.055c0.228-0.012,0.462-0.018,0.702-0.018
		c0.191,0,0.426,0.006,0.702,0.018c0.275,0.012,0.485,0.03,0.63,0.055l4.067,15.623l4.536-15.623
		c0.192-0.024,0.401-0.043,0.63-0.055s0.474-0.018,0.738-0.018c0.191,0,0.39,0,0.594,0s0.402,0.023,0.595,0.072l4.535,15.407
		l4.068-15.407c0.145-0.024,0.317-0.043,0.522-0.055c0.203-0.012,0.401-0.018,0.594-0.018c0.191,0,0.407,0.006,0.647,0.018
		s0.433,0.03,0.576,0.055l-5.292,18.359c-0.432,0.072-0.852,0.108-1.26,0.108c-0.456,0-0.876-0.036-1.26-0.108l-4.429-15.191
		l-4.644,15.191c-0.432,0.072-0.853,0.108-1.26,0.108c-0.456,0-0.877-0.036-1.26-0.108L573.152,347.225z"/>
</g>
</svg>
