<?xml version="1.0" encoding="utf-8"?>
<!-- Generator: Adobe Illustrator 16.0.0, SVG Export Plug-In . SVG Version: 6.00 Build 0)  -->
<!DOCTYPE svg PUBLIC "-//W3C//DTD SVG 1.1//EN" "http://www.w3.org/Graphics/SVG/1.1/DTD/svg11.dtd">
<svg version="1.1" id="Layer_1" xmlns="http://www.w3.org/2000/svg" xmlns:xlink="http://www.w3.org/1999/xlink" x="0px" y="0px"
	 width="320px" height="560px" viewBox="0 0 320 560" enable-background="new 0 0 320 560" xml:space="preserve">
<rect fill="#EFEFEF" width="320" height="560"/>
<text transform="matrix(1 0 0 1 135.667 368.334)" fill="#EB2124" font-family="'GothamRounded-Book'" font-size="21">BOL</text>
<g>
	<path fill="#EB2124" d="M181.95,336.65h31.148c8.566,0,15.574-7.01,15.574-15.575V212.053c0-8.566-7.008-15.574-15.574-15.574
		H104.077c-8.566,0-15.575,7.008-15.575,15.574v109.022c0,8.565,7.009,15.575,15.575,15.575h31.149H181.95z"/>
	<path fill="#EB2124" d="M88.501,303.123v41.251c0,3.641,2.186,6.927,5.546,8.335c1.128,0.472,2.314,0.704,3.491,0.704
		c2.327,0,7.669-0.901,9.394-2.598l81.987-38.449"/>
	<linearGradient id="SVGID_1_" gradientUnits="userSpaceOnUse" x1="158.1084" y1="266.7666" x2="228.6592" y2="266.7666">
		<stop  offset="0" style="stop-color:#96332A"/>
		<stop  offset="0.124" style="stop-color:#7D2B23;stop-opacity:0.8754"/>
		<stop  offset="0.4161" style="stop-color:#481814;stop-opacity:0.5818"/>
		<stop  offset="0.6691" style="stop-color:#210B09;stop-opacity:0.3275"/>
		<stop  offset="0.8704" style="stop-color:#090302;stop-opacity:0.1251"/>
		<stop  offset="0.9949" style="stop-color:#000000;stop-opacity:0"/>
	</linearGradient>
	<polygon opacity="0.8" fill="url(#SVGID_1_)" points="158.108,210.769 228.659,259.492 228.659,322.765 158.108,278.031 	"/>
	<linearGradient id="SVGID_2_" gradientUnits="userSpaceOnUse" x1="141.1035" y1="312.1934" x2="228.3828" y2="312.1934">
		<stop  offset="0" style="stop-color:#96332A"/>
		<stop  offset="0.124" style="stop-color:#7D2B23;stop-opacity:0.8754"/>
		<stop  offset="0.4161" style="stop-color:#481814;stop-opacity:0.5818"/>
		<stop  offset="0.6691" style="stop-color:#210B09;stop-opacity:0.3275"/>
		<stop  offset="0.8704" style="stop-color:#090302;stop-opacity:0.1251"/>
		<stop  offset="0.9949" style="stop-color:#000000;stop-opacity:0"/>
	</linearGradient>
	<path fill="url(#SVGID_2_)" d="M141.104,318.381l4.039-4.439l5.359-0.174l2.247-1.901l1.729-4.148l3.804-6.916l5.877-4.494
		l8.752-8.853l55.472,35.26c0,0-0.605,8.168-7.692,11.625c-7.089,3.459-3.804,1.902-6.742,2.075c-2.94,0.173-8.99,0.346-8.99,0.346
		l-9.507,0.172l-8.817-0.172l-7.435-0.173l-5.013,0.173h-3.977L141.104,318.381z"/>
	<g>
		<g>
			<g>
				<g>
					<path fill="#FEFEFE" d="M188.377,251.126c-1.851,0-3.363,1.506-3.363,3.363v10.089c0,17.664-13.547,26.905-26.905,26.905
						c-12.961,0-26.905-8.422-26.905-26.905v-10.089c0-1.857-1.506-3.363-3.363-3.363c-1.856,0-3.363,1.506-3.363,3.363v10.089
						c0,19.103,12.665,30.309,26.904,32.986v14.098h-10.089c-1.856,0-3.363,1.514-3.363,3.364c0,1.849,1.506,3.361,3.363,3.361
						h33.631c1.85,0,3.364-1.513,3.364-3.361c0-1.851-1.515-3.364-3.364-3.364h-10.089v-14.139
						c14.011-2.771,26.904-14.118,26.904-32.945v-10.089C191.739,252.632,190.227,251.126,188.377,251.126z"/>
					<path fill="#FEFEFE" d="M158.108,278.031c7.434,0,13.452-6.02,13.452-13.453v-40.357c0-7.433-6.019-13.453-13.452-13.453
						c-7.433,0-13.452,6.02-13.452,13.453v40.357C144.656,272.011,150.676,278.031,158.108,278.031z"/>
				</g>
			</g>
		</g>
	</g>
</g>
</svg>
