<?xml version="1.0" encoding="utf-8"?>
<!-- Generator: Adobe Illustrator 16.0.0, SVG Export Plug-In . SVG Version: 6.00 Build 0)  -->
<!DOCTYPE svg PUBLIC "-//W3C//DTD SVG 1.1//EN" "http://www.w3.org/Graphics/SVG/1.1/DTD/svg11.dtd">
<svg version="1.1" id="Layer_1" xmlns="http://www.w3.org/2000/svg" xmlns:xlink="http://www.w3.org/1999/xlink" x="0px" y="0px"
	 width="320px" height="560px" viewBox="0 -40 320 560" enable-background="new 0 -40 320 560" xml:space="preserve">
<rect fill="#EFEFEF" width="320" height="480"/>
<rect y="-40" fill="#ED2124" width="320" height="42"/>
<g>
	<circle fill="#FEFEFE" cx="293.334" cy="382.5" r="1.995"/>
	<circle fill="#FEFEFE" cx="298.17" cy="382.5" r="1.995"/>
	<circle fill="#FEFEFE" cx="303.006" cy="382.604" r="1.995"/>
</g>
<text transform="matrix(1 0 0 1 12.6665 32.25)" fill="#EB2124" font-family="'GothamRounded-Light'" font-size="24">all Contacts</text>
<text transform="matrix(1 0 0 1 13.6665 -8.75)" fill="#FEFEFE" font-family="'GothamRounded-Bold'" font-size="24">bol</text>
<text transform="matrix(1 0 0 1 165.666 32.25)" opacity="0.6" fill="#EB2124" enable-background="new    " font-family="'GothamRounded-Light'" font-size="24">recents</text>
<g>
	<g>
		<g>
			<path fill="#EB2124" d="M32.917,53.66c-10.991,0-19.924,8.933-19.924,19.924s8.933,19.925,19.924,19.925
				s19.925-8.934,19.925-19.925S43.908,53.66,32.917,53.66z M32.917,90.793c-9.499,0-17.211-7.711-17.211-17.21
				s7.712-17.211,17.211-17.211s17.21,7.713,17.21,17.211C50.127,83.083,42.416,90.793,32.917,90.793z"/>
		</g>
	</g>
	<text transform="matrix(1 0 0 1 24.8335 79.5)" fill="#EB2124" font-family="'GothamRounded-Book'" font-size="28">a</text>
</g>
<g>
	<g>
		<g>
			<path fill="#EB2124" d="M34.917,277.66c-10.991,0-19.924,8.932-19.924,19.924c0,10.99,8.933,19.924,19.924,19.924
				s19.925-8.934,19.925-19.924C54.842,286.592,45.908,277.66,34.917,277.66z M34.917,314.793c-9.499,0-17.211-7.711-17.211-17.209
				c0-9.5,7.712-17.211,17.211-17.211s17.21,7.713,17.21,17.211S44.416,314.793,34.917,314.793z"/>
		</g>
	</g>
	<text transform="matrix(1 0 0 1 26.8335 306.5)" fill="#EB2124" font-family="'GothamRounded-Book'" font-size="28">b</text>
</g>
<g>
	<rect y="475.5" fill="#343434" width="320" height="45.5"/>
	
		<circle fill="none" stroke="#FEFEFE" stroke-width="2" stroke-linecap="round" stroke-miterlimit="10" cx="159.196" cy="499.39" r="14.492"/>
	<path fill="#FEFEFE" d="M154.52,506.479l3.469-4.574c0.257-0.34,0.355-0.749,0.308-1.14c2.456,1.199,5.504,0.539,7.217-1.72
		c1.946-2.566,1.441-6.237-1.126-8.184c-2.565-1.945-6.236-1.44-8.182,1.126c-1.712,2.258-1.527,5.372,0.292,7.412
		c-0.389,0.061-0.757,0.265-1.014,0.604l-3.47,4.575c-0.524,0.691-0.389,1.678,0.303,2.202
		C153.009,507.307,153.995,507.171,154.52,506.479z M158.417,498.737c-1.776-1.346-2.126-3.888-0.779-5.665
		c1.347-1.776,3.889-2.126,5.665-0.778s2.126,3.889,0.779,5.665C162.733,499.735,160.192,500.085,158.417,498.737z"/>
</g>
<text transform="matrix(1 0 0 1 62.6665 186.4258)" fill="#333333" font-family="'GothamRounded-Light'" font-size="21">Anil Reddy</text>
<text transform="matrix(1 0 0 1 268.667 159.6406)" fill="#EB2124" font-family="'GothamRounded-Light'" font-size="7">invite to bol</text>
<text transform="matrix(1 0 0 1 62.667 147.5)" fill="#AAAAAA" font-family="'GothamRounded-Light'" font-size="10">+91987654321</text>
<circle fill="#EB2124" cx="290.472" cy="130.408" r="16.832"/>
<g id="XMLID_51_">
	<path id="XMLID_53_" fill="#FEFEFE" d="M287.664,137.567c0,0.101,0.056,0.193,0.145,0.24c0.088,0.047,0.196,0.041,0.279-0.016
		l1.869-1.276l-2.293-1.093V137.567L287.664,137.567z"/>
	<path id="XMLID_52_" fill="#FEFEFE" d="M298.78,123.177c-0.052-0.047-0.117-0.072-0.186-0.072c-0.039,0-0.08,0.009-0.118,0.027
		l-16.132,7.914c-0.165,0.081-0.27,0.249-0.269,0.434c0.002,0.184,0.107,0.351,0.273,0.43l4.252,2.026l8.501-6.987l-7.447,7.489
		l5.296,2.524c0.065,0.031,0.137,0.046,0.207,0.046c0.061,0,0.119-0.011,0.176-0.033c0.123-0.049,0.221-0.146,0.27-0.27
		l5.244-13.229C298.89,123.372,298.862,123.252,298.78,123.177z"/>
</g>
<text transform="matrix(1 0 0 1 62.6665 243.4258)" fill="#333333" font-family="'GothamRounded-Light'" font-size="21">Anusha Manju</text>
<text transform="matrix(1 0 0 1 279.667 215.6406)" fill="#AAAAAA" font-family="'GothamRounded-Light'" font-size="7">invited</text>
<text transform="matrix(1 0 0 1 62.667 203.5)" fill="#AAAAAA" font-family="'GothamRounded-Light'" font-size="10">+91987654321</text>
<circle fill="#AAAAAA" cx="290.472" cy="186.408" r="16.832"/>
<text transform="matrix(1 0 0 1 62.6665 131.4258)" fill="#333333" font-family="'GothamRounded-Light'" font-size="21">Aneesh Kumar</text>
<text transform="matrix(1 0 0 1 268.667 269.6406)" fill="#EB2124" font-family="'GothamRounded-Light'" font-size="7">invite to bol</text>
<text transform="matrix(1 0 0 1 62.667 257.5)" fill="#AAAAAA" font-family="'GothamRounded-Light'" font-size="10">+91987654321</text>
<circle fill="#EB2124" cx="290.472" cy="240.408" r="16.832"/>
<g id="XMLID_4_">
	<path id="XMLID_6_" fill="#FEFEFE" d="M287.664,247.567c0,0.101,0.056,0.193,0.145,0.239c0.088,0.048,0.196,0.041,0.279-0.016
		l1.869-1.275l-2.293-1.094V247.567L287.664,247.567z"/>
	<path id="XMLID_5_" fill="#FEFEFE" d="M298.78,233.177c-0.052-0.048-0.117-0.071-0.186-0.071c-0.039,0-0.08,0.008-0.118,0.027
		l-16.132,7.913c-0.165,0.081-0.27,0.249-0.269,0.434c0.002,0.185,0.107,0.351,0.273,0.431l4.252,2.025l8.501-6.987l-7.447,7.489
		l5.296,2.523c0.065,0.031,0.137,0.047,0.207,0.047c0.061,0,0.119-0.011,0.176-0.033c0.123-0.049,0.221-0.146,0.27-0.27
		l5.244-13.229C298.89,233.371,298.862,233.252,298.78,233.177z"/>
</g>
<text transform="matrix(1 0 0 1 62.6665 355.4258)" fill="#333333" font-family="'GothamRounded-Light'" font-size="21">Barthi Mahesh</text>
<text transform="matrix(1 0 0 1 268.667 383.6406)" fill="#EB2124" font-family="'GothamRounded-Light'" font-size="7">invite to bol</text>
<text transform="matrix(1 0 0 1 62.667 371.5)" fill="#AAAAAA" font-family="'GothamRounded-Light'" font-size="10">+91987654321</text>
<circle fill="#EB2124" cx="290.472" cy="354.408" r="16.832"/>
<g id="XMLID_7_">
	<path id="XMLID_9_" fill="#FEFEFE" d="M287.664,361.567c0,0.101,0.056,0.193,0.145,0.239c0.088,0.048,0.196,0.041,0.279-0.016
		l1.869-1.275l-2.293-1.094V361.567L287.664,361.567z"/>
	<path id="XMLID_8_" fill="#FEFEFE" d="M298.78,347.177c-0.052-0.048-0.117-0.071-0.186-0.071c-0.039,0-0.08,0.008-0.118,0.027
		l-16.132,7.913c-0.165,0.081-0.27,0.249-0.269,0.434c0.002,0.185,0.107,0.351,0.273,0.431l4.252,2.025l8.501-6.987l-7.447,7.489
		l5.296,2.523c0.065,0.031,0.137,0.047,0.207,0.047c0.061,0,0.119-0.011,0.176-0.033c0.123-0.049,0.221-0.146,0.27-0.27
		l5.244-13.229C298.89,347.371,298.862,347.252,298.78,347.177z"/>
</g>
<g>
	<path fill="#FEFEFE" d="M299.399,181.243l-0.841-0.839c-0.345-0.346-0.91-0.346-1.259,0l-8.803,8.806l-4.612-4.611
		c-0.346-0.346-0.91-0.346-1.259,0l-0.84,0.839c-0.346,0.346-0.346,0.91,0,1.259l6.078,6.078c0.174,0.174,0.398,0.263,0.627,0.263
		c0.227,0,0.455-0.089,0.626-0.263l10.272-10.272C299.744,182.151,299.744,181.589,299.399,181.243z"/>
</g>
<g>
	<g>
		<path fill="#CCCCCC" d="M34.767,218C25.52,218,18,225.521,18,234.766c0,9.244,7.52,16.766,16.767,16.766
			c9.245,0,16.765-7.521,16.765-16.766C51.531,225.521,44.011,218,34.767,218z M30.183,231.578l0.034-0.037
			c0.137-0.1,0.204-0.255,0.179-0.416c-0.338-2.033-0.117-2.881-0.042-3.092c0.59-1.813,2.443-2.65,2.805-2.799
			c0.078-0.03,0.221-0.074,0.366-0.096l0.043-0.009l0.298-0.017l0.002,0.019l0.069-0.007c0.061-0.007,0.12-0.015,0.193-0.031
			l0.066-0.013c0.058,0,0.779,0.092,1.851,0.42l0.744,0.256c1.361,0.403,1.988,1.15,2.104,1.301
			c1.089,1.235,0.797,3.101,0.527,4.102c-0.031,0.119-0.012,0.24,0.055,0.341l0.061,0.076c0.079,0.107,0.15,0.521-0.086,1.4
			c-0.045,0.267-0.144,0.485-0.29,0.631c-0.054,0.059-0.092,0.133-0.106,0.222c-0.368,2.159-2.303,4.574-4.344,4.574
			c-1.731,0-3.708-2.222-4.063-4.572c-0.013-0.091-0.05-0.168-0.111-0.234c-0.147-0.154-0.242-0.374-0.299-0.7
			C30.067,232.281,30.049,231.785,30.183,231.578z M26.297,240.946c0.075-0.095,0.494-0.585,1.339-0.908
			c0.745-0.229,2.585-0.841,3.591-1.569c0.047-0.024,0.093-0.074,0.132-0.114c0.093-0.101,0.236-0.253,0.403-0.409l0.095-0.088
			l0.095,0.089c0.887,0.836,1.867,1.292,2.761,1.292c0.94,0,1.908-0.404,2.804-1.176l0.069-0.06l0.191,0.092
			c0.169,0.155,0.463,0.369,0.6,0.435l0.175,0.085l-0.019,0.019l0.078,0.048c0.166,0.1,0.345,0.196,0.556,0.301
			c0.213,0.093,0.392,0.162,0.575,0.224c0.156,0.051,0.984,0.327,1.926,0.764l0.18,0.054c0.921,0.353,1.33,0.842,1.37,0.894
			c1.094,1.62,1.512,4.644,1.669,6.328c-2.856,2.317-6.447,3.594-10.118,3.594c-3.673,0-7.265-1.276-10.119-3.595
			C24.802,245.563,25.218,242.55,26.297,240.946z"/>
	</g>
</g>
<g>
	<g>
		<path fill="#CCCCCC" d="M34.767,337C25.52,337,18,344.521,18,353.766c0,9.244,7.52,16.766,16.767,16.766
			c9.245,0,16.765-7.521,16.765-16.766C51.531,344.521,44.011,337,34.767,337z M30.183,350.578l0.034-0.037
			c0.137-0.1,0.204-0.255,0.179-0.416c-0.338-2.033-0.117-2.881-0.042-3.092c0.59-1.813,2.443-2.65,2.805-2.799
			c0.078-0.03,0.221-0.074,0.366-0.096l0.043-0.009l0.298-0.017l0.002,0.019l0.069-0.007c0.061-0.007,0.12-0.015,0.193-0.031
			l0.066-0.013c0.058,0,0.779,0.092,1.851,0.42l0.744,0.256c1.361,0.403,1.988,1.15,2.104,1.301
			c1.089,1.235,0.797,3.101,0.527,4.102c-0.031,0.119-0.012,0.24,0.055,0.341l0.061,0.076c0.079,0.107,0.15,0.521-0.086,1.4
			c-0.045,0.267-0.144,0.485-0.29,0.631c-0.054,0.059-0.092,0.133-0.106,0.222c-0.368,2.159-2.303,4.574-4.344,4.574
			c-1.731,0-3.708-2.222-4.063-4.572c-0.013-0.091-0.05-0.168-0.111-0.234c-0.147-0.154-0.242-0.374-0.299-0.7
			C30.067,351.281,30.049,350.785,30.183,350.578z M26.297,359.946c0.075-0.095,0.494-0.585,1.339-0.908
			c0.745-0.229,2.585-0.841,3.591-1.569c0.047-0.024,0.093-0.074,0.132-0.114c0.093-0.101,0.236-0.253,0.403-0.409l0.095-0.088
			l0.095,0.089c0.887,0.836,1.867,1.292,2.761,1.292c0.94,0,1.908-0.404,2.804-1.176l0.069-0.06l0.191,0.092
			c0.169,0.155,0.463,0.369,0.6,0.435l0.175,0.085l-0.019,0.019l0.078,0.048c0.166,0.1,0.345,0.196,0.556,0.301
			c0.213,0.093,0.392,0.162,0.575,0.224c0.156,0.051,0.984,0.327,1.926,0.764l0.18,0.054c0.921,0.353,1.33,0.842,1.37,0.894
			c1.094,1.62,1.512,4.644,1.669,6.328c-2.856,2.317-6.447,3.594-10.118,3.594c-3.673,0-7.265-1.276-10.119-3.595
			C24.802,364.563,25.218,361.55,26.297,359.946z"/>
	</g>
</g>
<text transform="matrix(1 0 0 1 62.6665 416.4258)" fill="#333333" font-family="'GothamRounded-Light'" font-size="21">Banu Suresh</text>
<text transform="matrix(1 0 0 1 268.667 444.6406)" fill="#EB2124" font-family="'GothamRounded-Light'" font-size="7">invite to bol</text>
<text transform="matrix(1 0 0 1 62.667 432.5)" fill="#AAAAAA" font-family="'GothamRounded-Light'" font-size="10">+91987654321</text>
<circle fill="#EB2124" cx="290.472" cy="415.408" r="16.832"/>
<g id="XMLID_1_">
	<path id="XMLID_3_" fill="#FEFEFE" d="M287.664,422.567c0,0.101,0.056,0.193,0.145,0.239c0.088,0.048,0.196,0.041,0.279-0.016
		l1.869-1.275l-2.293-1.094V422.567L287.664,422.567z"/>
	<path id="XMLID_2_" fill="#FEFEFE" d="M298.78,408.177c-0.052-0.048-0.117-0.071-0.186-0.071c-0.039,0-0.08,0.008-0.118,0.027
		l-16.132,7.913c-0.165,0.081-0.27,0.249-0.269,0.434c0.002,0.185,0.107,0.351,0.273,0.431l4.252,2.025l8.501-6.987l-7.447,7.489
		l5.296,2.523c0.065,0.031,0.137,0.047,0.207,0.047c0.061,0,0.119-0.011,0.176-0.033c0.123-0.049,0.221-0.146,0.27-0.27
		l5.244-13.229C298.89,408.371,298.862,408.252,298.78,408.177z"/>
</g>
<g>
	<g>
		<path fill="#CCCCCC" d="M34.767,398C25.52,398,18,405.521,18,414.766c0,9.244,7.52,16.766,16.767,16.766
			c9.245,0,16.765-7.521,16.765-16.766C51.531,405.521,44.011,398,34.767,398z M30.183,411.578l0.034-0.037
			c0.137-0.1,0.204-0.255,0.179-0.416c-0.338-2.033-0.117-2.881-0.042-3.092c0.59-1.813,2.443-2.65,2.805-2.799
			c0.078-0.03,0.221-0.074,0.366-0.096l0.043-0.009l0.298-0.017l0.002,0.019l0.069-0.007c0.061-0.007,0.12-0.015,0.193-0.031
			l0.066-0.013c0.058,0,0.779,0.092,1.851,0.42l0.744,0.256c1.361,0.403,1.988,1.15,2.104,1.301
			c1.089,1.235,0.797,3.101,0.527,4.102c-0.031,0.119-0.012,0.24,0.055,0.341l0.061,0.076c0.079,0.107,0.15,0.521-0.086,1.4
			c-0.045,0.267-0.144,0.485-0.29,0.631c-0.054,0.059-0.092,0.133-0.106,0.222c-0.368,2.159-2.303,4.574-4.344,4.574
			c-1.731,0-3.708-2.222-4.063-4.572c-0.013-0.091-0.05-0.168-0.111-0.234c-0.147-0.154-0.242-0.374-0.299-0.7
			C30.067,412.281,30.049,411.785,30.183,411.578z M26.297,420.946c0.075-0.095,0.494-0.585,1.339-0.908
			c0.745-0.229,2.585-0.841,3.591-1.569c0.047-0.024,0.093-0.074,0.132-0.114c0.093-0.101,0.236-0.253,0.403-0.409l0.095-0.088
			l0.095,0.089c0.887,0.836,1.867,1.292,2.761,1.292c0.94,0,1.908-0.404,2.804-1.176l0.069-0.06l0.191,0.092
			c0.169,0.155,0.463,0.369,0.6,0.435l0.175,0.085l-0.019,0.019l0.078,0.048c0.166,0.1,0.345,0.196,0.556,0.301
			c0.213,0.093,0.392,0.162,0.575,0.224c0.156,0.051,0.984,0.327,1.926,0.764l0.18,0.054c0.921,0.353,1.33,0.842,1.37,0.894
			c1.094,1.62,1.512,4.644,1.669,6.328c-2.856,2.317-6.447,3.594-10.118,3.594c-3.673,0-7.265-1.276-10.119-3.595
			C24.802,425.563,25.218,422.55,26.297,420.946z"/>
	</g>
</g>
<g>
	<g>
		<path fill="#CCCCCC" d="M32.767,113.666c-9.247,0-16.767,7.521-16.767,16.766c0,9.244,7.52,16.766,16.767,16.766
			c9.245,0,16.765-7.521,16.765-16.766C49.531,121.187,42.011,113.666,32.767,113.666z M28.183,127.244l0.034-0.037
			c0.137-0.1,0.204-0.255,0.179-0.416c-0.338-2.033-0.117-2.881-0.042-3.092c0.59-1.813,2.443-2.65,2.805-2.799
			c0.078-0.03,0.221-0.074,0.366-0.096l0.043-0.009l0.298-0.017l0.002,0.019l0.069-0.007c0.061-0.007,0.12-0.015,0.193-0.031
			l0.066-0.013c0.058,0,0.779,0.092,1.851,0.42l0.744,0.256c1.361,0.403,1.988,1.15,2.104,1.301
			c1.089,1.235,0.797,3.101,0.527,4.102c-0.031,0.119-0.012,0.24,0.055,0.341l0.061,0.076c0.079,0.107,0.15,0.521-0.086,1.4
			c-0.045,0.267-0.144,0.485-0.29,0.631c-0.054,0.059-0.092,0.133-0.106,0.222c-0.368,2.159-2.303,4.574-4.344,4.574
			c-1.731,0-3.708-2.222-4.063-4.572c-0.013-0.091-0.05-0.168-0.111-0.234c-0.147-0.154-0.242-0.374-0.299-0.7
			C28.067,127.947,28.049,127.451,28.183,127.244z M24.297,136.612c0.075-0.095,0.494-0.585,1.339-0.908
			c0.745-0.229,2.585-0.841,3.591-1.569c0.047-0.024,0.093-0.074,0.132-0.114c0.093-0.101,0.236-0.253,0.403-0.409l0.095-0.088
			l0.095,0.089c0.887,0.836,1.867,1.292,2.761,1.292c0.94,0,1.908-0.404,2.804-1.176l0.069-0.06l0.191,0.092
			c0.169,0.155,0.463,0.369,0.6,0.435l0.175,0.085l-0.019,0.019l0.078,0.048c0.166,0.1,0.345,0.196,0.556,0.301
			c0.213,0.093,0.392,0.162,0.575,0.224c0.156,0.051,0.984,0.327,1.926,0.764l0.18,0.054c0.921,0.353,1.33,0.842,1.37,0.894
			c1.094,1.62,1.512,4.644,1.669,6.328c-2.856,2.317-6.447,3.594-10.118,3.594c-3.673,0-7.265-1.276-10.119-3.595
			C22.802,141.229,23.218,138.216,24.297,136.612z"/>
	</g>
</g>
<g>
	<g>
		<path fill="#CCCCCC" d="M32.767,167.666c-9.247,0-16.767,7.521-16.767,16.766c0,9.244,7.52,16.766,16.767,16.766
			c9.245,0,16.765-7.521,16.765-16.766C49.531,175.187,42.011,167.666,32.767,167.666z M28.183,181.244l0.034-0.037
			c0.137-0.1,0.204-0.255,0.179-0.416c-0.338-2.033-0.117-2.881-0.042-3.092c0.59-1.813,2.443-2.65,2.805-2.799
			c0.078-0.03,0.221-0.074,0.366-0.096l0.043-0.009l0.298-0.017l0.002,0.019l0.069-0.007c0.061-0.007,0.12-0.015,0.193-0.031
			l0.066-0.013c0.058,0,0.779,0.092,1.851,0.42l0.744,0.256c1.361,0.403,1.988,1.15,2.104,1.301
			c1.089,1.235,0.797,3.101,0.527,4.102c-0.031,0.119-0.012,0.24,0.055,0.341l0.061,0.076c0.079,0.107,0.15,0.521-0.086,1.4
			c-0.045,0.267-0.144,0.485-0.29,0.631c-0.054,0.059-0.092,0.133-0.106,0.222c-0.368,2.159-2.303,4.574-4.344,4.574
			c-1.731,0-3.708-2.222-4.063-4.572c-0.013-0.091-0.05-0.168-0.111-0.234c-0.147-0.154-0.242-0.374-0.299-0.7
			C28.067,181.947,28.049,181.451,28.183,181.244z M24.297,190.612c0.075-0.095,0.494-0.585,1.339-0.908
			c0.745-0.229,2.585-0.841,3.591-1.569c0.047-0.024,0.093-0.074,0.132-0.114c0.093-0.101,0.236-0.253,0.403-0.409l0.095-0.088
			l0.095,0.089c0.887,0.836,1.867,1.292,2.761,1.292c0.94,0,1.908-0.404,2.804-1.176l0.069-0.06l0.191,0.092
			c0.169,0.155,0.463,0.369,0.6,0.435l0.175,0.085l-0.019,0.019l0.078,0.048c0.166,0.1,0.345,0.196,0.556,0.301
			c0.213,0.093,0.392,0.162,0.575,0.224c0.156,0.051,0.984,0.327,1.926,0.764l0.18,0.054c0.921,0.353,1.33,0.842,1.37,0.894
			c1.094,1.62,1.512,4.644,1.669,6.328c-2.856,2.317-6.447,3.594-10.118,3.594c-3.673,0-7.265-1.276-10.119-3.595
			C22.802,195.229,23.218,192.216,24.297,190.612z"/>
	</g>
</g>
</svg>
