<?xml version="1.0" encoding="utf-8"?>
<!-- Generator: Adobe Illustrator 16.0.0, SVG Export Plug-In . SVG Version: 6.00 Build 0)  -->
<!DOCTYPE svg PUBLIC "-//W3C//DTD SVG 1.1//EN" "http://www.w3.org/Graphics/SVG/1.1/DTD/svg11.dtd">
<svg version="1.1" id="Layer_1" xmlns="http://www.w3.org/2000/svg" xmlns:xlink="http://www.w3.org/1999/xlink" x="0px" y="0px"
	 width="320px" height="560px" viewBox="0 -40 320 560" enable-background="new 0 -40 320 560" xml:space="preserve">
<rect y="-40" fill="#EFEFEF" width="320" height="559.499"/>
<rect y="-40" fill="#ED2124" width="320" height="47.333"/>
<text transform="matrix(1 0 0 1 58.6665 -11)" fill="#FEFEFE" font-family="'GothamRounded-Light'" font-size="15">Dr. Devi Shetty</text>
<g>
	<g opacity="0.1">
		<polygon points="12.488,51.001 28.512,61.198 28.512,40.804 		"/>
		<rect x="25" y="24.417" width="267" height="54"/>
	</g>
	<g>
		<g>
			<g>
				<g id="play-arrow_16_">
					<polygon fill="#FFFFFF" points="12.488,49.583 28.512,59.78 28.512,39.386 					"/>
				</g>
			</g>
			<rect x="25" y="23" fill="#FFFFFF" width="267" height="54"/>
		</g>
	</g>
</g>
<g>
	
		<circle fill="none" stroke="#AAAAAA" stroke-width="2" stroke-linecap="round" stroke-miterlimit="10" cx="46.916" cy="50.25" r="10.992"/>
	<g>
		<g id="play-arrow">
			<polygon fill="#AAAAAA" stroke="#AAAAAA" stroke-miterlimit="10" points="44.863,46.053 44.863,54.447 51.458,50.25 			"/>
		</g>
	</g>
</g>
<line fill="none" stroke="#AAAAAA" stroke-width="3" stroke-linecap="round" stroke-linejoin="round" stroke-miterlimit="10" x1="144.333" y1="50" x2="237.333" y2="50"/>
<line fill="none" stroke="#ED2124" stroke-width="3" stroke-linecap="round" stroke-linejoin="round" stroke-miterlimit="10" x1="71.667" y1="50" x2="134.667" y2="50"/>
<circle opacity="0.7" fill="none" stroke="#333333" stroke-width="4" stroke-linecap="round" stroke-miterlimit="10" enable-background="new    " cx="139.916" cy="50.25" r="5.249"/>
<text transform="matrix(1 0 0 1 175.667 64)" fill="#EB2124" font-family="'GothamRounded-Light'" font-size="7">message Received</text>
<text transform="matrix(1 0 0 1 182.667 42)" fill="#CCCCCC" font-family="'GothamRounded-Light'" font-size="7">10:30 am, Today</text>
<g>
	<g opacity="0.2">
		<polygon points="12.488,189.001 28.512,199.198 28.512,178.804 		"/>
		<rect x="25" y="162.417" width="267" height="54"/>
	</g>
	<g>
		<g>
			<g>
				<g id="play-arrow_15_">
					<polygon fill="#FFFFFF" points="12.488,187.583 28.512,197.78 28.512,177.386 					"/>
				</g>
			</g>
			<rect x="25" y="161" fill="#FFFFFF" width="267" height="54"/>
		</g>
	</g>
</g>
<g>
	
		<circle fill="none" stroke="#AAAAAA" stroke-width="2" stroke-linecap="round" stroke-miterlimit="10" cx="46.916" cy="188.25" r="10.992"/>
	<g>
		<g id="play-arrow_2_">
			<polygon fill="#AAAAAA" stroke="#AAAAAA" stroke-miterlimit="10" points="44.863,184.053 44.863,192.447 51.458,188.25 			"/>
		</g>
	</g>
</g>
<line fill="none" stroke="#AAAAAA" stroke-width="3" stroke-linecap="round" stroke-linejoin="round" stroke-miterlimit="10" x1="82.5" y1="188" x2="237.333" y2="188"/>
<circle opacity="0.7" fill="none" stroke="#333333" stroke-width="4" stroke-linecap="round" stroke-miterlimit="10" enable-background="new    " cx="77.916" cy="188.25" r="5.249"/>
<text transform="matrix(1 0 0 1 202.667 202)" fill="#EB2124" font-family="'GothamRounded-Light'" font-size="7">heared</text>
<text transform="matrix(1 0 0 1 182.667 180)" fill="#CCCCCC" font-family="'GothamRounded-Light'" font-size="7">10:35 am, Today</text>
<g>
	<path fill="#EB2124" d="M237.718,197.287L237.432,197c-0.119-0.117-0.313-0.117-0.432,0l-3.01,3.01l-1.576-1.575
		c-0.117-0.118-0.313-0.118-0.432,0l-0.285,0.286c-0.119,0.119-0.119,0.312,0,0.432l2.076,2.078c0.061,0.06,0.137,0.09,0.215,0.09
		s0.156-0.03,0.215-0.09l3.511-3.513C237.836,197.598,237.836,197.405,237.718,197.287z"/>
</g>
<g>
	<g opacity="0.2">
		<polygon points="289.977,109.804 289.977,130.198 306,120.001 		"/>
		<rect x="26" y="93.417" width="267" height="54"/>
	</g>
	<g>
		<g>
			<g>
				<g id="play-arrow_14_">
					<polygon fill="#FFFFFF" points="289.977,108.386 289.977,128.78 306,118.583 					"/>
				</g>
			</g>
			<rect x="26" y="92" fill="#FFFFFF" width="267" height="54"/>
		</g>
	</g>
</g>
<line fill="none" stroke="#AAAAAA" stroke-width="3" stroke-linecap="round" stroke-linejoin="round" stroke-miterlimit="10" x1="92.333" y1="118" x2="247.333" y2="118"/>
<circle opacity="0.7" fill="none" stroke="#333333" stroke-width="4" stroke-linecap="round" stroke-miterlimit="10" enable-background="new    " cx="87.916" cy="118.25" r="5.249"/>
<g>
	<g>
		<path fill="#AAAAAA" d="M270.25,105.993c-6.762,0-12.257,5.496-12.257,12.257c0,6.762,5.495,12.258,12.257,12.258
			s12.258-5.496,12.258-12.258C282.508,111.489,277.012,105.993,270.25,105.993z M270.25,128.838
			c-5.844,0-10.588-4.745-10.588-10.588s4.744-10.587,10.588-10.587s10.588,4.745,10.588,10.587
			C280.838,124.094,276.094,128.838,270.25,128.838z"/>
		<path fill="#AAAAAA" d="M267.453,112.825c-0.458,0-0.834,0.375-0.834,0.834v8.765c0,0.459,0.376,0.834,0.834,0.834
			c0.46,0,0.836-0.375,0.836-0.834v-8.765C268.289,113.2,267.913,112.825,267.453,112.825z"/>
		<path fill="#AAAAAA" d="M273.158,112.825c-0.459,0-0.834,0.375-0.834,0.834v8.765c0,0.459,0.375,0.834,0.834,0.834
			s0.835-0.375,0.835-0.834v-8.765C273.993,113.2,273.617,112.825,273.158,112.825z"/>
	</g>
</g>
<text transform="matrix(1 0 0 1 220.667 131.6406)" fill="#EB2124" font-family="'GothamRounded-Light'" font-size="7">Sent</text>
<text transform="matrix(1 0 0 1 192.667 109.5)" fill="#CCCCCC" font-family="'GothamRounded-Light'" font-size="7">10:32 am, Today</text>
<g>
	<path fill="#EB2124" d="M247.585,127.622l-0.286-0.287c-0.119-0.118-0.313-0.118-0.432,0l-3.01,3.01l-1.576-1.576
		c-0.117-0.118-0.313-0.118-0.432,0l-0.285,0.287c-0.119,0.118-0.119,0.311,0,0.431l2.076,2.078c0.061,0.06,0.137,0.09,0.215,0.09
		s0.156-0.03,0.215-0.09l3.511-3.512C247.703,127.932,247.703,127.74,247.585,127.622z"/>
</g>
<g>
	<g opacity="0.2">
		<polygon points="288.977,247.805 288.977,268.197 305,258.001 		"/>
		<rect x="25" y="231.417" width="267" height="54"/>
	</g>
	<g>
		<g>
			<g>
				<g id="play-arrow_17_">
					<polygon fill="#FFFFFF" points="288.977,246.387 288.977,266.779 305,256.584 					"/>
				</g>
			</g>
			<rect x="25" y="230" fill="#FFFFFF" width="267" height="54"/>
		</g>
	</g>
</g>
<line fill="none" stroke="#AAAAAA" stroke-width="3" stroke-linecap="round" stroke-linejoin="round" stroke-miterlimit="10" x1="91.333" y1="256" x2="246.333" y2="256"/>
<circle opacity="0.7" fill="none" stroke="#333333" stroke-width="4" stroke-linecap="round" stroke-miterlimit="10" enable-background="new    " cx="86.916" cy="256.25" r="5.249"/>
<g>
	<g>
		<path fill="#AAAAAA" d="M269.25,243.993c-6.762,0-12.257,5.495-12.257,12.257s5.495,12.258,12.257,12.258
			s12.258-5.496,12.258-12.258S276.012,243.993,269.25,243.993z M269.25,266.838c-5.844,0-10.588-4.744-10.588-10.588
			s4.744-10.588,10.588-10.588s10.588,4.745,10.588,10.588C279.838,262.094,275.094,266.838,269.25,266.838z"/>
		<path fill="#AAAAAA" d="M266.453,250.824c-0.458,0-0.834,0.376-0.834,0.835v8.765c0,0.459,0.376,0.835,0.834,0.835
			c0.46,0,0.836-0.376,0.836-0.835v-8.765C267.289,251.2,266.913,250.824,266.453,250.824z"/>
		<path fill="#AAAAAA" d="M272.158,250.824c-0.459,0-0.834,0.376-0.834,0.835v8.765c0,0.459,0.375,0.835,0.834,0.835
			s0.835-0.376,0.835-0.835v-8.765C272.993,251.2,272.617,250.824,272.158,250.824z"/>
	</g>
</g>
<text transform="matrix(1 0 0 1 213.667 269.6406)" fill="#EB2124" font-family="'GothamRounded-Light'" font-size="7">Sending...</text>
<text transform="matrix(1 0 0 1 191.667 247.5)" fill="#CCCCCC" font-family="'GothamRounded-Light'" font-size="7">10:38 am, Today</text>
<g>
	<rect y="449" fill="#343434" width="320" height="71"/>
	<g>
		<circle fill="#FEFEFE" cx="293.334" cy="462.5" r="1.995"/>
		<circle fill="#FEFEFE" cx="298.17" cy="462.5" r="1.995"/>
		<circle fill="#FEFEFE" cx="303.006" cy="462.604" r="1.995"/>
	</g>
	<g>
		<g>
			<g>
				<g>
					<path fill="#ED2124" d="M167.129,482.387c-0.496,0-0.902,0.405-0.902,0.903V486c0,4.743-3.639,7.226-7.227,7.226
						c-3.481,0-7.226-2.262-7.226-7.226v-2.71c0-0.498-0.405-0.903-0.903-0.903s-0.903,0.405-0.903,0.903V486
						c0,5.13,3.401,8.14,7.226,8.858v3.785h-2.71c-0.499,0-0.903,0.407-0.903,0.903c0,0.497,0.404,0.903,0.903,0.903h9.034
						c0.496,0,0.902-0.406,0.902-0.903c0-0.496-0.406-0.903-0.902-0.903h-2.711v-3.797c3.764-0.743,7.227-3.792,7.227-8.848v-2.71
						C168.032,482.792,167.626,482.387,167.129,482.387z"/>
					<path fill="#ED2124" d="M159,489.612c1.996,0,3.611-1.616,3.611-3.612v-10.839c0-1.996-1.615-3.613-3.611-3.613
						s-3.613,1.617-3.613,3.613V486C155.387,487.996,157.004,489.612,159,489.612z"/>
				</g>
			</g>
		</g>
	</g>
	<g>
		<g>
			<polygon fill="#CCCCCC" points="49.381,486 55.672,492.291 56.172,491.79 50.734,486.354 68.619,486.354 68.619,485.646 
				50.735,485.646 56.172,480.209 55.672,479.709 			"/>
		</g>
	</g>
	<text transform="matrix(1 0 0 1 84.5 483.5)" fill="#CCCCCC" font-family="'GothamRounded-Light'" font-size="8">Slide Left</text>
	<text transform="matrix(1 0 0 1 84.5 493.5)" fill="#CCCCCC" font-family="'GothamRounded-Light'" font-size="8">to Cancel</text>
	<text transform="matrix(1 0 0 1 194.833 483.5)" fill="#CCCCCC" font-family="'GothamRounded-Light'" font-size="8">Tab on mic to</text>
	<text transform="matrix(1 0 0 1 194.833 493.5)" fill="#CCCCCC" font-family="'GothamRounded-Light'" font-size="8">send message</text>
	<g>
		
			<circle fill="none" stroke="#EB2124" stroke-width="3" stroke-linecap="round" stroke-miterlimit="10" cx="159" cy="486" r="19.742"/>
		<g>
			<path fill="none" stroke="#CCCCCC" stroke-width="3.25" stroke-linecap="round" stroke-miterlimit="10" d="M139.334,485.922
				c-0.044,10.86,8.725,19.701,19.586,19.745c10.861,0.044,19.701-8.725,19.746-19.586"/>
			<path fill="none" stroke="#CCCCCC" stroke-width="3.25" stroke-linecap="round" stroke-miterlimit="10" d="M139.334,485.922
				c0.044-10.862,8.885-19.631,19.746-19.587"/>
		</g>
	</g>
</g>
<g>
	<g>
		<path fill="#CCCCCC" d="M51.709,241C42.495,241,35,248.494,35,257.708s7.495,16.708,16.709,16.708
			c9.213,0,16.708-7.494,16.708-16.708S60.922,241,51.709,241z M47.142,254.531l0.033-0.036c0.136-0.099,0.203-0.254,0.178-0.417
			c-0.336-2.023-0.116-2.869-0.041-3.08c0.587-1.806,2.434-2.639,2.796-2.788c0.077-0.03,0.219-0.074,0.364-0.096l0.043-0.011
			l0.297-0.015l0.003,0.018l0.068-0.006c0.062-0.007,0.12-0.015,0.194-0.031l0.065-0.014c0.058,0.001,0.776,0.092,1.844,0.42
			l0.742,0.254c1.357,0.402,1.981,1.147,2.097,1.298c1.086,1.231,0.795,3.09,0.526,4.087c-0.031,0.117-0.012,0.239,0.055,0.339
			l0.061,0.076c0.079,0.106,0.149,0.521-0.086,1.396c-0.045,0.267-0.143,0.482-0.289,0.628c-0.053,0.059-0.092,0.135-0.105,0.22
			c-0.368,2.153-2.297,4.562-4.33,4.562c-1.726,0-3.695-2.216-4.05-4.56c-0.013-0.088-0.05-0.165-0.11-0.23
			c-0.147-0.154-0.242-0.375-0.298-0.699C47.025,255.232,47.008,254.737,47.142,254.531z M43.269,263.868
			c0.075-0.096,0.492-0.584,1.335-0.906c0.742-0.228,2.575-0.836,3.577-1.563c0.047-0.024,0.093-0.073,0.132-0.112
			c0.092-0.101,0.234-0.252,0.402-0.408l0.094-0.089l0.095,0.09c0.882,0.832,1.859,1.288,2.751,1.288
			c0.936,0,1.901-0.405,2.793-1.172l0.07-0.062l0.189,0.093c0.169,0.154,0.462,0.367,0.598,0.433l0.175,0.085l-0.018,0.018
			l0.077,0.048c0.166,0.1,0.344,0.196,0.554,0.301c0.212,0.093,0.391,0.162,0.573,0.223c0.156,0.051,0.98,0.326,1.919,0.76
			l0.179,0.055c0.918,0.352,1.326,0.84,1.366,0.891c1.09,1.615,1.507,4.627,1.663,6.306c-2.846,2.31-6.424,3.583-10.083,3.583
			s-7.239-1.273-10.083-3.584C41.778,268.469,42.192,265.467,43.269,263.868z"/>
	</g>
</g>
<g>
	<g>
		<path fill="#CCCCCC" d="M264.376,171.333c-9.214,0-16.709,7.494-16.709,16.708s7.495,16.708,16.709,16.708
			c9.213,0,16.708-7.494,16.708-16.708S273.589,171.333,264.376,171.333z M259.809,184.864l0.033-0.036
			c0.137-0.099,0.203-0.254,0.178-0.417c-0.336-2.023-0.115-2.869-0.04-3.08c0.587-1.806,2.435-2.639,2.796-2.788
			c0.077-0.03,0.219-0.074,0.363-0.096l0.043-0.011l0.297-0.015l0.004,0.018l0.068-0.006c0.061-0.007,0.119-0.015,0.193-0.031
			l0.065-0.014c0.058,0.001,0.776,0.092,1.844,0.42l0.741,0.254c1.357,0.402,1.982,1.147,2.098,1.298
			c1.086,1.231,0.795,3.09,0.525,4.087c-0.03,0.117-0.012,0.239,0.056,0.339l0.061,0.076c0.079,0.106,0.149,0.521-0.087,1.396
			c-0.045,0.267-0.143,0.482-0.289,0.628c-0.053,0.059-0.092,0.135-0.104,0.22c-0.368,2.153-2.297,4.562-4.329,4.562
			c-1.727,0-3.695-2.216-4.051-4.56c-0.013-0.088-0.049-0.165-0.109-0.23c-0.148-0.154-0.242-0.375-0.299-0.699
			C259.692,185.565,259.676,185.07,259.809,184.864z M255.936,194.201c0.074-0.096,0.492-0.584,1.336-0.906
			c0.741-0.228,2.574-0.836,3.576-1.563c0.048-0.024,0.094-0.073,0.133-0.112c0.092-0.101,0.234-0.252,0.402-0.408l0.094-0.089
			l0.096,0.09c0.881,0.832,1.859,1.288,2.75,1.288c0.937,0,1.901-0.405,2.794-1.172l0.069-0.062l0.189,0.093
			c0.17,0.154,0.463,0.367,0.598,0.433l0.175,0.085l-0.019,0.018l0.078,0.048c0.165,0.1,0.344,0.196,0.553,0.301
			c0.213,0.093,0.392,0.162,0.574,0.223c0.155,0.051,0.98,0.326,1.918,0.76l0.18,0.055c0.918,0.352,1.326,0.84,1.365,0.891
			c1.09,1.615,1.508,4.627,1.663,6.306c-2.847,2.31-6.425,3.583-10.083,3.583c-3.66,0-7.24-1.273-10.083-3.584
			C254.445,198.802,254.859,195.8,255.936,194.201z"/>
	</g>
</g>
<g>
	<g>
		<path fill="#CCCCCC" d="M264.376,32.333c-9.214,0-16.709,7.494-16.709,16.708s7.495,16.708,16.709,16.708
			c9.213,0,16.708-7.494,16.708-16.708S273.589,32.333,264.376,32.333z M259.809,45.864l0.033-0.036
			c0.137-0.099,0.203-0.254,0.178-0.417c-0.336-2.023-0.115-2.869-0.04-3.08c0.587-1.806,2.435-2.639,2.796-2.788
			c0.077-0.03,0.219-0.074,0.363-0.096l0.043-0.011l0.297-0.015l0.004,0.018l0.068-0.006c0.061-0.007,0.119-0.015,0.193-0.031
			l0.065-0.014c0.058,0.001,0.776,0.092,1.844,0.42l0.741,0.254c1.357,0.402,1.982,1.147,2.098,1.298
			c1.086,1.231,0.795,3.09,0.525,4.087c-0.03,0.117-0.012,0.239,0.056,0.339l0.061,0.076c0.079,0.106,0.149,0.521-0.087,1.396
			c-0.045,0.267-0.143,0.482-0.289,0.628c-0.053,0.059-0.092,0.135-0.104,0.22c-0.368,2.153-2.297,4.562-4.329,4.562
			c-1.727,0-3.695-2.216-4.051-4.56c-0.013-0.088-0.049-0.165-0.109-0.23c-0.148-0.154-0.242-0.375-0.299-0.699
			C259.692,46.565,259.676,46.07,259.809,45.864z M255.936,55.201c0.074-0.096,0.492-0.584,1.336-0.906
			c0.741-0.228,2.574-0.836,3.576-1.563c0.048-0.024,0.094-0.073,0.133-0.112c0.092-0.101,0.234-0.252,0.402-0.408l0.094-0.089
			l0.096,0.09c0.881,0.832,1.859,1.288,2.75,1.288c0.937,0,1.901-0.405,2.794-1.172l0.069-0.062l0.189,0.093
			c0.17,0.154,0.463,0.367,0.598,0.433l0.175,0.085l-0.019,0.018l0.078,0.048c0.165,0.1,0.344,0.196,0.553,0.301
			c0.213,0.093,0.392,0.162,0.574,0.223c0.155,0.051,0.98,0.326,1.918,0.76l0.18,0.055c0.918,0.352,1.326,0.84,1.365,0.891
			c1.09,1.615,1.508,4.627,1.663,6.306c-2.847,2.31-6.425,3.583-10.083,3.583c-3.66,0-7.24-1.273-10.083-3.584
			C254.445,59.802,254.859,56.8,255.936,55.201z"/>
	</g>
</g>
<g>
	<g>
		<path fill="#CCCCCC" d="M30.376-33c-9.214,0-16.709,7.494-16.709,16.708S21.162,0.416,30.376,0.416
			c9.213,0,16.708-7.494,16.708-16.708S39.589-33,30.376-33z M25.809-19.469l0.033-0.036c0.137-0.099,0.203-0.254,0.178-0.417
			c-0.336-2.023-0.115-2.869-0.04-3.08c0.587-1.806,2.435-2.639,2.796-2.788c0.077-0.03,0.219-0.074,0.363-0.096l0.043-0.011
			l0.297-0.015l0.004,0.018l0.068-0.006c0.061-0.007,0.119-0.015,0.193-0.031l0.065-0.014c0.058,0.001,0.776,0.092,1.844,0.42
			l0.741,0.254c1.357,0.402,1.982,1.147,2.098,1.298c1.086,1.231,0.795,3.09,0.525,4.087c-0.03,0.117-0.012,0.239,0.056,0.339
			l0.061,0.076c0.079,0.106,0.149,0.521-0.087,1.396c-0.045,0.267-0.143,0.482-0.289,0.628c-0.053,0.059-0.092,0.135-0.104,0.22
			c-0.368,2.153-2.297,4.562-4.329,4.562c-1.727,0-3.695-2.216-4.051-4.56c-0.013-0.088-0.049-0.165-0.109-0.23
			c-0.148-0.154-0.242-0.375-0.299-0.699C25.692-18.768,25.676-19.263,25.809-19.469z M21.936-10.132
			c0.074-0.096,0.492-0.584,1.336-0.906c0.741-0.228,2.574-0.836,3.576-1.563c0.048-0.024,0.094-0.073,0.133-0.112
			c0.092-0.101,0.234-0.252,0.402-0.408l0.094-0.089l0.096,0.09c0.881,0.832,1.859,1.288,2.75,1.288
			c0.937,0,1.901-0.405,2.794-1.172l0.069-0.062l0.189,0.093c0.17,0.154,0.463,0.367,0.598,0.433l0.175,0.085l-0.019,0.018
			l0.078,0.048c0.165,0.1,0.344,0.196,0.553,0.301c0.213,0.093,0.392,0.162,0.574,0.223c0.155,0.051,0.98,0.326,1.918,0.76
			l0.18,0.055c0.918,0.352,1.326,0.84,1.365,0.891c1.09,1.615,1.508,4.627,1.663,6.306c-2.847,2.31-6.425,3.583-10.083,3.583
			c-3.66,0-7.24-1.273-10.083-3.584C20.445-5.532,20.859-8.534,21.936-10.132z"/>
	</g>
</g>
<g>
	<g>
		<path fill="#CCCCCC" d="M52.709,101.667c-9.214,0-16.709,7.494-16.709,16.708s7.495,16.708,16.709,16.708
			c9.213,0,16.708-7.494,16.708-16.708S61.922,101.667,52.709,101.667z M48.142,115.198l0.033-0.036
			c0.137-0.099,0.203-0.254,0.178-0.417c-0.336-2.023-0.115-2.869-0.04-3.08c0.587-1.806,2.435-2.639,2.796-2.788
			c0.077-0.03,0.219-0.074,0.363-0.096l0.043-0.011l0.297-0.015l0.004,0.018l0.068-0.006c0.061-0.007,0.119-0.015,0.193-0.031
			l0.065-0.014c0.058,0.001,0.776,0.092,1.844,0.42l0.741,0.254c1.357,0.402,1.982,1.147,2.098,1.298
			c1.086,1.231,0.795,3.09,0.525,4.087c-0.03,0.117-0.012,0.239,0.056,0.339l0.061,0.076c0.079,0.106,0.149,0.521-0.087,1.396
			c-0.045,0.267-0.143,0.482-0.289,0.628c-0.053,0.059-0.092,0.135-0.104,0.22c-0.368,2.153-2.297,4.562-4.329,4.562
			c-1.727,0-3.695-2.216-4.051-4.56c-0.013-0.088-0.049-0.165-0.109-0.23c-0.148-0.154-0.242-0.375-0.299-0.699
			C48.026,115.899,48.009,115.404,48.142,115.198z M44.269,124.535c0.074-0.096,0.492-0.584,1.336-0.906
			c0.741-0.228,2.574-0.836,3.576-1.563c0.048-0.024,0.094-0.073,0.133-0.112c0.092-0.101,0.234-0.252,0.402-0.408l0.094-0.089
			l0.096,0.09c0.881,0.832,1.859,1.288,2.75,1.288c0.937,0,1.901-0.405,2.794-1.172l0.069-0.062l0.189,0.093
			c0.17,0.154,0.463,0.367,0.598,0.433l0.175,0.085l-0.019,0.018l0.078,0.048c0.165,0.1,0.344,0.196,0.553,0.301
			c0.213,0.093,0.392,0.162,0.574,0.223c0.155,0.051,0.98,0.326,1.918,0.76l0.18,0.055c0.918,0.352,1.326,0.84,1.365,0.891
			c1.09,1.615,1.508,4.627,1.663,6.306c-2.847,2.31-6.425,3.583-10.083,3.583c-3.66,0-7.24-1.273-10.083-3.584
			C42.779,129.135,43.193,126.133,44.269,124.535z"/>
	</g>
</g>
</svg>
