<?xml version="1.0" encoding="utf-8"?>
<!-- Generator: Adobe Illustrator 16.0.0, SVG Export Plug-In . SVG Version: 6.00 Build 0)  -->
<!DOCTYPE svg PUBLIC "-//W3C//DTD SVG 1.1//EN" "http://www.w3.org/Graphics/SVG/1.1/DTD/svg11.dtd">
<svg version="1.1" id="Layer_1" xmlns="http://www.w3.org/2000/svg" xmlns:xlink="http://www.w3.org/1999/xlink" x="0px" y="0px"
	 width="320px" height="480px" viewBox="0 0 320 480" enable-background="new 0 0 320 480" xml:space="preserve">
<rect fill="#EFEFEF" width="320" height="480"/>
<rect fill="#ED2124" width="320" height="42"/>
<rect y="409" fill="#343434" width="320" height="71"/>
<g>
	<circle fill="#FEFEFE" cx="293.334" cy="422.5" r="1.995"/>
	<circle fill="#FEFEFE" cx="298.17" cy="422.5" r="1.995"/>
	<circle fill="#FEFEFE" cx="303.006" cy="422.604" r="1.995"/>
</g>
<g>
	<g>
		<g>
			<g>
				<path fill="#ED2124" d="M167.129,442.387c-0.496,0-0.903,0.405-0.903,0.903V446c0,4.743-3.638,7.226-7.226,7.226
					c-3.481,0-7.226-2.262-7.226-7.226v-2.71c0-0.498-0.405-0.903-0.903-0.903s-0.903,0.405-0.903,0.903V446
					c0,5.13,3.401,8.14,7.226,8.858v3.786h-2.71c-0.499,0-0.903,0.407-0.903,0.903c0,0.497,0.404,0.903,0.903,0.903h9.033
					c0.496,0,0.903-0.406,0.903-0.903c0-0.496-0.407-0.903-0.903-0.903h-2.71v-3.797c3.763-0.744,7.226-3.792,7.226-8.848v-2.71
					C168.032,442.792,167.626,442.387,167.129,442.387z"/>
				<path fill="#ED2124" d="M159,449.612c1.996,0,3.612-1.616,3.612-3.612v-10.839c0-1.996-1.616-3.613-3.612-3.613
					s-3.613,1.617-3.613,3.613V446C155.387,447.996,157.004,449.612,159,449.612z"/>
			</g>
		</g>
	</g>
</g>
<image overflow="visible" width="300" height="300" xlink:href="shetty-devi-image.PNG"  transform="matrix(0.1136 0 0 0.1136 13.4014 4.5)">
</image>
<text transform="matrix(1 0 0 1 58.6665 27)" fill="#FEFEFE" font-family="'GothamRounded-Light'" font-size="15">Dr. Devi Shetty</text>
<g>
	<g>
		<g opacity="0.1">
			<polygon points="12.488,91.001 28.512,101.198 28.512,80.804 			"/>
			<rect x="25" y="64.417" width="267" height="54"/>
		</g>
		<g>
			<g>
				<g>
					<g id="play-arrow_16_">
						<polygon fill="#FFFFFF" points="12.488,89.583 28.512,99.78 28.512,79.386 						"/>
					</g>
				</g>
				<rect x="25" y="63" fill="#FFFFFF" width="267" height="54"/>
			</g>
		</g>
	</g>
	<g>
		
			<circle fill="none" stroke="#AAAAAA" stroke-width="2" stroke-linecap="round" stroke-miterlimit="10" cx="46.916" cy="90.25" r="10.992"/>
		<g>
			<g id="play-arrow">
				<polygon fill="#AAAAAA" stroke="#AAAAAA" stroke-miterlimit="10" points="44.863,86.053 44.863,94.447 51.458,90.25 				"/>
			</g>
		</g>
	</g>
	
		<image overflow="visible" width="300" height="300" xlink:href="shetty-devi-image.PNG"  transform="matrix(0.1136 0 0 0.1136 247.4014 73)">
	</image>
	
		<line fill="none" stroke="#AAAAAA" stroke-width="3" stroke-linecap="round" stroke-linejoin="round" stroke-miterlimit="10" x1="144.333" y1="90" x2="237.333" y2="90"/>
	
		<line fill="none" stroke="#ED2124" stroke-width="3" stroke-linecap="round" stroke-linejoin="round" stroke-miterlimit="10" x1="71.667" y1="90" x2="134.667" y2="90"/>
	
		<circle opacity="0.7" fill="none" stroke="#333333" stroke-width="4" stroke-linecap="round" stroke-miterlimit="10" cx="139.916" cy="90.25" r="5.249"/>
	<text transform="matrix(1 0 0 1 175.667 104)" fill="#EB2124" font-family="'GothamRounded-Light'" font-size="7">message Received</text>
	<text transform="matrix(1 0 0 1 182.667 82)" fill="#CCCCCC" font-family="'GothamRounded-Light'" font-size="7">10:30 am, Today</text>
</g>
<g>
	<g>
		<g opacity="0.2">
			<polygon points="12.488,229.001 28.512,239.198 28.512,218.804 			"/>
			<rect x="25" y="202.417" width="267" height="54"/>
		</g>
		<g>
			<g>
				<g>
					<g id="play-arrow_15_">
						<polygon fill="#FFFFFF" points="12.488,227.583 28.512,237.78 28.512,217.386 						"/>
					</g>
				</g>
				<rect x="25" y="201" fill="#FFFFFF" width="267" height="54"/>
			</g>
		</g>
	</g>
	<g>
		
			<circle fill="none" stroke="#AAAAAA" stroke-width="2" stroke-linecap="round" stroke-miterlimit="10" cx="46.916" cy="228.25" r="10.992"/>
		<g>
			<g id="play-arrow_2_">
				<polygon fill="#AAAAAA" stroke="#AAAAAA" stroke-miterlimit="10" points="44.863,224.053 44.863,232.447 51.458,228.25 				"/>
			</g>
		</g>
	</g>
	
		<image overflow="visible" width="300" height="300" xlink:href="shetty-devi-image.PNG"  transform="matrix(0.1136 0 0 0.1136 247.4014 211)">
	</image>
	
		<line fill="none" stroke="#AAAAAA" stroke-width="3" stroke-linecap="round" stroke-linejoin="round" stroke-miterlimit="10" x1="82.5" y1="228" x2="237.333" y2="228"/>
	
		<circle opacity="0.7" fill="none" stroke="#333333" stroke-width="4" stroke-linecap="round" stroke-miterlimit="10" cx="77.916" cy="228.25" r="5.249"/>
	<text transform="matrix(1 0 0 1 202.667 242)" fill="#EB2124" font-family="'GothamRounded-Light'" font-size="7">heared</text>
	<text transform="matrix(1 0 0 1 182.667 220)" fill="#CCCCCC" font-family="'GothamRounded-Light'" font-size="7">10:35 am, Today</text>
	<g>
		<path fill="#EB2124" d="M237.718,237.287L237.432,237c-0.12-0.117-0.313-0.117-0.432,0l-3.01,3.01l-1.576-1.575
			c-0.117-0.118-0.312-0.118-0.431,0l-0.286,0.286c-0.119,0.119-0.119,0.312,0,0.432l2.077,2.077c0.06,0.06,0.136,0.09,0.214,0.09
			s0.156-0.03,0.215-0.09l3.511-3.512C237.836,237.598,237.836,237.405,237.718,237.287z"/>
	</g>
</g>
<g>
	<g>
		<g opacity="0.2">
			<polygon points="289.977,149.804 289.977,170.198 306,160.001 			"/>
			<rect x="26" y="133.417" width="267" height="54"/>
		</g>
		<g>
			<g>
				<g>
					<g id="play-arrow_14_">
						<polygon fill="#FFFFFF" points="289.977,148.386 289.977,168.78 306,158.583 						"/>
					</g>
				</g>
				<rect x="26" y="132" fill="#FFFFFF" width="267" height="54"/>
			</g>
		</g>
	</g>
	
		<line fill="none" stroke="#AAAAAA" stroke-width="3" stroke-linecap="round" stroke-linejoin="round" stroke-miterlimit="10" x1="92.333" y1="158" x2="247.333" y2="158"/>
	
		<circle opacity="0.7" fill="none" stroke="#333333" stroke-width="4" stroke-linecap="round" stroke-miterlimit="10" cx="87.916" cy="158.25" r="5.249"/>
	<g>
		<g>
			<path fill="#AAAAAA" d="M270.25,145.993c-6.762,0-12.257,5.496-12.257,12.257c0,6.762,5.495,12.258,12.257,12.258
				s12.258-5.496,12.258-12.258C282.508,151.489,277.012,145.993,270.25,145.993z M270.25,168.838
				c-5.844,0-10.588-4.745-10.588-10.588c0-5.843,4.744-10.587,10.588-10.587s10.588,4.745,10.588,10.587
				C280.838,164.094,276.094,168.838,270.25,168.838z"/>
			<path fill="#AAAAAA" d="M267.453,152.825c-0.458,0-0.834,0.375-0.834,0.834v8.765c0,0.459,0.376,0.834,0.834,0.834
				c0.46,0,0.836-0.375,0.836-0.834v-8.765C268.289,153.2,267.913,152.825,267.453,152.825z"/>
			<path fill="#AAAAAA" d="M273.158,152.825c-0.459,0-0.834,0.375-0.834,0.834v8.765c0,0.459,0.375,0.834,0.834,0.834
				s0.835-0.375,0.835-0.834v-8.765C273.993,153.2,273.617,152.825,273.158,152.825z"/>
		</g>
	</g>
	<text transform="matrix(1 0 0 1 220.667 171.6411)" fill="#EB2124" font-family="'GothamRounded-Light'" font-size="7">Sent</text>
	<text transform="matrix(1 0 0 1 192.667 149.5)" fill="#CCCCCC" font-family="'GothamRounded-Light'" font-size="7">10:32 am, Today</text>
	<g>
		<path fill="#EB2124" d="M247.585,167.622l-0.286-0.287c-0.12-0.118-0.313-0.118-0.432,0l-3.01,3.01l-1.576-1.576
			c-0.117-0.118-0.312-0.118-0.431,0l-0.286,0.287c-0.119,0.118-0.119,0.311,0,0.431l2.077,2.078c0.06,0.06,0.136,0.09,0.214,0.09
			s0.156-0.03,0.215-0.09l3.511-3.512C247.703,167.932,247.703,167.74,247.585,167.622z"/>
	</g>
	
		<image overflow="visible" width="541" height="541" xlink:href="../../../xTENSIBLE_foLDER/Hash Works/JAN_2016/4-01-2016/Sasanka.png"  transform="matrix(0.0619 0 0 0.0619 36 142.9995)">
	</image>
</g>
<g>
	<g>
		<g opacity="0.2">
			<polygon points="288.977,287.804 288.977,308.197 305,298.001 			"/>
			<rect x="25" y="271.417" width="267" height="54"/>
		</g>
		<g>
			<g>
				<g>
					<g id="play-arrow_17_">
						<polygon fill="#FFFFFF" points="288.977,286.387 288.977,306.78 305,296.584 						"/>
					</g>
				</g>
				<rect x="25" y="270" fill="#FFFFFF" width="267" height="54"/>
			</g>
		</g>
	</g>
	
		<line fill="none" stroke="#AAAAAA" stroke-width="3" stroke-linecap="round" stroke-linejoin="round" stroke-miterlimit="10" x1="91.333" y1="296" x2="246.333" y2="296"/>
	
		<circle opacity="0.7" fill="none" stroke="#333333" stroke-width="4" stroke-linecap="round" stroke-miterlimit="10" cx="86.916" cy="296.25" r="5.249"/>
	<g>
		<g>
			<path fill="#AAAAAA" d="M269.25,283.993c-6.762,0-12.257,5.495-12.257,12.257s5.495,12.258,12.257,12.258
				s12.258-5.496,12.258-12.258S276.012,283.993,269.25,283.993z M269.25,306.838c-5.844,0-10.588-4.744-10.588-10.588
				s4.744-10.588,10.588-10.588s10.588,4.745,10.588,10.588C279.838,302.094,275.094,306.838,269.25,306.838z"/>
			<path fill="#AAAAAA" d="M266.453,290.824c-0.458,0-0.834,0.376-0.834,0.835v8.765c0,0.459,0.376,0.835,0.834,0.835
				c0.46,0,0.836-0.376,0.836-0.835v-8.765C267.289,291.2,266.913,290.824,266.453,290.824z"/>
			<path fill="#AAAAAA" d="M272.158,290.824c-0.459,0-0.834,0.376-0.834,0.835v8.765c0,0.459,0.375,0.835,0.834,0.835
				s0.835-0.376,0.835-0.835v-8.765C272.993,291.2,272.617,290.824,272.158,290.824z"/>
		</g>
	</g>
	<text transform="matrix(1 0 0 1 213.667 309.6406)" fill="#EB2124" font-family="'GothamRounded-Light'" font-size="7">Sending...</text>
	<text transform="matrix(1 0 0 1 191.667 287.5)" fill="#CCCCCC" font-family="'GothamRounded-Light'" font-size="7">10:38 am, Today</text>
	
		<image overflow="visible" width="541" height="541" xlink:href="../../../xTENSIBLE_foLDER/Hash Works/JAN_2016/4-01-2016/Sasanka.png"  transform="matrix(0.0619 0 0 0.0619 35 281)">
	</image>
</g>
<g>
	<g>
		<polygon fill="#CCCCCC" points="49.381,446 55.672,452.291 56.172,451.79 50.734,446.354 68.619,446.354 68.619,445.646 
			50.735,445.646 56.172,440.209 55.672,439.709 		"/>
	</g>
</g>
<text transform="matrix(1 0 0 1 84.5 443.5)"><tspan x="0" y="0" fill="#CCCCCC" font-family="'GothamRounded-Light'" font-size="8">Slide Left</tspan><tspan x="0" y="10" fill="#CCCCCC" font-family="'GothamRounded-Light'" font-size="8">to Cancel</tspan></text>
<text transform="matrix(1 0 0 1 194.833 443.5)"><tspan x="0" y="0" fill="#CCCCCC" font-family="'GothamRounded-Light'" font-size="8">Tab on mic to</tspan><tspan x="0" y="10" fill="#CCCCCC" font-family="'GothamRounded-Light'" font-size="8">send message</tspan></text>
<g>
	
		<circle fill="none" stroke="#EB2124" stroke-width="3" stroke-linecap="round" stroke-miterlimit="10" cx="159" cy="446" r="19.742"/>
	<g>
		<path fill="none" stroke="#CCCCCC" stroke-width="3.25" stroke-linecap="round" stroke-miterlimit="10" d="M139.334,445.922
			c-0.044,10.86,8.725,19.701,19.586,19.745c10.861,0.044,19.701-8.725,19.746-19.586"/>
		<path fill="none" stroke="#CCCCCC" stroke-width="3.25" stroke-linecap="round" stroke-miterlimit="10" d="M139.334,445.922
			c0.044-10.862,8.885-19.631,19.746-19.587"/>
	</g>
</g>
</svg>
