<?xml version="1.0" encoding="utf-8"?>
<!-- Generator: Adobe Illustrator 16.0.0, SVG Export Plug-In . SVG Version: 6.00 Build 0)  -->
<!DOCTYPE svg PUBLIC "-//W3C//DTD SVG 1.1//EN" "http://www.w3.org/Graphics/SVG/1.1/DTD/svg11.dtd">
<svg version="1.1" id="Layer_1" xmlns="http://www.w3.org/2000/svg" xmlns:xlink="http://www.w3.org/1999/xlink" x="0px" y="0px"
	 width="1000px" height="500px" viewBox="0 0 1000 500" enable-background="new 0 0 1000 500" xml:space="preserve">
<g>
	
		<linearGradient id="SVGID_1_" gradientUnits="userSpaceOnUse" x1="597.7598" y1="283.0391" x2="475.3668" y2="160.6461" gradientTransform="matrix(-1 0 0 1 1013.7305 0)">
		<stop  offset="0" style="stop-color:#00B9F1"/>
		<stop  offset="1" style="stop-color:#0062C9"/>
	</linearGradient>
	<polygon fill="url(#SVGID_1_)" points="391.695,114.435 391.695,258.763 513.975,328.408 634.804,257.084 	"/>
	<linearGradient id="SVGID_2_" gradientUnits="userSpaceOnUse" x1="391.7974" y1="221.002" x2="634.9063" y2="221.002">
		<stop  offset="0" style="stop-color:#2E3192"/>
		<stop  offset="0.9953" style="stop-color:#E6048C"/>
	</linearGradient>
	<polygon fill="url(#SVGID_2_)" points="634.906,113.596 634.906,257.924 514.305,328.408 391.797,258.763 	"/>
</g>
<g>
	<path fill="#00B9F1" d="M429.658,373.084l-7.955-24.261h3.419l3.78,11.95c1.008,3.275,1.908,6.228,2.592,9.071h0.072
		c0.684-2.808,1.656-5.867,2.771-9.035l4.104-11.986h3.348l-8.675,24.261H429.658z"/>
	<path fill="#00B9F1" d="M465.152,360.701c0,8.315-5.076,12.778-11.267,12.778c-6.443,0-10.907-5.003-10.907-12.346
		c0-7.703,4.751-12.743,11.23-12.743C460.869,348.391,465.152,353.467,465.152,360.701z M446.291,361.062
		c0,5.22,2.808,9.862,7.775,9.862s7.775-4.571,7.775-10.078c0-4.859-2.52-9.899-7.739-9.899S446.291,355.771,446.291,361.062z"/>
	<path fill="#00B9F1" d="M469.187,348.823h3.167v21.633h10.367v2.628h-13.534V348.823z"/>
	<path fill="#00B9F1" d="M498.741,361.709h-9.395v8.747h10.511v2.628h-13.678v-24.261h13.138v2.628h-9.971v7.667h9.395V361.709z"/>
	<path fill="#00B9F1" d="M503.926,349.147c1.584-0.288,3.887-0.505,6.012-0.505c3.347,0,5.543,0.648,7.019,1.98
		c1.188,1.08,1.907,2.735,1.907,4.644c0,3.167-2.016,5.291-4.535,6.155v0.107c1.836,0.648,2.952,2.376,3.527,4.896
		c0.792,3.384,1.368,5.724,1.872,6.659h-3.239c-0.396-0.72-0.937-2.771-1.584-5.795c-0.72-3.348-2.052-4.607-4.896-4.716h-2.952
		v10.511h-3.131V349.147z M507.057,360.197h3.204c3.348,0,5.472-1.835,5.472-4.607c0-3.131-2.268-4.499-5.58-4.499
		c-1.512,0-2.555,0.108-3.096,0.252V360.197z"/>
	<path fill="#00B9F1" d="M547.843,372.328c-1.115,0.576-3.455,1.151-6.407,1.151c-6.839,0-11.95-4.319-11.95-12.31
		c0-7.632,5.147-12.743,12.67-12.743c2.988,0,4.932,0.648,5.76,1.08l-0.792,2.556c-1.151-0.576-2.844-1.008-4.859-1.008
		c-5.688,0-9.467,3.636-9.467,10.007c0,5.976,3.42,9.755,9.287,9.755c1.943,0,3.888-0.396,5.147-1.008L547.843,372.328z"/>
	<path fill="#00B9F1" d="M555.872,365.453l-2.52,7.631h-3.24l8.279-24.261h3.744l8.278,24.261h-3.348l-2.592-7.631H555.872z
		 M563.863,363.005l-2.412-6.982c-0.54-1.584-0.899-3.024-1.26-4.428h-0.072c-0.359,1.403-0.72,2.916-1.224,4.392l-2.376,7.019
		H563.863z"/>
	<path fill="#00B9F1" d="M573.98,349.147c1.584-0.288,3.888-0.505,6.012-0.505c3.348,0,5.543,0.648,7.019,1.98
		c1.188,1.08,1.908,2.735,1.908,4.644c0,3.167-2.016,5.291-4.535,6.155v0.107c1.835,0.648,2.951,2.376,3.527,4.896
		c0.792,3.384,1.368,5.724,1.872,6.659h-3.24c-0.396-0.72-0.936-2.771-1.584-5.795c-0.72-3.348-2.052-4.607-4.895-4.716h-2.952
		v10.511h-3.132V349.147z M577.112,360.197h3.204c3.347,0,5.471-1.835,5.471-4.607c0-3.131-2.268-4.499-5.579-4.499
		c-1.512,0-2.556,0.108-3.096,0.252V360.197z"/>
	<path fill="#00B9F1" d="M592.952,369.269c1.403,0.899,3.419,1.584,5.579,1.584c3.204,0,5.075-1.692,5.075-4.14
		c0-2.231-1.296-3.563-4.571-4.787c-3.959-1.44-6.407-3.528-6.407-6.911c0-3.78,3.132-6.588,7.847-6.588
		c2.448,0,4.284,0.576,5.328,1.188l-0.864,2.556c-0.756-0.468-2.376-1.152-4.571-1.152c-3.312,0-4.571,1.979-4.571,3.636
		c0,2.268,1.476,3.384,4.823,4.68c4.104,1.584,6.155,3.563,6.155,7.127c0,3.743-2.735,7.019-8.459,7.019
		c-2.34,0-4.896-0.72-6.191-1.583L592.952,369.269z"/>
</g>
</svg>
