<?xml version="1.0" encoding="utf-8"?>
<!-- Generator: Adobe Illustrator 16.0.0, SVG Export Plug-In . SVG Version: 6.00 Build 0)  -->
<!DOCTYPE svg PUBLIC "-//W3C//DTD SVG 1.1//EN" "http://www.w3.org/Graphics/SVG/1.1/DTD/svg11.dtd">
<svg version="1.1" id="Layer_1" xmlns="http://www.w3.org/2000/svg" xmlns:xlink="http://www.w3.org/1999/xlink" x="0px" y="0px"
	 width="1000px" height="265px" viewBox="0 0 1000 265" enable-background="new 0 0 1000 265" xml:space="preserve">
<g>
	<g>
		<g>
			<g>
				<path fill="#FBBD16" d="M960.357,116.004c-15.134,0-19.34,15.439-19.34,15.439h5.298c0,0,0.558-7.235,14.599-7.235
					c12.466,0,12.963,7.235,12.963,7.235h5.82C979.697,131.16,974.354,116.004,960.357,116.004z"/>
				<g>
					<path fill="#030303" d="M981.676,143.519c0.18-0.843,0.346-1.657,0.346-1.952c0-3.005-0.635-5.863-1.768-8.452h-6.377
						c0.773,1.499,1.212,3.216,1.432,5.083c-4.352-2.671-9.471-4.216-14.951-4.216c-5.519,0-10.671,1.568-15.043,4.276
						c0.12-1.867,0.393-3.61,1.001-5.142h-5.855c-1.132,2.589-1.764,5.447-1.764,8.452c0,0.343-0.016,1.396-0.023,2.375
						c-4.31,5.008-6.922,11.521-6.922,18.647c0,15.798,12.809,24.868,28.606,24.868c15.801,0,28.607-9.07,28.607-24.868
						C988.965,155.262,986.206,148.581,981.676,143.519z"/>
					<path d="M986.551,151.065c-0.55,8.09-6.574,17.713-16.418,24.833c-8.224,5.946-17.276,8.817-24.612,8.426
						c4.326,2.051,9.405,3.123,14.837,3.123c15.801,0,28.607-9.07,28.607-24.869C988.965,158.482,988.102,154.59,986.551,151.065z"
						/>
				</g>
				<path fill="#F5EC49" d="M951,119.709c-3.747,1.833-6.252,7.24-6.252,7.24c1.947-2.621,3.285-4.351,6.502-6.324
					c3.218-1.974,6.118-2.531,9.698-3.286C960.948,117.34,954.747,117.879,951,119.709z"/>
			</g>
		</g>
		
			<line fill="none" stroke="#676767" stroke-width="2.1859" stroke-miterlimit="10" x1="960.974" y1="125.979" x2="962.395" y2="54.121"/>
		<g>
			
				<line fill="none" stroke="#676767" stroke-width="2.1859" stroke-miterlimit="10" x1="908.501" y1="106.281" x2="824.239" y2="147.697"/>
			
				<line fill="none" stroke="#676767" stroke-width="2.1859" stroke-miterlimit="10" x1="869.536" y1="36.743" x2="796.837" y2="61.089"/>
		</g>
		<g>
			
				<line fill="none" stroke="#676767" stroke-width="2.1859" stroke-miterlimit="10" x1="794.733" y1="181.053" x2="654.533" y2="148.11"/>
			
				<line fill="none" stroke="#676767" stroke-width="2.1859" stroke-miterlimit="10" x1="781.549" y1="74.019" x2="655.486" y2="37.6"/>
		</g>
		<g>
			
				<line fill="none" stroke="#676767" stroke-width="2.1859" stroke-miterlimit="10" x1="576.56" y1="146.373" x2="427.089" y2="108.826"/>
			
				<line fill="none" stroke="#676767" stroke-width="2.1859" stroke-miterlimit="10" x1="594.479" y1="28.102" x2="446.121" y2="31.828"/>
		</g>
		<g>
			
				<line fill="none" stroke="#676767" stroke-width="2.1859" stroke-miterlimit="10" x1="293.219" y1="73.926" x2="327.912" y2="78.126"/>
			
				<line fill="none" stroke="#676767" stroke-width="2.1859" stroke-miterlimit="10" x1="301.043" y1="36.893" x2="332.667" y2="45.631"/>
		</g>
		<g>
			
				<line fill="none" stroke="#676767" stroke-width="3" stroke-miterlimit="10" x1="76.878" y1="233.614" x2="166.834" y2="229.324"/>
			
				<line fill="none" stroke="#676767" stroke-width="3" stroke-miterlimit="10" x1="75.244" y1="168.009" x2="158.65" y2="152.251"/>
		</g>
		<g>
			
				<line fill="none" stroke="#676767" stroke-width="3" stroke-miterlimit="10" x1="158.551" y1="116.192" x2="97.754" y2="235.97"/>
			<line fill="none" stroke="#676767" stroke-width="3" stroke-miterlimit="10" x1="70.478" y1="70.382" x2="23.521" y2="192.952"/>
		</g>
		<g>
			
				<line fill="none" stroke="#676767" stroke-width="2.1859" stroke-miterlimit="10" x1="158.804" y1="117.925" x2="260.623" y2="78.703"/>
			
				<line fill="none" stroke="#676767" stroke-width="2.1859" stroke-miterlimit="10" x1="153.273" y1="24.319" x2="253.91" y2="28.374"/>
		</g>
		<circle fill="#FFCD4D" cx="789.053" cy="116.309" r="55.783"/>
		<g>
			<path fill="none" d="M409.676,28.135l0.121-1.676c-4.01-0.112-8.109,0.43-12.151,1.703c-4.413,1.39-8.377,3.532-11.805,6.236
				l1.102,1.275C393.391,30.618,401.45,27.927,409.676,28.135z"/>
			<path fill="none" d="M376.722,48.573c1.932-4.16,4.578-7.758,7.713-10.735l-1.1-1.274c-6.277,5.945-10.308,13.95-11.328,22.553
				l1.678,0.122C374.119,55.638,375.11,52.042,376.722,48.573z"/>
			<path fill="none" d="M373.444,62.544l-1.676-0.123c-0.113,4.011,0.428,8.108,1.703,12.151c1.39,4.412,3.531,8.378,6.235,11.805
				l1.275-1.102C375.926,78.829,373.236,70.77,373.444,62.544z"/>
			<path fill="none" d="M444.083,64.367l1.677,0.122c0.112-4.011-0.43-8.108-1.703-12.151c-1.39-4.411-3.531-8.377-6.237-11.805
				l-1.275,1.102C441.601,48.082,444.292,56.141,444.083,64.367z"/>
			<path fill="none" d="M423.646,31.414c4.16,1.932,7.759,4.578,10.736,7.714l1.274-1.101c-5.945-6.277-13.95-10.307-22.554-11.328
				l-0.121,1.679C416.582,28.811,420.178,29.803,423.646,31.414z"/>
			<path fill="none" d="M407.852,98.776l-0.122,1.676c4.011,0.112,8.109-0.429,12.151-1.703c4.412-1.39,8.377-3.531,11.805-6.236
				l-1.102-1.275C424.137,96.292,416.079,98.984,407.852,98.776z"/>
			<path fill="none" d="M443.841,67.672c-0.433,3.602-1.424,7.197-3.036,10.666c-1.932,4.16-4.578,7.759-7.713,10.735l1.1,1.274
				c6.276-5.944,10.307-13.95,11.328-22.552L443.841,67.672z"/>
			<path fill="none" d="M393.881,95.497c-4.16-1.932-7.758-4.577-10.735-7.714l-1.273,1.101c5.944,6.277,13.95,10.308,22.552,11.329
				l0.123-1.679C400.946,98.1,397.351,97.108,393.881,95.497z"/>
			<path fill="none" stroke="#6AABB7" stroke-width="3" stroke-miterlimit="10" d="M451.858,84.216l2.976,1.831
				c1.26,0.775,2.918,0.257,3.507-1.1c0.288-0.666,0.564-1.336,0.826-2.013c0.521-1.346-0.238-2.848-1.631-3.228l-1.159-0.316
				c-1.84-0.502-3.138-2.233-2.952-4.131c0.24-2.45,2.613-4.005,4.885-3.386l1.033,0.281c1.427,0.39,2.873-0.574,3.055-2.042
				c0.089-0.72,0.165-1.442,0.226-2.168c0.121-1.438-1.031-2.666-2.474-2.637l-1.229,0.024c-1.882,0.037-3.59-1.232-3.969-3.077
				c-0.5-2.44,1.351-4.634,3.724-4.681l1.065-0.021c1.479-0.029,2.595-1.363,2.355-2.823c-0.117-0.713-0.249-1.427-0.396-2.141
				c-0.292-1.413-1.74-2.266-3.115-1.832l-1.257,0.396c-2.036,0.641-4.226-0.5-4.867-2.535c-0.642-2.036,0.5-4.226,2.535-4.867
				l1.016-0.32c1.411-0.444,2.104-2.036,1.466-3.37c-0.313-0.657-0.64-1.306-0.979-1.945c-0.676-1.276-2.309-1.686-3.507-0.882
				l-1.005,0.674c-1.583,1.062-3.743,0.909-5.055-0.475c-1.694-1.785-1.314-4.599,0.64-5.91l0.892-0.598
				c1.229-0.825,1.446-2.551,0.454-3.649c-0.487-0.541-0.985-1.07-1.493-1.589c-1.008-1.03-2.688-0.962-3.61,0.146l-0.776,0.932
				c-1.221,1.465-3.335,1.927-4.985,0.969c-2.128-1.235-2.556-4.042-1.05-5.851l0.679-0.814c0.948-1.137,0.669-2.854-0.592-3.629
				c-0.617-0.38-1.243-0.748-1.875-1.103c-1.258-0.705-2.851-0.167-3.424,1.156l-0.478,1.102c-0.758,1.75-2.657,2.788-4.509,2.334
				c-2.391-0.586-3.593-3.158-2.657-5.318l0.423-0.977c0.588-1.357-0.16-2.924-1.586-3.314c-0.699-0.192-1.403-0.37-2.111-0.533
				c-1.406-0.325-2.786,0.641-2.963,2.073l-0.162,1.309c-0.263,2.118-2.21,3.637-4.329,3.375c-1.904,0.599-3.79-0.972-3.544-2.952
				l0.302-2.44c0.182-1.468-0.979-2.762-2.459-2.733c-0.724,0.014-1.451,0.043-2.178,0.087c-1.44,0.087-2.49,1.401-2.257,2.824
				l0.214,1.305c0.381,2.323-1.412,4.524-3.874,4.509c-1.907-0.011-3.495-1.482-3.803-3.364l-0.155-0.939
				c-0.238-1.453-1.706-2.375-3.11-1.933c-0.009,0.002-0.019,0.006-0.028,0.009c-0.696,0.219-1.385,0.452-2.067,0.698
				c-1.351,0.487-1.978,2.044-1.355,3.338l0.521,1.084c0.825,1.72,0.367,3.834-1.189,4.937c-2.008,1.423-4.738,0.647-5.758-1.475
				l-0.464-0.967c-0.641-1.333-2.315-1.793-3.545-0.971c-0.606,0.405-1.202,0.822-1.787,1.249c-1.167,0.851-1.34,2.524-0.373,3.596
				l0.814,0.904c1.277,1.417,1.433,3.575,0.25,5.072c-1.526,1.931-4.365,1.956-5.94,0.207l-0.714-0.792
				c-0.991-1.1-2.732-1.068-3.678,0.071c-0.464,0.558-0.917,1.126-1.357,1.702c-0.875,1.145-0.57,2.797,0.658,3.552l1.122,0.69
				c1.817,1.119,2.389,3.521,1.271,5.338c0.616,1.952-1.523,3.619-3.267,2.547l-2.974-1.831c-1.26-0.775-2.918-0.257-3.506,1.1
				c-0.29,0.666-0.564,1.336-0.827,2.013c-0.521,1.346,0.238,2.848,1.63,3.228l1.267,0.345c2.06,0.561,3.285,2.705,2.724,4.764
				c-0.561,2.06-2.706,3.285-4.765,2.724l-1.033-0.281c-1.428-0.389-2.873,0.574-3.056,2.042c-0.09,0.72-0.165,1.443-0.225,2.168
				c-0.12,1.438,1.031,2.666,2.473,2.637l1.324-0.025c2.134-0.042,3.915,1.669,3.956,3.803l0,0c0.042,2.134-1.67,3.915-3.804,3.956
				l-1.065,0.021c-1.479,0.029-2.596,1.362-2.355,2.823c0.117,0.714,0.249,1.428,0.396,2.141c0.291,1.413,1.74,2.266,3.116,1.832
				l1.256-0.396c2.036-0.641,4.226,0.5,4.867,2.536l0,0c0.641,2.036-0.5,4.226-2.535,4.867l-1.015,0.32
				c-1.411,0.444-2.105,2.035-1.467,3.369c0.315,0.657,0.641,1.306,0.98,1.945c0.674,1.276,2.309,1.686,3.507,0.882l1.004-0.673
				c1.584-1.062,3.743-0.909,5.055,0.474c1.695,1.786,1.315,4.599-0.64,5.91l-0.892,0.598c-1.229,0.825-1.446,2.55-0.455,3.649
				c0.488,0.54,0.985,1.07,1.494,1.588c1.008,1.03,2.688,0.962,3.61-0.146l0.847-1.018c1.366-1.64,3.825-1.864,5.465-0.499l0,0
				c1.64,1.366,1.865,3.825,0.499,5.466l-0.678,0.814c-0.948,1.136-0.669,2.854,0.591,3.628c0.618,0.381,1.244,0.747,1.876,1.103
				c1.258,0.705,2.851,0.167,3.424-1.156l0.522-1.203c0.848-1.959,3.145-2.867,5.103-2.018c1.959,0.849,2.867,3.145,2.018,5.103
				l-0.422,0.977c-0.588,1.357,0.159,2.924,1.586,3.315c0.7,0.191,1.403,0.369,2.112,0.532c1.407,0.325,2.785-0.641,2.963-2.072
				l0.162-1.31c0.263-2.118,2.21-3.636,4.329-3.374c2.118,0.262,3.635,2.21,3.374,4.329l-0.132,1.063
				c-0.182,1.468,0.979,2.762,2.458,2.733c0.725-0.015,1.452-0.043,2.179-0.088c1.439-0.087,2.489-1.4,2.256-2.823l-0.213-1.305
				c-0.345-2.107,1.096-4.113,3.203-4.458c2.105-0.345,4.111,1.096,4.457,3.202l0.172,1.05c0.237,1.453,1.707,2.375,3.11,1.934
				c0.009-0.003,0.019-0.007,0.027-0.009c0.697-0.219,1.386-0.453,2.068-0.699c1.351-0.488,1.977-2.044,1.355-3.339l-0.57-1.184
				c-0.924-1.924-0.106-4.254,1.818-5.179c1.923-0.925,4.253-0.107,5.178,1.817l0.464,0.967c0.641,1.333,2.316,1.793,3.545,0.971
				c0.605-0.405,1.202-0.821,1.788-1.249c1.165-0.851,1.338-2.524,0.372-3.596l-0.889-0.987c-1.429-1.585-1.301-4.051,0.285-5.48
				c1.585-1.429,4.052-1.301,5.479,0.285l0.715,0.792c0.991,1.1,2.731,1.068,3.678-0.07c0.463-0.558,0.917-1.126,1.357-1.703
				c0.875-1.145,0.57-2.797-0.658-3.552l-1.122-0.69c-1.817-1.118-2.39-3.52-1.271-5.337
				C447.978,84.811,450.116,83.144,451.858,84.216z M437.821,40.533c2.706,3.427,4.847,7.394,6.237,11.805
				c1.273,4.043,1.815,8.141,1.703,12.151l-1.677-0.122c0.208-8.226-2.482-16.285-7.538-22.732L437.821,40.533z M435.655,38.027
				l-1.274,1.101c-2.977-3.137-6.576-5.782-10.736-7.714c-3.468-1.611-7.064-2.603-10.665-3.036l0.121-1.679
				C421.706,27.72,429.71,31.75,435.655,38.027z M397.646,28.162c4.042-1.273,8.141-1.815,12.151-1.703l-0.121,1.676
				c-8.227-0.208-16.286,2.483-22.733,7.539l-1.102-1.275C389.27,31.693,393.234,29.551,397.646,28.162z M383.335,36.564l1.1,1.274
				c-3.136,2.977-5.781,6.575-7.713,10.735c-1.611,3.469-2.603,7.064-3.037,10.666l-1.678-0.122
				C373.027,50.514,377.058,42.509,383.335,36.564z M379.706,86.378c-2.705-3.427-4.845-7.394-6.235-11.805
				c-1.274-4.043-1.815-8.14-1.703-12.151l1.676,0.123c-0.208,8.226,2.482,16.285,7.537,22.732L379.706,86.378z M381.873,88.884
				l1.273-1.101c2.977,3.137,6.576,5.782,10.735,7.714c3.469,1.611,7.064,2.603,10.667,3.036l-0.123,1.679
				C395.823,99.191,387.817,95.161,381.873,88.884z M396.478,89.907c-14.609-6.785-20.951-24.128-14.166-38.737
				s24.128-20.951,38.738-14.166c14.608,6.785,20.951,24.128,14.166,38.737C428.43,90.35,411.087,96.692,396.478,89.907z
				 M419.881,98.749c-4.042,1.274-8.14,1.815-12.151,1.703l0.122-1.676c8.227,0.208,16.286-2.483,22.732-7.539l1.102,1.275
				C428.258,95.218,424.292,97.359,419.881,98.749z M434.192,90.347l-1.1-1.274c3.136-2.977,5.782-6.575,7.713-10.735
				c1.611-3.469,2.603-7.064,3.036-10.666l1.679,0.123C444.499,76.397,440.468,84.403,434.192,90.347z"/>
		</g>
		<circle fill="#FFCD4D" cx="408.77" cy="62.982" r="40.021"/>
		<circle fill="#FFCD4D" cx="122.512" cy="71.463" r="55.783"/>
		<circle fill="#FFCD4D" cx="65.093" cy="205.477" r="34.89"/>
		
			<circle fill="none" stroke="#676767" stroke-width="1.0949" stroke-miterlimit="10" stroke-dasharray="3,5" cx="64.932" cy="204.865" r="30.568"/>
		<path fill="#E5503A" d="M44.274,161.843l-4.234-3.104l0.219,5.246c0.081,1.93-1.923,3.248-3.664,2.412l-4.732-2.273l1.18,5.116
			c0.434,1.881-1.294,3.546-3.158,3.045l-5.069-1.365l2.099,4.812c0.772,1.77-0.62,3.724-2.544,3.573l-5.234-0.411l2.948,4.344
			c1.084,1.6,0.075,3.775-1.844,3.98l-5.221,0.559l3.696,3.728c1.359,1.373,0.768,3.697-1.082,4.251l-5.029,1.509l4.318,2.986
			c1.588,1.097,1.434,3.492-0.282,4.377l-4.667,2.406l4.793,2.142c1.763,0.787,2.051,3.17,0.527,4.354l-4.145,3.224l5.105,1.224
			c1.877,0.451,2.598,2.739,1.318,4.185l-3.481,3.929l5.243,0.267c1.928,0.097,3.058,2.214,2.064,3.87l-2.701,4.502l5.203-0.703
			c1.913-0.258,3.412,1.615,2.74,3.426l-1.827,4.921l4.985-1.646c1.833-0.605,3.65,0.961,3.323,2.863l-0.892,5.175l4.598-2.535
			c1.691-0.933,3.765,0.272,3.792,2.204l0.075,5.249l4.054-3.336c1.49-1.227,3.751-0.423,4.132,1.469l1.038,5.147l3.372-4.024
			c1.24-1.479,3.61-1.105,4.333,0.686l1.966,4.867l2.575-4.575c0.947-1.682,3.345-1.749,4.384-0.122l2.827,4.423l1.69-4.97
			c0.622-1.826,2.967-2.335,4.288-0.926l3.591,3.829l0.748-5.196c0.276-1.911,2.488-2.84,4.045-1.698l4.234,3.104l-0.22-5.245
			c-0.081-1.93,1.923-3.249,3.664-2.412l4.732,2.273l-1.18-5.116c-0.434-1.882,1.293-3.547,3.158-3.044l5.069,1.365l-2.1-4.813
			c-0.772-1.769,0.62-3.723,2.545-3.572l5.234,0.411l-2.948-4.344c-1.084-1.599-0.075-3.775,1.845-3.98l5.22-0.559l-3.696-3.729
			c-1.359-1.371-0.768-3.696,1.083-4.251l5.028-1.508l-4.318-2.985c-1.588-1.098-1.434-3.493,0.282-4.378l4.667-2.406l-4.793-2.143
			c-1.763-0.787-2.051-3.168-0.527-4.354l4.145-3.224l-5.105-1.225c-1.877-0.449-2.599-2.738-1.318-4.184l3.482-3.929l-5.244-0.267
			c-1.928-0.098-3.058-2.214-2.064-3.869l2.701-4.503l-5.203,0.703c-1.913,0.258-3.412-1.615-2.74-3.426l1.827-4.922l-4.985,1.647
			c-1.833,0.604-3.651-0.962-3.323-2.864l0.892-5.175l-4.598,2.535c-1.691,0.933-3.765-0.272-3.793-2.204l-0.074-5.249l-4.054,3.336
			c-1.491,1.228-3.751,0.424-4.133-1.47l-1.038-5.146l-3.372,4.023c-1.239,1.48-3.609,1.105-4.332-0.686l-1.965-4.868l-2.575,4.575
			c-0.947,1.683-3.345,1.75-4.384,0.123l-2.827-4.424l-1.69,4.97c-0.622,1.828-2.967,2.335-4.288,0.928l-3.592-3.831l-0.748,5.197
			C48.043,162.057,45.831,162.985,44.274,161.843z M96.136,195.503c5.549,17.192-3.891,35.629-21.084,41.177
			c-17.192,5.548-35.628-3.892-41.176-21.084s3.891-35.628,21.084-41.177S90.587,178.311,96.136,195.503z"/>
		<circle fill="#FFCD4D" cx="273.115" cy="51.318" r="20.402"/>
		<g>
			<g>
				<g>
					<circle fill="none" stroke="#676767" stroke-width="0.6" stroke-miterlimit="10" cx="408.594" cy="63.383" r="30.208"/>
					<circle fill="none" stroke="#676767" stroke-width="0.6" stroke-miterlimit="10" cx="408.594" cy="63.384" r="39.319"/>
					
						<line fill="none" stroke="#676767" stroke-width="0.6" stroke-miterlimit="10" x1="443.511" y1="81.46" x2="435.422" y2="77.271"/>
					
						<line fill="none" stroke="#676767" stroke-width="0.6" stroke-miterlimit="10" x1="446.999" y1="71.806" x2="438.1" y2="69.854"/>
					
						<line fill="none" stroke="#676767" stroke-width="0.6" stroke-miterlimit="10" x1="447.871" y1="61.58" x2="438.771" y2="61.997"/>
					
						<line fill="none" stroke="#676767" stroke-width="0.6" stroke-miterlimit="10" x1="446.066" y1="51.475" x2="437.384" y2="54.234"/>
					
						<line fill="none" stroke="#676767" stroke-width="0.6" stroke-miterlimit="10" x1="441.708" y1="42.182" x2="434.035" y2="47.094"/>
					
						<line fill="none" stroke="#676767" stroke-width="0.6" stroke-miterlimit="10" x1="435.091" y1="34.334" x2="428.952" y2="41.065"/>
					
						<line fill="none" stroke="#676767" stroke-width="0.6" stroke-miterlimit="10" x1="426.671" y1="28.466" x2="422.481" y2="36.556"/>
					
						<line fill="none" stroke="#676767" stroke-width="0.6" stroke-miterlimit="10" x1="417.017" y1="24.977" x2="415.064" y2="33.875"/>
					
						<line fill="none" stroke="#676767" stroke-width="0.6" stroke-miterlimit="10" x1="406.79" y1="24.106" x2="407.208" y2="33.206"/>
					
						<line fill="none" stroke="#676767" stroke-width="0.6" stroke-miterlimit="10" x1="396.685" y1="25.91" x2="399.444" y2="34.593"/>
					
						<line fill="none" stroke="#676767" stroke-width="0.6" stroke-miterlimit="10" x1="387.394" y1="30.269" x2="392.305" y2="37.942"/>
					
						<line fill="none" stroke="#676767" stroke-width="0.6" stroke-miterlimit="10" x1="379.546" y1="36.885" x2="386.274" y2="43.024"/>
					
						<line fill="none" stroke="#676767" stroke-width="0.6" stroke-miterlimit="10" x1="373.676" y1="45.307" x2="381.766" y2="49.495"/>
					
						<line fill="none" stroke="#676767" stroke-width="0.6" stroke-miterlimit="10" x1="370.188" y1="54.959" x2="379.086" y2="56.911"/>
					
						<line fill="none" stroke="#676767" stroke-width="0.6" stroke-miterlimit="10" x1="369.317" y1="65.188" x2="378.417" y2="64.769"/>
					
						<line fill="none" stroke="#676767" stroke-width="0.6" stroke-miterlimit="10" x1="371.121" y1="75.292" x2="379.803" y2="72.532"/>
					
						<line fill="none" stroke="#676767" stroke-width="0.6" stroke-miterlimit="10" x1="375.48" y1="84.585" x2="383.153" y2="79.673"/>
					
						<line fill="none" stroke="#676767" stroke-width="0.6" stroke-miterlimit="10" x1="382.096" y1="92.431" x2="388.236" y2="85.702"/>
					
						<line fill="none" stroke="#676767" stroke-width="0.6" stroke-miterlimit="10" x1="390.517" y1="98.3" x2="394.706" y2="90.211"/>
					
						<line fill="none" stroke="#676767" stroke-width="0.6" stroke-miterlimit="10" x1="400.169" y1="101.79" x2="402.121" y2="92.891"/>
					
						<line fill="none" stroke="#676767" stroke-width="0.6" stroke-miterlimit="10" x1="410.398" y1="102.661" x2="409.98" y2="93.56"/>
					
						<line fill="none" stroke="#676767" stroke-width="0.6" stroke-miterlimit="10" x1="420.501" y1="100.856" x2="417.744" y2="92.174"/>
					
						<line fill="none" stroke="#676767" stroke-width="0.6" stroke-miterlimit="10" x1="429.795" y1="96.497" x2="424.882" y2="88.825"/>
					
						<line fill="none" stroke="#676767" stroke-width="0.6" stroke-miterlimit="10" x1="437.643" y1="89.882" x2="430.913" y2="83.742"/>
				</g>
			</g>
		</g>
		
			<circle fill="none" stroke="#676767" stroke-width="1.0949" stroke-miterlimit="10" stroke-dasharray="3,5" cx="273.323" cy="51.101" r="16.406"/>
		<g>
			<circle fill="#FFCD4D" cx="346.445" cy="63.898" r="33.878"/>
			<path fill="#6AABB7" d="M366.077,20.488l-3.324,5.671c-0.505-0.211-1.012-0.42-1.531-0.613c-0.518-0.192-1.038-0.365-1.559-0.534
				l1.184-6.464c0.098-0.534-0.255-1.045-0.789-1.144l-8.624-1.579c-0.534-0.098-1.045,0.256-1.143,0.789l-1.182,6.453
				c-1.103-0.053-2.202-0.058-3.298-0.02l-1.097-6.468c-0.09-0.536-0.598-0.895-1.133-0.805l-8.643,1.466
				c-0.534,0.09-0.896,0.598-0.805,1.132l1.098,6.48c-1.048,0.328-2.088,0.689-3.106,1.1l-3.245-5.707
				c-0.268-0.472-0.869-0.636-1.339-0.369l-7.621,4.333c-0.472,0.269-0.637,0.869-0.37,1.34l3.249,5.711
				c-0.874,0.663-1.722,1.362-2.542,2.098l-5.002-4.253c-0.415-0.351-1.033-0.3-1.386,0.112l-5.678,6.679
				c-0.353,0.413-0.302,1.034,0.111,1.386l5.001,4.252c-0.589,0.919-1.142,1.87-1.661,2.846l-6.159-2.288
				c-0.064-0.023-0.128-0.04-0.192-0.05c-0.452-0.07-0.907,0.184-1.073,0.629l-3.051,8.219c-0.143,0.382-0.032,0.795,0.248,1.058
				c0.093,0.088,0.205,0.159,0.332,0.206l6.161,2.288c-0.246,1.079-0.446,2.16-0.601,3.24l-6.563-0.042
				c-0.068,0-0.135,0.006-0.199,0.019c-0.448,0.088-0.789,0.481-0.792,0.957l-0.058,8.766c-0.003,0.407,0.243,0.758,0.595,0.91
				c0.117,0.051,0.246,0.079,0.382,0.08l6.566,0.042c0.141,1.094,0.327,2.177,0.556,3.25l-6.19,2.207
				c-0.511,0.182-0.778,0.744-0.595,1.255l2.944,8.257c0.182,0.512,0.744,0.779,1.256,0.596l6.185-2.206
				c0.504,0.977,1.054,1.929,1.637,2.862l-5.065,4.192c-0.417,0.346-0.476,0.965-0.129,1.383l5.591,6.752
				c0.346,0.418,0.966,0.477,1.384,0.13l5.055-4.186c0.804,0.745,1.641,1.459,2.511,2.14l-3.317,5.66
				c-0.272,0.468-0.118,1.069,0.351,1.344l7.564,4.433c0.467,0.274,1.069,0.118,1.343-0.352l3.325-5.671
				c0.504,0.211,1.012,0.42,1.529,0.613c0.518,0.192,1.039,0.364,1.56,0.534l-1.184,6.466c-0.098,0.533,0.255,1.045,0.79,1.144
				l8.623,1.579c0.534,0.098,1.047-0.256,1.143-0.79l1.182-6.453c1.104,0.053,2.204,0.058,3.298,0.019l1.099,6.471
				c0.09,0.534,0.596,0.896,1.132,0.805l8.643-1.467c0.536-0.09,0.897-0.597,0.805-1.133l-1.1-6.481
				c1.051-0.328,2.089-0.689,3.107-1.101l3.247,5.709c0.269,0.472,0.867,0.637,1.34,0.368l7.621-4.333
				c0.472-0.269,0.637-0.869,0.369-1.341l-3.249-5.713c0.874-0.664,1.721-1.363,2.542-2.099l5.003,4.254
				c0.414,0.352,1.033,0.303,1.385-0.111l5.679-6.679c0.351-0.415,0.304-1.035-0.112-1.386l-5.003-4.253
				c0.589-0.919,1.143-1.869,1.661-2.847l6.162,2.288c0.064,0.024,0.129,0.04,0.194,0.05c0.451,0.07,0.905-0.183,1.071-0.628
				l3.051-8.219c0.174-0.466-0.032-0.979-0.46-1.205c-0.039-0.021-0.077-0.043-0.119-0.059l-6.161-2.288
				c0.244-1.079,0.446-2.159,0.6-3.241l6.566,0.043c0.135,0,0.264-0.026,0.383-0.075c0.354-0.146,0.604-0.494,0.608-0.902
				l0.057-8.766c0.003-0.476-0.332-0.875-0.779-0.968c-0.064-0.014-0.131-0.021-0.198-0.021l-6.567-0.042
				c-0.14-1.093-0.327-2.176-0.556-3.249l6.189-2.208c0.511-0.182,0.779-0.744,0.595-1.255l-2.944-8.258
				c-0.182-0.51-0.745-0.777-1.255-0.595l-6.184,2.206c-0.504-0.976-1.054-1.928-1.635-2.861l5.063-4.192
				c0.417-0.347,0.476-0.965,0.129-1.384l-5.59-6.752c-0.346-0.418-0.966-0.476-1.384-0.131l-5.055,4.185
				c-0.804-0.744-1.64-1.458-2.511-2.139l3.317-5.658c0.274-0.469,0.116-1.07-0.351-1.345l-7.563-4.433
				C366.954,19.864,366.351,20.021,366.077,20.488z M377.937,74.728c-6.305,16.976-25.178,25.627-42.154,19.323
				c-16.976-6.305-25.627-25.178-19.322-42.154c6.304-16.976,25.177-25.627,42.153-19.323
				C375.591,38.878,384.242,57.751,377.937,74.728z"/>
			<circle fill="#6AABB7" cx="360.916" cy="79.456" r="4.259"/>
			<circle fill="#6AABB7" cx="351.428" cy="85.718" r="2.621"/>
			<circle fill="#6AABB7" cx="341.329" cy="84.762" r="2.621"/>
		</g>
		<g>
			<path fill="#E5503A" d="M85.643,127.228l3.975-4.608c0.862,0.573,1.744,1.129,2.643,1.666c1.008,0.6,2.027,1.164,3.054,1.699
				l-2.168,5.715c-0.193,0.506,0.062,1.073,0.568,1.266l11.724,4.449c0.508,0.193,1.077-0.063,1.269-0.57l2.178-5.74
				c2.15,0.525,4.315,0.929,6.487,1.213l-0.084,6.161c-0.009,0.542,0.425,0.987,0.967,0.995l12.539,0.171
				c0.543,0.008,0.99-0.427,0.997-0.97l0.085-6.209c2.182-0.242,4.347-0.6,6.486-1.073l2.051,5.883
				c0.178,0.513,0.738,0.783,1.25,0.604l11.842-4.127c0.513-0.179,0.784-0.739,0.605-1.252l-2.059-5.903
				c1.96-0.963,3.872-2.033,5.727-3.208l3.955,4.847c0.343,0.421,0.961,0.484,1.381,0.141l9.716-7.929
				c0.42-0.343,0.484-0.963,0.14-1.383l-3.963-4.858c1.5-1.565,2.925-3.225,4.271-4.974l5.397,3.216
				c0.466,0.277,1.069,0.125,1.348-0.342l6.417-10.774c0.278-0.466,0.126-1.069-0.34-1.347l-5.398-3.215
				c0.896-2.015,1.678-4.058,2.34-6.123l6.155,1.171c0.533,0.102,1.048-0.248,1.149-0.781l2.346-12.32
				c0.102-0.532-0.25-1.047-0.782-1.149l-6.145-1.169c0.151-2.19,0.181-4.381,0.093-6.562l6.169-1.001
				c0.536-0.087,0.9-0.592,0.813-1.128l-2.01-12.378c-0.086-0.536-0.591-0.899-1.126-0.812l-6.149,0.998
				c-0.602-2.106-1.319-4.181-2.146-6.214l5.419-3.031c0.473-0.265,0.644-0.864,0.378-1.337l-6.123-10.945
				c-0.264-0.474-0.863-0.643-1.337-0.377l-5.374,3.006c-1.285-1.773-2.67-3.485-4.157-5.125l4.009-4.648
				c0.354-0.411,0.309-1.032-0.103-1.386l-9.496-8.191c-0.41-0.355-1.032-0.31-1.386,0.103l-3.989,4.626
				c-0.96-0.648-1.941-1.276-2.949-1.876c-0.899-0.537-1.808-1.046-2.725-1.53l2.158-5.689c0.193-0.507-0.062-1.075-0.57-1.268
				l-11.724-4.449c-0.508-0.193-1.075,0.062-1.266,0.57l-2.14,5.638c-2.162-0.543-4.339-0.966-6.523-1.265l0.082-6.006
				c0.007-0.543-0.427-0.989-0.97-0.997l-12.54-0.17c-0.542-0.007-0.988,0.426-0.994,0.969l-0.082,5.979
				c-2.212,0.232-4.406,0.589-6.575,1.059l-1.965-5.638c-0.179-0.513-0.74-0.783-1.253-0.604l-11.841,4.128
				c-0.512,0.179-0.784,0.739-0.604,1.251l1.954,5.605c-1.998,0.971-3.947,2.05-5.836,3.243l-3.74-4.584
				c-0.344-0.42-0.963-0.482-1.384-0.139l-9.715,7.93c-0.42,0.343-0.484,0.962-0.14,1.382l3.731,4.572
				c-1.533,1.591-2.988,3.281-4.36,5.064l-5.077-3.024c-0.466-0.278-1.07-0.125-1.348,0.342l-6.417,10.774
				c-0.278,0.466-0.125,1.07,0.341,1.347l5.078,3.024c-0.915,2.056-1.708,4.14-2.377,6.248l-5.798-1.104
				c-0.534-0.102-1.049,0.248-1.15,0.782l-2.345,12.319c-0.102,0.533,0.248,1.048,0.781,1.149l5.815,1.107
				c-0.148,2.229-0.17,4.457-0.073,6.676l-5.861,0.951c-0.536,0.086-0.899,0.591-0.813,1.127l2.009,12.378
				c0.088,0.536,0.593,0.9,1.128,0.813l5.896-0.958c0.619,2.132,1.351,4.231,2.2,6.286l-5.22,2.92
				c-0.474,0.263-0.643,0.863-0.378,1.335l6.121,10.945c0.265,0.474,0.864,0.643,1.338,0.378l5.245-2.933
				c1.302,1.778,2.711,3.491,4.218,5.132l-3.94,4.57c-0.354,0.409-0.309,1.03,0.103,1.384l9.495,8.191
				C84.667,127.685,85.288,127.639,85.643,127.228z M76.295,44.216c15.457-25.951,49.023-34.458,74.974-19
				c25.951,15.457,34.458,49.024,19.001,74.975c-15.457,25.951-49.023,34.458-74.975,19C69.345,103.733,60.838,70.167,76.295,44.216
				z"/>
		</g>
		<path fill="none" stroke="#6AABB7" stroke-width="3" stroke-miterlimit="10" d="M303.881,45.094h-4.111
			c-0.162-0.732-0.35-1.455-0.571-2.162l3.554-2.052c0.47-0.271,0.631-0.873,0.359-1.343l-4.784-8.286
			c-0.271-0.47-0.871-0.631-1.342-0.36l-3.562,2.056c-0.504-0.548-1.031-1.075-1.579-1.579l2.057-3.562
			c0.271-0.47,0.11-1.072-0.361-1.343l-8.287-4.784c-0.469-0.271-1.069-0.11-1.341,0.36l-2.052,3.553
			c-0.708-0.222-1.43-0.409-2.161-0.572v-4.111c-0.001-0.407-0.249-0.757-0.602-0.906c-0.118-0.049-0.247-0.077-0.383-0.077h-9.568
			c-0.543,0-0.982,0.44-0.982,0.982v4.111c-0.732,0.163-1.455,0.35-2.163,0.572l-2.051-3.554c-0.271-0.47-0.873-0.631-1.343-0.36
			l-8.286,4.784c-0.47,0.271-0.63,0.873-0.36,1.342l2.057,3.562c-0.548,0.504-1.075,1.031-1.58,1.58l-3.561-2.056
			c-0.471-0.271-1.071-0.11-1.343,0.359l-4.785,8.286c-0.271,0.47-0.109,1.071,0.36,1.342l3.555,2.052
			c-0.223,0.708-0.409,1.43-0.573,2.162h-4.11c-0.542,0-0.982,0.44-0.982,0.983v9.568c0,0.542,0.44,0.982,0.981,0.982h4.111
			c0.164,0.732,0.352,1.455,0.573,2.163l-3.554,2.052c-0.47,0.271-0.631,0.873-0.36,1.342l4.784,8.286
			c0.271,0.47,0.872,0.631,1.343,0.36l3.562-2.056c0.504,0.548,1.031,1.075,1.579,1.579l-2.057,3.562
			c-0.271,0.47-0.11,1.071,0.36,1.343l8.286,4.784c0.47,0.271,1.071,0.11,1.343-0.36l2.051-3.554
			c0.708,0.222,1.43,0.409,2.162,0.571v4.111c0,0.542,0.439,0.982,0.982,0.982l9.57,0.001c0.541-0.001,0.981-0.441,0.981-0.983
			v-4.112c0.732-0.163,1.455-0.35,2.161-0.571l2.052,3.554c0.271,0.47,0.873,0.631,1.342,0.359l8.287-4.784
			c0.47-0.271,0.631-0.873,0.359-1.342l-2.057-3.562c0.549-0.503,1.076-1.031,1.58-1.579l3.562,2.056
			c0.47,0.271,1.072,0.11,1.343-0.36l4.784-8.286c0.271-0.47,0.111-1.071-0.36-1.342l-3.553-2.052
			c0.221-0.708,0.409-1.43,0.571-2.162h4.111c0.542,0,0.983-0.44,0.983-0.983v-9.568C304.865,45.534,304.424,45.094,303.881,45.094z
			"/>
		<circle fill="#6AABB7" cx="273.932" cy="50.86" r="17.563"/>
		<path fill="#FFCD4D" d="M297.869,50.86c0,13.22-10.716,23.937-23.938,23.937c-13.217,0-23.934-10.717-23.934-23.937
			s10.717-23.937,23.934-23.937C287.153,26.923,297.869,37.64,297.869,50.86z"/>
		<g>
			<path fill="none" stroke="#E5503A" stroke-width="3" stroke-miterlimit="10" d="M226.103,153.331l-4.741,3.13
				c-1.752-1.856-3.646-3.532-5.651-5.018l2.538-5.077c0.243-0.486,0.046-1.076-0.439-1.319l-11.665-5.832
				c-0.486-0.242-1.077-0.044-1.319,0.44l-2.543,5.088c-2.418-0.718-4.894-1.225-7.4-1.513l-0.342-5.68
				c-0.033-0.54-0.498-0.954-1.04-0.921l-13.019,0.783c-0.542,0.032-0.954,0.499-0.922,1.039l0.34,5.667
				c-2.427,0.579-4.826,1.377-7.167,2.395l-3.13-4.741h0c-0.299-0.453-0.91-0.578-1.363-0.279l-10.883,7.188
				c-0.34,0.224-0.494,0.623-0.424,1.001c0.003,0.012,0.008,0.023,0.01,0.037c0.012,0.049,0.024,0.099,0.044,0.148
				c0.008,0.021,0.021,0.039,0.031,0.06c0.019,0.039,0.036,0.079,0.061,0.116l3.13,4.74c-1.856,1.753-3.532,3.646-5.018,5.651
				l-5.077-2.538c-0.485-0.242-1.075-0.046-1.317,0.441l-5.833,11.664c-0.242,0.485-0.045,1.076,0.44,1.318l5.087,2.544
				c-0.718,2.417-1.224,4.894-1.514,7.398l-5.678,0.342c-0.542,0.032-0.954,0.499-0.922,1.038l0.783,13.019
				c0.031,0.543,0.497,0.955,1.04,0.923l5.664-0.34c0.579,2.429,1.376,4.826,2.395,7.168l-4.74,3.13
				c-0.453,0.299-0.577,0.909-0.279,1.362l7.188,10.883c0.299,0.453,0.908,0.577,1.36,0.279l4.741-3.131
				c1.753,1.856,3.645,3.531,5.651,5.019l-2.538,5.075c-0.243,0.485-0.045,1.077,0.439,1.319l11.666,5.831
				c0.486,0.242,1.077,0.045,1.318-0.438l2.544-5.088c2.417,0.718,4.894,1.224,7.399,1.514l0.341,5.677
				c0.033,0.542,0.499,0.954,1.04,0.923l13.017-0.783c0.543-0.031,0.956-0.498,0.924-1.039l-0.341-5.665
				c2.428-0.579,4.826-1.376,7.167-2.395l3.13,4.739c0.07,0.107,0.159,0.194,0.259,0.264c0.32,0.224,0.757,0.245,1.103,0.016
				l10.883-7.187c0.453-0.299,0.578-0.909,0.278-1.362h-0.001l-3.129-4.74c1.857-1.754,3.532-3.646,5.019-5.651l5.076,2.538
				c0.485,0.242,1.076,0.045,1.319-0.44l5.832-11.665c0.242-0.484,0.045-1.074-0.44-1.318l-5.088-2.543
				c0.718-2.418,1.225-4.895,1.514-7.399l5.678-0.342c0.542-0.031,0.954-0.498,0.922-1.041l-0.782-13.017
				c-0.033-0.542-0.499-0.955-1.041-0.922l-5.665,0.34c-0.58-2.429-1.377-4.827-2.396-7.169l4.74-3.13
				c0.453-0.3,0.578-0.909,0.279-1.362l-7.187-10.883C227.166,153.155,226.555,153.031,226.103,153.331z"/>
			<circle fill="#FFCD4D" cx="189.947" cy="186.197" r="33.494"/>
			<path fill="#FFCD4D" d="M217.505,167.181c-10.323-14.97-30.77-18.999-46.015-8.933c-15.245,10.066-19.57,30.452-9.856,45.825
				L217.505,167.181z"/>
			<circle fill="#FFCD4D" cx="189.947" cy="186.197" r="12.58"/>
		</g>
		<g>
			<circle fill="#FFCD4D" cx="616.756" cy="91.017" r="55.783"/>
			<g>
				
					<circle fill="none" stroke="#676767" stroke-width="1.0949" stroke-miterlimit="10" stroke-dasharray="3,5" cx="790.979" cy="115.622" r="44.952"/>
				<path fill="#405158" d="M760.601,52.355l-6.225-4.565l0.321,7.714c0.119,2.837-2.828,4.776-5.387,3.546l-6.959-3.342
					l1.734,7.523c0.639,2.766-1.902,5.214-4.643,4.478l-7.455-2.008l3.087,7.075c1.135,2.603-0.911,5.476-3.741,5.254l-7.696-0.604
					l4.335,6.388c1.594,2.351,0.109,5.551-2.713,5.854l-7.678,0.82l5.435,5.483c2,2.017,1.13,5.436-1.589,6.25l-7.396,2.218
					l6.35,4.393c2.336,1.614,2.107,5.135-0.416,6.436l-6.862,3.538l7.049,3.15c2.593,1.157,3.017,4.662,0.774,6.404l-6.095,4.74
					l7.507,1.798c2.762,0.664,3.822,4.028,1.939,6.153l-5.121,5.778l7.71,0.391c2.837,0.143,4.497,3.257,3.036,5.691l-3.971,6.621
					l7.65-1.032c2.813-0.381,5.019,2.374,4.03,5.036l-2.688,7.237l7.332-2.421c2.695-0.89,5.367,1.413,4.886,4.211l-1.312,7.609
					l6.761-3.728c2.487-1.372,5.538,0.4,5.577,3.24l0.11,7.72l5.96-4.905c2.193-1.805,5.517-0.623,6.079,2.16l1.524,7.568
					l4.957-5.917c1.826-2.176,5.311-1.626,6.371,1.007l2.893,7.159l3.786-6.729c1.392-2.474,4.919-2.573,6.446-0.179l4.157,6.504
					l2.485-7.31c0.914-2.688,4.364-3.433,6.306-1.36l5.282,5.63l1.1-7.641c0.404-2.811,3.658-4.177,5.947-2.498l6.227,4.565
					l-0.323-7.714c-0.118-2.837,2.828-4.777,5.388-3.548l6.958,3.344l-1.734-7.523c-0.638-2.766,1.903-5.216,4.645-4.477
					l7.454,2.009l-3.088-7.078c-1.136-2.601,0.911-5.476,3.742-5.253l7.697,0.604l-4.335-6.388c-1.595-2.351-0.11-5.552,2.713-5.853
					l7.676-0.822l-5.434-5.483c-1.999-2.016-1.13-5.434,1.59-6.25l7.396-2.217l-6.351-4.392c-2.335-1.614-2.108-5.136,0.415-6.438
					l6.862-3.538l-7.047-3.15c-2.594-1.158-3.018-4.66-0.774-6.403l6.093-4.739l-7.508-1.801c-2.76-0.661-3.819-4.027-1.938-6.152
					l5.12-5.777l-7.71-0.391c-2.837-0.144-4.496-3.256-3.036-5.691l3.973-6.621l-7.652,1.032c-2.813,0.38-5.018-2.375-4.03-5.037
					l2.688-7.238l-7.332,2.422c-2.695,0.889-5.368-1.414-4.887-4.21l1.313-7.609l-6.762,3.728c-2.486,1.371-5.537-0.402-5.578-3.242
					l-0.107-7.719l-5.961,4.906c-2.193,1.804-5.518,0.622-6.078-2.163l-1.526-7.567l-4.959,5.917
					c-1.822,2.176-5.307,1.625-6.37-1.008l-2.89-7.159l-3.788,6.728c-1.393,2.475-4.919,2.574-6.446,0.182l-4.157-6.506
					l-2.486,7.309c-0.914,2.688-4.361,3.434-6.305,1.363l-5.28-5.632l-1.101,7.641C766.146,52.668,762.89,54.035,760.601,52.355z
					 M836.866,101.854c8.158,25.281-5.722,52.392-31.006,60.552c-25.281,8.158-52.392-5.722-60.551-31.004
					c-8.159-25.283,5.722-52.392,31.004-60.553C801.597,62.689,828.706,76.571,836.866,101.854z"/>
			</g>
			<g>
				<path fill="none" stroke="#405158" stroke-width="3" stroke-miterlimit="10" d="M579.887,146.782l3.976-4.608
					c0.862,0.574,1.743,1.13,2.643,1.667c1.008,0.6,2.027,1.163,3.055,1.698l-2.168,5.715c-0.193,0.505,0.062,1.073,0.567,1.266
					l11.725,4.449c0.508,0.192,1.077-0.063,1.27-0.569l2.178-5.741c2.15,0.526,4.315,0.929,6.486,1.214l-0.083,6.16
					c-0.009,0.543,0.425,0.987,0.968,0.996l12.538,0.171c0.543,0.009,0.991-0.427,0.997-0.97l0.086-6.21
					c2.182-0.241,4.347-0.6,6.486-1.072l2.05,5.882c0.179,0.514,0.739,0.784,1.251,0.604l11.842-4.127
					c0.513-0.179,0.783-0.739,0.605-1.252l-2.06-5.903c1.96-0.963,3.872-2.032,5.728-3.208l3.954,4.847
					c0.344,0.422,0.962,0.484,1.382,0.142l9.716-7.929c0.42-0.344,0.484-0.964,0.14-1.384l-3.962-4.857
					c1.5-1.565,2.925-3.226,4.271-4.974l5.396,3.215c0.467,0.277,1.069,0.125,1.348-0.341l6.417-10.775
					c0.278-0.466,0.126-1.069-0.341-1.347l-5.397-3.216c0.896-2.015,1.678-4.059,2.339-6.123l6.156,1.171
					c0.533,0.102,1.048-0.248,1.149-0.781l2.345-12.319c0.103-0.533-0.248-1.047-0.78-1.149l-6.146-1.169
					c0.151-2.19,0.182-4.38,0.093-6.561l6.17-1.001c0.536-0.087,0.9-0.593,0.813-1.128l-2.009-12.378
					c-0.087-0.536-0.591-0.899-1.128-0.812l-6.148,0.998c-0.602-2.106-1.318-4.181-2.146-6.214l5.419-3.032
					c0.473-0.265,0.644-0.864,0.378-1.337l-6.122-10.944c-0.265-0.474-0.864-0.644-1.337-0.377l-5.375,3.006
					c-1.284-1.773-2.67-3.485-4.157-5.126l4.009-4.647c0.354-0.411,0.31-1.032-0.103-1.386l-9.496-8.19
					c-0.411-0.355-1.031-0.31-1.386,0.103l-3.989,4.625c-0.961-0.648-1.94-1.276-2.949-1.875c-0.898-0.537-1.808-1.046-2.725-1.531
					l2.159-5.689c0.192-0.507-0.063-1.075-0.57-1.268l-11.724-4.448c-0.509-0.193-1.075,0.062-1.268,0.57l-2.139,5.638
					c-2.162-0.544-4.339-0.967-6.523-1.265l0.082-6.006c0.006-0.543-0.427-0.989-0.97-0.997l-12.54-0.17
					c-0.542-0.008-0.988,0.426-0.994,0.969l-0.082,5.979c-2.212,0.232-4.405,0.588-6.574,1.059l-1.965-5.638
					c-0.18-0.513-0.741-0.783-1.254-0.604l-11.84,4.128c-0.514,0.178-0.784,0.738-0.604,1.251l1.953,5.605
					c-1.997,0.971-3.946,2.05-5.836,3.242l-3.74-4.583c-0.344-0.42-0.963-0.482-1.384-0.139l-9.715,7.929
					c-0.421,0.343-0.484,0.962-0.14,1.383l3.731,4.571c-1.533,1.592-2.988,3.281-4.36,5.065l-5.076-3.024
					c-0.467-0.278-1.07-0.125-1.349,0.342l-6.416,10.774c-0.278,0.466-0.126,1.069,0.341,1.347l5.076,3.024
					c-0.914,2.056-1.707,4.14-2.376,6.247l-5.798-1.104c-0.533-0.103-1.049,0.248-1.149,0.781l-2.346,12.319
					c-0.103,0.533,0.248,1.048,0.781,1.149l5.814,1.107c-0.147,2.229-0.17,4.458-0.072,6.676l-5.86,0.951
					c-0.536,0.086-0.899,0.591-0.813,1.126l2.008,12.378c0.087,0.536,0.593,0.9,1.128,0.813l5.897-0.957
					c0.618,2.132,1.35,4.231,2.199,6.286l-5.22,2.92c-0.475,0.264-0.644,0.862-0.38,1.335l6.122,10.945
					c0.266,0.474,0.863,0.644,1.338,0.379l5.245-2.935c1.303,1.779,2.711,3.491,4.218,5.132l-3.94,4.569
					c-0.354,0.409-0.309,1.031,0.104,1.384l9.494,8.192C578.91,147.238,579.532,147.193,579.887,146.782z M570.539,63.77
					c15.457-25.951,49.023-34.458,74.975-19c25.951,15.458,34.457,49.024,19.001,74.975c-15.457,25.951-49.024,34.458-74.975,19
					C563.589,123.288,555.081,89.721,570.539,63.77z"/>
			</g>
			<g>
				<path fill="none" stroke="#405158" stroke-width="3" stroke-miterlimit="10" d="M949.261,27.755l-4.741,3.13
					c-1.753-1.856-3.646-3.532-5.651-5.018l2.538-5.077c0.242-0.486,0.046-1.076-0.439-1.319l-11.666-5.832
					c-0.484-0.242-1.075-0.045-1.318,0.44l-2.543,5.088c-2.417-0.718-4.894-1.225-7.398-1.514l-0.342-5.678
					c-0.032-0.542-0.499-0.955-1.041-0.922l-13.017,0.782c-0.542,0.032-0.956,0.499-0.923,1.039l0.34,5.666
					c-2.428,0.58-4.826,1.377-7.167,2.396l-3.131-4.741l0,0c-0.299-0.454-0.91-0.578-1.363-0.279l-10.883,7.187
					c-0.34,0.225-0.494,0.624-0.424,1.001c0.004,0.012,0.009,0.023,0.011,0.037c0.011,0.049,0.024,0.099,0.045,0.148
					c0.008,0.021,0.021,0.041,0.029,0.06c0.021,0.04,0.037,0.079,0.061,0.116l3.132,4.74c-1.857,1.753-3.532,3.646-5.019,5.652
					l-5.076-2.538c-0.485-0.242-1.075-0.046-1.317,0.44l-5.833,11.665c-0.242,0.485-0.045,1.076,0.44,1.319l5.087,2.543
					c-0.719,2.417-1.225,4.893-1.514,7.398l-5.678,0.342c-0.542,0.032-0.954,0.499-0.922,1.039l0.782,13.019
					c0.032,0.542,0.498,0.955,1.04,0.923l5.665-0.341c0.578,2.429,1.375,4.827,2.395,7.168l-4.74,3.13
					c-0.452,0.299-0.577,0.909-0.278,1.362l7.187,10.883c0.3,0.453,0.909,0.578,1.361,0.279l4.74-3.13
					c1.753,1.857,3.646,3.532,5.652,5.019l-2.539,5.076c-0.242,0.484-0.045,1.076,0.44,1.318l11.666,5.832
					c0.485,0.243,1.075,0.046,1.317-0.439l2.544-5.088c2.417,0.718,4.894,1.225,7.398,1.514l0.342,5.678
					c0.032,0.541,0.499,0.954,1.04,0.922l13.018-0.783c0.542-0.032,0.955-0.499,0.924-1.04l-0.342-5.665
					c2.429-0.579,4.826-1.376,7.168-2.395l3.13,4.739c0.07,0.107,0.16,0.193,0.259,0.263c0.321,0.224,0.758,0.245,1.104,0.016
					l10.884-7.187c0.453-0.299,0.577-0.909,0.279-1.362h-0.002l-3.13-4.74c1.857-1.753,3.532-3.646,5.019-5.652l5.076,2.538
					c0.485,0.243,1.077,0.046,1.319-0.44l5.832-11.666c0.242-0.485,0.045-1.075-0.439-1.319l-5.089-2.542
					c0.718-2.418,1.225-4.895,1.514-7.4l5.678-0.341c0.542-0.032,0.956-0.498,0.922-1.041l-0.782-13.018
					c-0.032-0.542-0.497-0.955-1.038-0.922l-5.666,0.34c-0.58-2.428-1.376-4.827-2.396-7.168l4.74-3.131
					c0.453-0.299,0.578-0.909,0.279-1.362l-7.187-10.882C950.324,27.581,949.713,27.456,949.261,27.755z"/>
				<circle fill="#FFCD4D" cx="913.105" cy="60.622" r="33.493"/>
				<path fill="#FFCD4D" d="M940.663,41.605c-10.322-14.971-30.77-18.999-46.015-8.933c-15.244,10.067-19.57,30.453-9.855,45.826
					L940.663,41.605z"/>
				<circle fill="#FFCD4D" cx="913.104" cy="60.622" r="12.581"/>
			</g>
		</g>
		<text transform="matrix(1 0 0 1 82.1294 76.7007)" fill="#405158" font-family="'GothamRounded-Bold'" font-size="9.8912">Data Engineering</text>
		<text transform="matrix(1 0 0 1 172.1772 191.6836)" fill="#405158" font-family="'GothamRounded-Bold'" font-size="9.8912">DevOps</text>
		<text transform="matrix(1 0 0 1 585.3867 95.8281)" fill="#405158" font-family="'GothamRounded-Bold'" font-size="9.8912">Infrastructure</text>
		<text transform="matrix(1 0 0 1 768.4795 116.7329)"><tspan x="0" y="0" fill="#405158" font-family="'GothamRounded-Bold'" font-size="9.8912">Elastic</tspan><tspan x="0" y="11.87" fill="#405158" font-family="'GothamRounded-Bold'" font-size="9.8912">Workforce</tspan></text>
		<text transform="matrix(1 0 0 1 254.1138 54.1113)" fill="#405158" font-family="'GothamRounded-Bold'" font-size="9.8912">Mobility</text>
		<text transform="matrix(1 0 0 1 395.957 67.2617)" fill="#405158" font-family="'GothamRounded-Bold'" font-size="9.8912">UI/UX</text>
		<text transform="matrix(1 0 0 1 902.4111 64.2266)" fill="#405158" font-family="'GothamRounded-Bold'" font-size="9.8912">Agile</text>
		<text transform="matrix(1 0 0 1 318.1958 55.8774)"><tspan x="0" y="0" fill="#405158" font-family="'GothamRounded-Bold'" font-size="8.8151">Application</tspan><tspan x="0" y="10.578" fill="#405158" font-family="'GothamRounded-Bold'" font-size="8.8151">Development</tspan></text>
		<text transform="matrix(1 0 0 1 49.104 203.4844)"><tspan x="0" y="0" fill="#405158" font-family="'GothamRounded-Bold'" font-size="9.8912">Data </tspan><tspan x="0" y="11.869" fill="#405158" font-family="'GothamRounded-Bold'" font-size="9.8912">Science</tspan></text>
		<g>
			<g>
				<path fill="none" stroke="#676767" stroke-width="2.1859" stroke-miterlimit="10" d="M959.367,116.444L959.367,116.444
					c-3.843,0-5.999-0.467-6.411-1.391c-0.181-0.4-0.058-0.844,0.365-1.316c0.532-0.594,1.224-0.895,2.059-0.895
					c2.588,0,5.709,2.93,5.842,3.054l0.509,0.481l-0.7,0.033C961.023,116.412,960.328,116.444,959.367,116.444z M955.38,113.439
					c-0.667,0-1.193,0.229-1.611,0.696c-0.252,0.28-0.342,0.509-0.268,0.675c0.225,0.501,1.882,1.037,5.866,1.037l0,0
					c0.33,0,0.629-0.004,0.878-0.009C959.249,115.013,957.121,113.439,955.38,113.439z"/>
			</g>
			<g>
				<path fill="none" stroke="#676767" stroke-width="2.1859" stroke-miterlimit="10" d="M961.016,116.412h-0.321l0.023-0.32
					c0.021-0.283,0.548-7.048,4.952-6.835c2.085,0.098,3.5,0.925,3.693,2.16c0.155,0.999-0.593,2.405-3.156,3.358
					C961.927,116.366,961.097,116.412,961.016,116.412z M965.48,109.85c-3.138,0-3.951,4.535-4.125,5.9
					c0.537-0.124,1.815-0.484,4.644-1.536c2.226-0.828,2.893-1.941,2.771-2.707c-0.143-0.922-1.37-1.572-3.128-1.654
					C965.587,109.852,965.533,109.85,965.48,109.85z"/>
			</g>
			<g>
				<path fill="none" stroke="#676767" stroke-width="2.1859" stroke-miterlimit="10" d="M961.375,117.946
					c-0.136,0-0.259-0.091-0.291-0.23l-0.068-0.293l-0.068,0.293c-0.038,0.161-0.198,0.26-0.359,0.223
					c-0.16-0.038-0.26-0.198-0.224-0.359l0.651-2.778l0.65,2.778c0.038,0.161-0.062,0.321-0.223,0.359
					C961.421,117.944,961.397,117.946,961.375,117.946z"/>
			</g>
		</g>
	</g>
	<g>
		<g>
			<path fill="#FFCD4D" d="M940.646,172.71c0.409,0.203,0.807,0.203,1.192,0c0.384-0.201,0.574-0.56,0.574-1.065v-9.292h0.771
				v10.464c0.396-0.259,0.814-0.451,1.229-0.544c1.899-0.424,3.652-0.174,5.562-0.072c0.411,0.021,0.783,0.117,1.12,0.26v-10.107
				h0.77v9.214c0,0.561,0.191,0.965,0.577,1.219c0.383,0.253,0.779,0.253,1.19,0c0.407-0.254,0.614-0.658,0.614-1.219v-9.519
				c0-1.067-0.36-1.942-1.077-2.629c-0.715-0.684-1.688-1.027-2.919-1.027h-6.223c-1.178,0-2.139,0.331-2.881,0.99
				c-0.743,0.661-1.115,1.524-1.115,2.59v9.673C940.031,172.15,940.238,172.509,940.646,172.71z"/>
			<path fill="#FFCD4D" d="M943.798,154.241c0,0.89,0.319,1.651,0.96,2.285c0.64,0.634,1.407,0.95,2.304,0.95
				c0.897,0,1.652-0.316,2.269-0.95c0.614-0.634,0.92-1.396,0.92-2.285c0-0.887-0.306-1.649-0.92-2.283
				c-0.616-0.635-1.371-0.953-2.269-0.953c-0.896,0-1.664,0.318-2.304,0.953C944.117,152.592,943.798,153.354,943.798,154.241
				L943.798,154.241z M943.798,154.241"/>
		</g>
		<g>
			<g>
				<rect x="967.19" y="150.686" fill="#FFCD4D" width="15.944" height="22.243"/>
				<g>
					<g>
						<rect x="969.442" y="152.399" fill="#010101" width="2.7" height="2.699"/>
						<rect x="973.851" y="152.399" fill="#010101" width="2.699" height="2.699"/>
						<rect x="978.258" y="152.399" fill="#010101" width="2.699" height="2.699"/>
					</g>
					<g>
						<rect x="969.406" y="156.46" fill="#010101" width="2.699" height="2.698"/>
						<rect x="973.813" y="156.46" fill="#010101" width="2.7" height="2.698"/>
						<rect x="978.221" y="156.46" fill="#010101" width="2.699" height="2.698"/>
					</g>
					<g>
						<rect x="969.369" y="160.52" fill="#010101" width="2.698" height="2.699"/>
						<rect x="973.775" y="160.52" fill="#010101" width="2.699" height="2.699"/>
						<rect x="978.183" y="160.52" fill="#010101" width="2.699" height="2.699"/>
					</g>
					<g>
						<rect x="969.33" y="164.579" fill="#010101" width="2.699" height="2.7"/>
						<rect x="973.737" y="164.579" fill="#010101" width="2.7" height="2.7"/>
						<rect x="978.145" y="164.579" fill="#010101" width="2.7" height="2.7"/>
					</g>
					<g>
						<rect x="969.293" y="168.64" fill="#010101" width="2.699" height="2.699"/>
						<rect x="973.049" y="168.459" fill="#010101" width="3.894" height="4.47"/>
						<rect x="978.108" y="168.64" fill="#010101" width="2.697" height="2.699"/>
					</g>
				</g>
			</g>
		</g>
		<g>
			<path fill="none" stroke="#FFCD4D" stroke-width="2" stroke-miterlimit="10" d="M947.166,146.895c0,0,10.507-17.67,27.224-0.954"
				/>
			<polyline fill="#FFCD4D" points="975.678,144.121 976.554,147.314 972.99,148.292 			"/>
		</g>
		<g>
			<path fill="none" stroke="#FFCD4D" stroke-width="2" stroke-miterlimit="10" d="M977.308,175.534c0,0-9.796,18.075-27.163,2.037"
				/>
			<polyline fill="#FFCD4D" points="948.929,179.439 947.927,176.283 951.448,175.165 			"/>
		</g>
	</g>
</g>
</svg>
