<?xml version="1.0" encoding="utf-8"?>
<!-- Generator: Adobe Illustrator 16.0.0, SVG Export Plug-In . SVG Version: 6.00 Build 0)  -->
<!DOCTYPE svg PUBLIC "-//W3C//DTD SVG 1.1//EN" "http://www.w3.org/Graphics/SVG/1.1/DTD/svg11.dtd">
<svg version="1.1" id="Layer_1" xmlns="http://www.w3.org/2000/svg" xmlns:xlink="http://www.w3.org/1999/xlink" x="0px" y="0px"
	 width="1000px" height="265px" viewBox="0 0 1000 265" enable-background="new 0 0 1000 265" xml:space="preserve">
<g>
	<g>
		
			<line fill="none" stroke="#676767" stroke-width="2.1859" stroke-miterlimit="10" x1="908.501" y1="106.281" x2="824.239" y2="147.697"/>
		
			<line fill="none" stroke="#676767" stroke-width="2.1859" stroke-miterlimit="10" x1="869.536" y1="36.743" x2="796.837" y2="61.089"/>
	</g>
	<g>
		
			<line fill="none" stroke="#676767" stroke-width="2.1859" stroke-miterlimit="10" x1="794.733" y1="181.053" x2="654.533" y2="148.11"/>
		
			<line fill="none" stroke="#676767" stroke-width="2.1859" stroke-miterlimit="10" x1="781.549" y1="74.019" x2="655.486" y2="37.6"/>
	</g>
	<g>
		
			<line fill="none" stroke="#676767" stroke-width="2.1859" stroke-miterlimit="10" x1="581.173" y1="146.373" x2="470.177" y2="108.826"/>
		
			<line fill="none" stroke="#676767" stroke-width="2.1859" stroke-miterlimit="10" x1="594.479" y1="28.102" x2="484.31" y2="31.828"/>
	</g>
	<g>
		
			<line fill="none" stroke="#676767" stroke-width="3" stroke-miterlimit="10" x1="76.878" y1="233.614" x2="166.834" y2="229.324"/>
		<line fill="none" stroke="#676767" stroke-width="3" stroke-miterlimit="10" x1="75.244" y1="168.009" x2="158.65" y2="152.251"/>
	</g>
	<g>
		<line fill="none" stroke="#676767" stroke-width="3" stroke-miterlimit="10" x1="158.551" y1="116.192" x2="97.754" y2="235.97"/>
		<line fill="none" stroke="#676767" stroke-width="3" stroke-miterlimit="10" x1="70.478" y1="70.382" x2="23.521" y2="192.952"/>
	</g>
	<g>
		
			<line fill="none" stroke="#676767" stroke-width="2.1859" stroke-miterlimit="10" x1="158.133" y1="117.925" x2="247.603" y2="78.703"/>
		
			<line fill="none" stroke="#676767" stroke-width="2.1859" stroke-miterlimit="10" x1="153.273" y1="24.319" x2="241.704" y2="28.374"/>
	</g>
	<circle fill="#FFCD4D" cx="789.053" cy="116.309" r="55.783"/>
	<circle fill="#FFCD4D" cx="122.512" cy="71.463" r="55.783"/>
	<circle fill="#FFCD4D" cx="65.093" cy="205.477" r="34.89"/>
	
		<circle fill="none" stroke="#676767" stroke-width="1.0949" stroke-miterlimit="10" stroke-dasharray="3,5" cx="64.932" cy="204.865" r="30.568"/>
	<path fill="#E5503A" d="M44.274,161.843l-4.234-3.104l0.219,5.246c0.081,1.93-1.923,3.248-3.664,2.412l-4.732-2.273l1.18,5.116
		c0.434,1.881-1.294,3.546-3.158,3.045l-5.069-1.365l2.099,4.812c0.772,1.77-0.62,3.724-2.544,3.573l-5.234-0.411l2.948,4.344
		c1.084,1.6,0.075,3.775-1.844,3.98l-5.221,0.559l3.696,3.728c1.359,1.373,0.768,3.697-1.082,4.251l-5.029,1.509l4.318,2.986
		c1.588,1.097,1.434,3.492-0.282,4.377l-4.667,2.406l4.793,2.142c1.763,0.787,2.051,3.17,0.527,4.354l-4.145,3.224l5.105,1.224
		c1.877,0.451,2.598,2.739,1.318,4.185l-3.481,3.929l5.243,0.267c1.928,0.097,3.058,2.214,2.064,3.87l-2.701,4.502l5.203-0.703
		c1.913-0.258,3.412,1.615,2.74,3.426l-1.827,4.921l4.985-1.646c1.833-0.605,3.65,0.961,3.323,2.863l-0.892,5.175l4.598-2.535
		c1.691-0.933,3.765,0.272,3.792,2.204l0.075,5.249l4.054-3.336c1.49-1.227,3.751-0.423,4.132,1.469l1.038,5.147l3.372-4.024
		c1.24-1.479,3.61-1.105,4.333,0.686l1.966,4.867l2.575-4.575c0.947-1.682,3.345-1.749,4.384-0.122l2.827,4.423l1.69-4.97
		c0.622-1.826,2.967-2.335,4.288-0.926l3.591,3.829l0.748-5.196c0.276-1.911,2.488-2.84,4.045-1.698l4.234,3.104l-0.22-5.245
		c-0.081-1.93,1.923-3.249,3.664-2.412l4.732,2.273l-1.18-5.116c-0.434-1.882,1.293-3.547,3.158-3.044l5.069,1.365l-2.1-4.813
		c-0.772-1.769,0.62-3.723,2.545-3.572l5.234,0.411l-2.948-4.344c-1.084-1.599-0.075-3.775,1.845-3.98l5.22-0.559l-3.696-3.729
		c-1.359-1.371-0.768-3.696,1.083-4.251l5.028-1.508l-4.318-2.985c-1.588-1.098-1.434-3.493,0.282-4.378l4.667-2.406l-4.793-2.143
		c-1.763-0.787-2.051-3.168-0.527-4.354l4.145-3.224l-5.105-1.225c-1.877-0.449-2.599-2.738-1.318-4.184l3.482-3.929l-5.244-0.267
		c-1.928-0.098-3.058-2.214-2.064-3.869l2.701-4.503l-5.203,0.703c-1.913,0.258-3.412-1.615-2.74-3.426l1.827-4.922l-4.985,1.647
		c-1.833,0.604-3.651-0.962-3.323-2.864l0.892-5.175l-4.598,2.535c-1.691,0.933-3.765-0.272-3.793-2.204l-0.074-5.249l-4.054,3.336
		c-1.491,1.228-3.751,0.424-4.133-1.47l-1.038-5.146l-3.372,4.023c-1.239,1.48-3.609,1.105-4.332-0.686l-1.965-4.868l-2.575,4.575
		c-0.947,1.683-3.345,1.75-4.384,0.123l-2.827-4.424l-1.69,4.97c-0.622,1.828-2.967,2.335-4.288,0.928l-3.592-3.831l-0.748,5.197
		C48.043,162.057,45.831,162.985,44.274,161.843z M96.136,195.503c5.549,17.192-3.891,35.629-21.084,41.177
		c-17.192,5.548-35.628-3.892-41.176-21.084s3.891-35.628,21.084-41.177S90.587,178.311,96.136,195.503z"/>
	<g>
		<path fill="#E5503A" d="M85.643,127.228l3.975-4.608c0.862,0.573,1.744,1.129,2.643,1.666c1.008,0.6,2.027,1.164,3.054,1.699
			l-2.168,5.715c-0.193,0.506,0.062,1.073,0.568,1.266l11.724,4.449c0.508,0.193,1.077-0.063,1.269-0.57l2.178-5.74
			c2.15,0.525,4.315,0.929,6.487,1.213l-0.084,6.161c-0.009,0.542,0.425,0.987,0.967,0.995l12.539,0.171
			c0.543,0.008,0.99-0.427,0.997-0.97l0.085-6.209c2.182-0.242,4.347-0.6,6.486-1.073l2.051,5.883
			c0.178,0.513,0.738,0.783,1.25,0.604l11.842-4.127c0.513-0.179,0.784-0.739,0.605-1.252l-2.059-5.903
			c1.96-0.963,3.872-2.033,5.727-3.208l3.955,4.847c0.343,0.421,0.961,0.484,1.381,0.141l9.716-7.929
			c0.42-0.343,0.484-0.963,0.14-1.383l-3.963-4.858c1.5-1.565,2.925-3.225,4.271-4.974l5.397,3.216
			c0.466,0.277,1.069,0.125,1.348-0.342l6.417-10.774c0.278-0.466,0.126-1.069-0.34-1.347l-5.398-3.215
			c0.896-2.015,1.678-4.058,2.34-6.123l6.155,1.171c0.533,0.102,1.048-0.248,1.149-0.781l2.346-12.32
			c0.102-0.532-0.25-1.047-0.782-1.149l-6.145-1.169c0.151-2.19,0.181-4.381,0.093-6.562l6.169-1.001
			c0.536-0.087,0.9-0.592,0.813-1.128l-2.01-12.378c-0.086-0.536-0.591-0.899-1.126-0.812l-6.149,0.998
			c-0.602-2.106-1.319-4.181-2.146-6.214l5.419-3.031c0.473-0.265,0.644-0.864,0.378-1.337l-6.123-10.945
			c-0.264-0.474-0.863-0.643-1.337-0.377l-5.374,3.006c-1.285-1.773-2.67-3.485-4.157-5.125l4.009-4.648
			c0.354-0.411,0.309-1.032-0.103-1.386l-9.496-8.191c-0.41-0.355-1.032-0.31-1.386,0.103l-3.989,4.626
			c-0.96-0.648-1.941-1.276-2.949-1.876c-0.899-0.537-1.808-1.046-2.725-1.53l2.158-5.689c0.193-0.507-0.062-1.075-0.57-1.268
			l-11.724-4.449c-0.508-0.193-1.075,0.062-1.266,0.57l-2.14,5.638c-2.162-0.543-4.339-0.966-6.523-1.265l0.082-6.006
			c0.007-0.543-0.427-0.989-0.97-0.997l-12.54-0.17c-0.542-0.007-0.988,0.426-0.994,0.969l-0.082,5.979
			c-2.212,0.232-4.406,0.589-6.575,1.059l-1.965-5.638c-0.179-0.513-0.74-0.783-1.253-0.604l-11.841,4.128
			c-0.512,0.179-0.784,0.739-0.604,1.251l1.954,5.605c-1.998,0.971-3.947,2.05-5.836,3.243l-3.74-4.584
			c-0.344-0.42-0.963-0.482-1.384-0.139l-9.715,7.93c-0.42,0.343-0.484,0.962-0.14,1.382l3.731,4.572
			c-1.533,1.591-2.988,3.281-4.36,5.064l-5.077-3.024c-0.466-0.278-1.07-0.125-1.348,0.342l-6.417,10.774
			c-0.278,0.466-0.125,1.07,0.341,1.347l5.078,3.024c-0.915,2.056-1.708,4.14-2.377,6.248l-5.798-1.104
			c-0.534-0.102-1.049,0.248-1.15,0.782l-2.345,12.319c-0.102,0.533,0.248,1.048,0.781,1.149l5.815,1.107
			c-0.148,2.229-0.17,4.457-0.073,6.676l-5.861,0.951c-0.536,0.086-0.899,0.591-0.813,1.127l2.009,12.378
			c0.088,0.536,0.593,0.9,1.128,0.813l5.896-0.958c0.619,2.132,1.351,4.231,2.2,6.286l-5.22,2.92
			c-0.474,0.263-0.643,0.863-0.378,1.335l6.121,10.945c0.265,0.474,0.864,0.643,1.338,0.378l5.245-2.933
			c1.302,1.778,2.711,3.491,4.218,5.132l-3.94,4.57c-0.354,0.409-0.309,1.03,0.103,1.384l9.495,8.191
			C84.667,127.685,85.288,127.639,85.643,127.228z M76.295,44.216c15.457-25.951,49.023-34.458,74.974-19
			c25.951,15.457,34.458,49.024,19.001,74.975c-15.457,25.951-49.023,34.458-74.975,19C69.345,103.733,60.838,70.167,76.295,44.216z
			"/>
	</g>
	<g>
		<path fill="none" stroke="#E5503A" stroke-width="3" stroke-miterlimit="10" d="M226.103,153.331l-4.741,3.13
			c-1.752-1.856-3.646-3.532-5.651-5.018l2.538-5.077c0.243-0.486,0.046-1.076-0.439-1.319l-11.665-5.832
			c-0.486-0.242-1.077-0.044-1.319,0.44l-2.543,5.088c-2.418-0.718-4.894-1.225-7.4-1.513l-0.342-5.68
			c-0.033-0.54-0.498-0.954-1.04-0.921l-13.019,0.783c-0.542,0.032-0.954,0.499-0.922,1.039l0.34,5.667
			c-2.427,0.579-4.826,1.377-7.167,2.395l-3.13-4.741h0c-0.299-0.453-0.91-0.578-1.363-0.279l-10.883,7.188
			c-0.34,0.224-0.494,0.623-0.424,1.001c0.003,0.012,0.008,0.023,0.01,0.037c0.012,0.049,0.024,0.099,0.044,0.148
			c0.008,0.021,0.021,0.039,0.031,0.06c0.019,0.039,0.036,0.079,0.061,0.116l3.13,4.74c-1.856,1.753-3.532,3.646-5.018,5.651
			l-5.077-2.538c-0.485-0.242-1.075-0.046-1.317,0.441l-5.833,11.664c-0.242,0.485-0.045,1.076,0.44,1.318l5.087,2.544
			c-0.718,2.417-1.224,4.894-1.514,7.398l-5.678,0.342c-0.542,0.032-0.954,0.499-0.922,1.038l0.783,13.019
			c0.031,0.543,0.497,0.955,1.04,0.923l5.664-0.34c0.579,2.429,1.376,4.826,2.395,7.168l-4.74,3.13
			c-0.453,0.299-0.577,0.909-0.279,1.362l7.188,10.883c0.299,0.453,0.908,0.577,1.36,0.279l4.741-3.131
			c1.753,1.856,3.645,3.531,5.651,5.019l-2.538,5.075c-0.243,0.485-0.045,1.077,0.439,1.319l11.666,5.831
			c0.486,0.242,1.077,0.045,1.318-0.438l2.544-5.088c2.417,0.718,4.894,1.224,7.399,1.514l0.341,5.677
			c0.033,0.542,0.499,0.954,1.04,0.923l13.017-0.783c0.543-0.031,0.956-0.498,0.924-1.039l-0.341-5.665
			c2.428-0.579,4.826-1.376,7.167-2.395l3.13,4.739c0.07,0.107,0.159,0.194,0.259,0.264c0.32,0.224,0.757,0.245,1.103,0.016
			l10.883-7.187c0.453-0.299,0.578-0.909,0.278-1.362h-0.001l-3.129-4.74c1.857-1.754,3.532-3.646,5.019-5.651l5.076,2.538
			c0.485,0.242,1.076,0.045,1.319-0.44l5.832-11.665c0.242-0.484,0.045-1.074-0.44-1.318l-5.088-2.543
			c0.718-2.418,1.225-4.895,1.514-7.399l5.678-0.342c0.542-0.031,0.954-0.498,0.922-1.041l-0.782-13.017
			c-0.033-0.542-0.499-0.955-1.041-0.922l-5.665,0.34c-0.58-2.429-1.377-4.827-2.396-7.169l4.74-3.13
			c0.453-0.3,0.578-0.909,0.279-1.362l-7.187-10.883C227.166,153.155,226.555,153.031,226.103,153.331z"/>
		<circle fill="#FFCD4D" cx="189.947" cy="186.197" r="33.494"/>
		<path fill="#FFCD4D" d="M217.505,167.181c-10.323-14.97-30.77-18.999-46.015-8.933c-15.245,10.066-19.57,30.452-9.856,45.825
			L217.505,167.181z"/>
		<circle fill="#FFCD4D" cx="189.947" cy="186.197" r="12.58"/>
	</g>
	<g>
		<circle fill="#FFCD4D" cx="616.756" cy="91.017" r="55.783"/>
		<g>
			
				<circle fill="none" stroke="#676767" stroke-width="1.0949" stroke-miterlimit="10" stroke-dasharray="3,5" cx="790.979" cy="115.622" r="44.952"/>
			<path fill="#405158" d="M760.601,52.355l-6.225-4.565l0.321,7.714c0.119,2.837-2.828,4.776-5.387,3.546l-6.959-3.342l1.734,7.523
				c0.639,2.766-1.902,5.214-4.643,4.478l-7.455-2.008l3.087,7.075c1.135,2.603-0.911,5.476-3.741,5.254l-7.696-0.604l4.335,6.388
				c1.594,2.351,0.109,5.551-2.713,5.854l-7.678,0.82l5.435,5.483c2,2.017,1.13,5.436-1.589,6.25l-7.396,2.218l6.35,4.393
				c2.336,1.614,2.107,5.135-0.416,6.436l-6.862,3.538l7.049,3.15c2.593,1.157,3.017,4.662,0.774,6.404l-6.095,4.74l7.507,1.798
				c2.762,0.664,3.822,4.028,1.939,6.153l-5.121,5.778l7.71,0.391c2.837,0.143,4.497,3.257,3.036,5.691l-3.971,6.621l7.65-1.032
				c2.813-0.381,5.019,2.374,4.03,5.036l-2.688,7.237l7.332-2.421c2.695-0.89,5.367,1.413,4.886,4.211l-1.312,7.609l6.761-3.728
				c2.487-1.372,5.538,0.4,5.577,3.24l0.11,7.72l5.96-4.905c2.193-1.805,5.517-0.623,6.079,2.16l1.524,7.568l4.957-5.917
				c1.826-2.176,5.311-1.626,6.371,1.007l2.893,7.159l3.786-6.729c1.392-2.474,4.919-2.573,6.446-0.179l4.157,6.504l2.485-7.31
				c0.914-2.688,4.364-3.433,6.306-1.36l5.282,5.63l1.1-7.641c0.404-2.811,3.658-4.177,5.947-2.498l6.227,4.565l-0.323-7.714
				c-0.118-2.837,2.828-4.777,5.388-3.548l6.958,3.344l-1.734-7.523c-0.638-2.766,1.903-5.216,4.645-4.477l7.454,2.009l-3.088-7.078
				c-1.136-2.601,0.911-5.476,3.742-5.253l7.697,0.604l-4.335-6.388c-1.595-2.351-0.11-5.552,2.713-5.853l7.676-0.822l-5.434-5.483
				c-1.999-2.016-1.13-5.434,1.59-6.25l7.396-2.217l-6.351-4.392c-2.335-1.614-2.108-5.136,0.415-6.438l6.862-3.538l-7.047-3.15
				c-2.594-1.158-3.018-4.66-0.774-6.403l6.093-4.739l-7.508-1.801c-2.76-0.661-3.819-4.027-1.938-6.152l5.12-5.777l-7.71-0.391
				c-2.837-0.144-4.496-3.256-3.036-5.691l3.973-6.621l-7.652,1.032c-2.813,0.38-5.018-2.375-4.03-5.037l2.688-7.238l-7.332,2.422
				c-2.695,0.889-5.368-1.414-4.887-4.21l1.313-7.609l-6.762,3.728c-2.486,1.371-5.537-0.402-5.578-3.242l-0.107-7.719l-5.961,4.906
				c-2.193,1.804-5.518,0.622-6.078-2.163l-1.526-7.567l-4.959,5.917c-1.822,2.176-5.307,1.625-6.37-1.008l-2.89-7.159l-3.788,6.728
				c-1.393,2.475-4.919,2.574-6.446,0.182l-4.157-6.506l-2.486,7.309c-0.914,2.688-4.361,3.434-6.305,1.363l-5.28-5.632
				l-1.101,7.641C766.146,52.668,762.89,54.035,760.601,52.355z M836.866,101.854c8.158,25.281-5.722,52.392-31.006,60.552
				c-25.281,8.158-52.392-5.722-60.551-31.004c-8.159-25.283,5.722-52.392,31.004-60.553
				C801.597,62.689,828.706,76.571,836.866,101.854z"/>
		</g>
		<g>
			<path fill="none" stroke="#405158" stroke-width="3" stroke-miterlimit="10" d="M579.887,146.782l3.976-4.608
				c0.862,0.574,1.743,1.13,2.643,1.667c1.008,0.6,2.027,1.163,3.055,1.698l-2.168,5.715c-0.193,0.505,0.062,1.073,0.567,1.266
				l11.725,4.449c0.508,0.192,1.077-0.063,1.27-0.569l2.178-5.741c2.15,0.526,4.315,0.929,6.486,1.214l-0.083,6.16
				c-0.009,0.543,0.425,0.987,0.968,0.996l12.538,0.171c0.543,0.009,0.991-0.427,0.997-0.97l0.086-6.21
				c2.182-0.241,4.347-0.6,6.486-1.072l2.05,5.882c0.179,0.514,0.739,0.784,1.251,0.604l11.842-4.127
				c0.513-0.179,0.783-0.739,0.605-1.252l-2.06-5.903c1.96-0.963,3.872-2.032,5.728-3.208l3.954,4.847
				c0.344,0.422,0.962,0.484,1.382,0.142l9.716-7.929c0.42-0.344,0.484-0.964,0.14-1.384l-3.962-4.857
				c1.5-1.565,2.925-3.226,4.271-4.974l5.396,3.215c0.467,0.277,1.069,0.125,1.348-0.341l6.417-10.775
				c0.278-0.466,0.126-1.069-0.341-1.347l-5.397-3.216c0.896-2.015,1.678-4.059,2.339-6.123l6.156,1.171
				c0.533,0.102,1.048-0.248,1.149-0.781l2.345-12.319c0.103-0.533-0.248-1.047-0.78-1.149l-6.146-1.169
				c0.151-2.19,0.182-4.38,0.093-6.561l6.17-1.001c0.536-0.087,0.9-0.593,0.813-1.128l-2.009-12.378
				c-0.087-0.536-0.591-0.899-1.128-0.812l-6.148,0.998c-0.602-2.106-1.318-4.181-2.146-6.214l5.419-3.032
				c0.473-0.265,0.644-0.864,0.378-1.337l-6.122-10.944c-0.265-0.474-0.864-0.644-1.337-0.377l-5.375,3.006
				c-1.284-1.773-2.67-3.485-4.157-5.126l4.009-4.647c0.354-0.411,0.31-1.032-0.103-1.386l-9.496-8.19
				c-0.411-0.355-1.031-0.31-1.386,0.103l-3.989,4.625c-0.961-0.648-1.94-1.276-2.949-1.875c-0.898-0.537-1.808-1.046-2.725-1.531
				l2.159-5.689c0.192-0.507-0.063-1.075-0.57-1.268l-11.724-4.448c-0.509-0.193-1.075,0.062-1.268,0.57l-2.139,5.638
				c-2.162-0.544-4.339-0.967-6.523-1.265l0.082-6.006c0.006-0.543-0.427-0.989-0.97-0.997l-12.54-0.17
				c-0.542-0.008-0.988,0.426-0.994,0.969l-0.082,5.979c-2.212,0.232-4.405,0.588-6.574,1.059l-1.965-5.638
				c-0.18-0.513-0.741-0.783-1.254-0.604l-11.84,4.128c-0.514,0.178-0.784,0.738-0.604,1.251l1.953,5.605
				c-1.997,0.971-3.946,2.05-5.836,3.242l-3.74-4.583c-0.344-0.42-0.963-0.482-1.384-0.139l-9.715,7.929
				c-0.421,0.343-0.484,0.962-0.14,1.383l3.731,4.571c-1.533,1.592-2.988,3.281-4.36,5.065l-5.076-3.024
				c-0.467-0.278-1.07-0.125-1.349,0.342l-6.416,10.774c-0.278,0.466-0.126,1.069,0.341,1.347l5.076,3.024
				c-0.914,2.056-1.707,4.14-2.376,6.247l-5.798-1.104c-0.533-0.103-1.049,0.248-1.149,0.781l-2.346,12.319
				c-0.103,0.533,0.248,1.048,0.781,1.149l5.814,1.107c-0.147,2.229-0.17,4.458-0.072,6.676l-5.86,0.951
				c-0.536,0.086-0.899,0.591-0.813,1.126l2.008,12.378c0.087,0.536,0.593,0.9,1.128,0.813l5.897-0.957
				c0.618,2.132,1.35,4.231,2.199,6.286l-5.22,2.92c-0.475,0.264-0.644,0.862-0.38,1.335l6.122,10.945
				c0.266,0.474,0.863,0.644,1.338,0.379l5.245-2.935c1.303,1.779,2.711,3.491,4.218,5.132l-3.94,4.569
				c-0.354,0.409-0.309,1.031,0.104,1.384l9.494,8.192C578.91,147.238,579.532,147.193,579.887,146.782z M570.539,63.77
				c15.457-25.951,49.023-34.458,74.975-19c25.951,15.458,34.457,49.024,19.001,74.975c-15.457,25.951-49.024,34.458-74.975,19
				C563.589,123.288,555.081,89.721,570.539,63.77z"/>
		</g>
		<g>
			<path fill="none" stroke="#405158" stroke-width="3" stroke-miterlimit="10" d="M949.261,27.755l-4.741,3.13
				c-1.753-1.856-3.646-3.532-5.651-5.018l2.538-5.077c0.242-0.486,0.046-1.076-0.439-1.319l-11.666-5.832
				c-0.484-0.242-1.075-0.045-1.318,0.44l-2.543,5.088c-2.417-0.718-4.894-1.225-7.398-1.514l-0.342-5.678
				c-0.032-0.542-0.499-0.955-1.041-0.922l-13.017,0.782c-0.542,0.032-0.956,0.499-0.923,1.039l0.34,5.666
				c-2.428,0.58-4.826,1.377-7.167,2.396l-3.131-4.741l0,0c-0.299-0.454-0.91-0.578-1.363-0.279l-10.883,7.187
				c-0.34,0.225-0.494,0.624-0.424,1.001c0.004,0.012,0.009,0.023,0.011,0.037c0.011,0.049,0.024,0.099,0.045,0.148
				c0.008,0.021,0.021,0.041,0.029,0.06c0.021,0.04,0.037,0.079,0.061,0.116l3.132,4.74c-1.857,1.753-3.532,3.646-5.019,5.652
				l-5.076-2.538c-0.485-0.242-1.075-0.046-1.317,0.44l-5.833,11.665c-0.242,0.485-0.045,1.076,0.44,1.319l5.087,2.543
				c-0.719,2.417-1.225,4.893-1.514,7.398l-5.678,0.342c-0.542,0.032-0.954,0.499-0.922,1.039l0.782,13.019
				c0.032,0.542,0.498,0.955,1.04,0.923l5.665-0.341c0.578,2.429,1.375,4.827,2.395,7.168l-4.74,3.13
				c-0.452,0.299-0.577,0.909-0.278,1.362l7.187,10.883c0.3,0.453,0.909,0.578,1.361,0.279l4.74-3.13
				c1.753,1.857,3.646,3.532,5.652,5.019l-2.539,5.076c-0.242,0.484-0.045,1.076,0.44,1.318l11.666,5.832
				c0.485,0.243,1.075,0.046,1.317-0.439l2.544-5.088c2.417,0.718,4.894,1.225,7.398,1.514l0.342,5.678
				c0.032,0.541,0.499,0.954,1.04,0.922l13.018-0.783c0.542-0.032,0.955-0.499,0.924-1.04l-0.342-5.665
				c2.429-0.579,4.826-1.376,7.168-2.395l3.13,4.739c0.07,0.107,0.16,0.193,0.259,0.263c0.321,0.224,0.758,0.245,1.104,0.016
				l10.884-7.187c0.453-0.299,0.577-0.909,0.279-1.362h-0.002l-3.13-4.74c1.857-1.753,3.532-3.646,5.019-5.652l5.076,2.538
				c0.485,0.243,1.077,0.046,1.319-0.44l5.832-11.666c0.242-0.485,0.045-1.075-0.439-1.319l-5.089-2.542
				c0.718-2.418,1.225-4.895,1.514-7.4l5.678-0.341c0.542-0.032,0.956-0.498,0.922-1.041l-0.782-13.018
				c-0.032-0.542-0.497-0.955-1.038-0.922l-5.666,0.34c-0.58-2.428-1.376-4.827-2.396-7.168l4.74-3.131
				c0.453-0.299,0.578-0.909,0.279-1.362l-7.187-10.882C950.324,27.581,949.713,27.456,949.261,27.755z"/>
			<circle fill="#FFCD4D" cx="913.105" cy="60.622" r="33.493"/>
			<path fill="#FFCD4D" d="M940.663,41.605c-10.322-14.971-30.77-18.999-46.015-8.933c-15.244,10.067-19.57,30.453-9.855,45.826
				L940.663,41.605z"/>
			<circle fill="#FFCD4D" cx="913.104" cy="60.622" r="12.581"/>
		</g>
	</g>
	<g>
		<path fill="#405158" d="M82.96,70.541c0-0.425,0.336-0.761,0.761-0.761h1.938c2.175,0,3.678,1.493,3.678,3.441v0.02
			c0,1.948-1.503,3.46-3.678,3.46h-1.938c-0.425,0-0.761-0.336-0.761-0.761V70.541z M85.659,75.326c1.246,0,2.086-0.84,2.086-2.066
			v-0.02c0-1.227-0.84-2.086-2.086-2.086h-1.177v4.172H85.659z"/>
		<path fill="#405158" d="M90.22,75.178v-0.02c0-1.157,0.88-1.691,2.136-1.691c0.534,0,0.919,0.089,1.295,0.218v-0.089
			c0-0.623-0.386-0.969-1.137-0.969c-0.416,0-0.751,0.06-1.038,0.148c-0.089,0.029-0.148,0.04-0.218,0.04
			c-0.346,0-0.623-0.267-0.623-0.613c0-0.267,0.168-0.494,0.405-0.583c0.475-0.178,0.989-0.276,1.69-0.276
			c0.821,0,1.414,0.217,1.79,0.593c0.396,0.396,0.573,0.979,0.573,1.691v2.413c0,0.405-0.326,0.722-0.731,0.722
			c-0.435,0-0.722-0.306-0.722-0.623v-0.01c-0.366,0.406-0.87,0.673-1.602,0.673C91.041,76.8,90.22,76.226,90.22,75.178z
			 M93.671,74.832v-0.267c-0.257-0.119-0.593-0.198-0.959-0.198c-0.643,0-1.038,0.257-1.038,0.731v0.02
			c0,0.405,0.336,0.643,0.82,0.643C93.196,75.761,93.671,75.376,93.671,74.832z"/>
		<path fill="#405158" d="M96.59,75.198v-2.511h-0.049c-0.356,0-0.643-0.287-0.643-0.643s0.287-0.643,0.643-0.643h0.049v-0.663
			c0-0.415,0.336-0.751,0.751-0.751c0.416,0,0.751,0.336,0.751,0.751v0.663h0.663c0.356,0,0.643,0.287,0.643,0.643
			s-0.287,0.643-0.643,0.643h-0.663v2.264c0,0.346,0.148,0.514,0.484,0.514c0.05,0,0.148-0.01,0.178-0.01
			c0.336,0,0.623,0.276,0.623,0.623c0,0.267-0.178,0.485-0.386,0.564c-0.277,0.108-0.534,0.148-0.86,0.148
			C97.213,76.79,96.59,76.424,96.59,75.198z"/>
		<path fill="#405158" d="M100.131,75.178v-0.02c0-1.157,0.88-1.691,2.136-1.691c0.534,0,0.919,0.089,1.295,0.218v-0.089
			c0-0.623-0.386-0.969-1.137-0.969c-0.416,0-0.751,0.06-1.038,0.148c-0.089,0.029-0.148,0.04-0.218,0.04
			c-0.346,0-0.623-0.267-0.623-0.613c0-0.267,0.168-0.494,0.405-0.583c0.475-0.178,0.989-0.276,1.69-0.276
			c0.821,0,1.414,0.217,1.79,0.593c0.396,0.396,0.573,0.979,0.573,1.691v2.413c0,0.405-0.326,0.722-0.731,0.722
			c-0.435,0-0.722-0.306-0.722-0.623v-0.01c-0.366,0.406-0.87,0.673-1.602,0.673C100.952,76.8,100.131,76.226,100.131,75.178z
			 M103.582,74.832v-0.267c-0.257-0.119-0.593-0.198-0.959-0.198c-0.643,0-1.038,0.257-1.038,0.731v0.02
			c0,0.405,0.336,0.643,0.82,0.643C103.107,75.761,103.582,75.376,103.582,74.832z"/>
		<path fill="#405158" d="M109.429,75.939v-5.399c0-0.425,0.336-0.761,0.761-0.761h3.836c0.376,0,0.683,0.307,0.683,0.682
			c0,0.376-0.307,0.672-0.683,0.672h-3.085v1.404h2.64c0.375,0,0.682,0.307,0.682,0.682s-0.307,0.672-0.682,0.672h-2.64v1.454h3.135
			c0.375,0,0.682,0.306,0.682,0.682s-0.307,0.672-0.682,0.672h-3.886C109.765,76.701,109.429,76.364,109.429,75.939z"/>
		<path fill="#405158" d="M115.897,72.093c0-0.415,0.336-0.751,0.751-0.751s0.751,0.336,0.751,0.751v0.06
			c0.346-0.445,0.791-0.851,1.552-0.851c1.137,0,1.8,0.752,1.8,1.968v2.739c0,0.415-0.336,0.751-0.751,0.751
			c-0.416,0-0.751-0.336-0.751-0.751v-2.265c0-0.712-0.336-1.078-0.91-1.078c-0.574,0-0.939,0.366-0.939,1.078v2.265
			c0,0.415-0.336,0.751-0.751,0.751s-0.751-0.336-0.751-0.751V72.093z"/>
		<path fill="#405158" d="M122.495,77.937c-0.257-0.099-0.425-0.307-0.425-0.583c0-0.336,0.277-0.613,0.613-0.613
			c0.099,0,0.178,0.02,0.247,0.049c0.435,0.198,0.9,0.316,1.463,0.316c1.028,0,1.513-0.494,1.513-1.443v-0.257
			c-0.445,0.534-0.929,0.86-1.73,0.86c-1.236,0-2.354-0.9-2.354-2.472v-0.02c0-1.582,1.137-2.472,2.354-2.472
			c0.82,0,1.305,0.346,1.71,0.791v-0.01c0-0.405,0.336-0.741,0.751-0.741c0.415,0,0.751,0.336,0.751,0.751v3.412
			c0,0.949-0.228,1.641-0.672,2.086c-0.495,0.494-1.256,0.712-2.284,0.712C123.73,78.303,123.118,78.184,122.495,77.937z
			 M125.906,73.794v-0.02c0-0.722-0.563-1.226-1.295-1.226c-0.731,0-1.285,0.504-1.285,1.226v0.02c0,0.731,0.554,1.226,1.285,1.226
			C125.342,75.02,125.906,74.516,125.906,73.794z"/>
		<path fill="#405158" d="M128.716,70.135c0-0.435,0.366-0.702,0.841-0.702s0.84,0.267,0.84,0.702v0.02
			c0,0.435-0.366,0.712-0.84,0.712s-0.841-0.277-0.841-0.712V70.135z M128.805,72.093c0-0.415,0.336-0.751,0.751-0.751
			c0.415,0,0.751,0.336,0.751,0.751v3.916c0,0.415-0.336,0.751-0.751,0.751c-0.416,0-0.751-0.336-0.751-0.751V72.093z"/>
		<path fill="#405158" d="M131.723,72.093c0-0.415,0.336-0.751,0.751-0.751s0.751,0.336,0.751,0.751v0.06
			c0.346-0.445,0.791-0.851,1.552-0.851c1.137,0,1.8,0.752,1.8,1.968v2.739c0,0.415-0.336,0.751-0.751,0.751
			c-0.416,0-0.751-0.336-0.751-0.751v-2.265c0-0.712-0.336-1.078-0.91-1.078c-0.574,0-0.939,0.366-0.939,1.078v2.265
			c0,0.415-0.336,0.751-0.751,0.751s-0.751-0.336-0.751-0.751V72.093z"/>
		<path fill="#405158" d="M140.396,76.819c-1.592,0-2.769-1.117-2.769-2.739v-0.02c0-1.513,1.078-2.759,2.62-2.759
			c1.77,0,2.551,1.454,2.551,2.551c0,0.435-0.307,0.722-0.702,0.722h-2.976c0.148,0.682,0.623,1.039,1.295,1.039
			c0.415,0,0.761-0.129,1.068-0.356c0.109-0.079,0.208-0.118,0.366-0.118c0.336,0,0.583,0.257,0.583,0.593
			c0,0.198-0.089,0.346-0.198,0.445C141.771,76.572,141.167,76.819,140.396,76.819z M141.365,73.636
			c-0.089-0.673-0.484-1.127-1.117-1.127c-0.623,0-1.028,0.445-1.147,1.127H141.365z"/>
		<path fill="#405158" d="M146.459,76.819c-1.592,0-2.769-1.117-2.769-2.739v-0.02c0-1.513,1.078-2.759,2.621-2.759
			c1.77,0,2.551,1.454,2.551,2.551c0,0.435-0.306,0.722-0.702,0.722h-2.977c0.148,0.682,0.623,1.039,1.295,1.039
			c0.416,0,0.761-0.129,1.068-0.356c0.109-0.079,0.208-0.118,0.366-0.118c0.336,0,0.583,0.257,0.583,0.593
			c0,0.198-0.089,0.346-0.198,0.445C147.833,76.572,147.23,76.819,146.459,76.819z M147.428,73.636
			c-0.089-0.673-0.484-1.127-1.117-1.127c-0.623,0-1.028,0.445-1.147,1.127H147.428z"/>
		<path fill="#405158" d="M150.011,72.093c0-0.415,0.336-0.751,0.751-0.751s0.751,0.336,0.751,0.751v0.237
			c0.218-0.514,0.573-0.988,1.019-0.988c0.465,0,0.731,0.306,0.731,0.731c0,0.396-0.257,0.633-0.563,0.702
			c-0.761,0.178-1.187,0.761-1.187,1.829v1.404c0,0.415-0.336,0.751-0.751,0.751s-0.751-0.336-0.751-0.751V72.093z"/>
		<path fill="#405158" d="M154.125,70.135c0-0.435,0.366-0.702,0.841-0.702s0.84,0.267,0.84,0.702v0.02
			c0,0.435-0.366,0.712-0.84,0.712s-0.841-0.277-0.841-0.712V70.135z M154.214,72.093c0-0.415,0.336-0.751,0.751-0.751
			c0.415,0,0.751,0.336,0.751,0.751v3.916c0,0.415-0.336,0.751-0.751,0.751c-0.416,0-0.751-0.336-0.751-0.751V72.093z"/>
		<path fill="#405158" d="M157.132,72.093c0-0.415,0.336-0.751,0.751-0.751s0.751,0.336,0.751,0.751v0.06
			c0.346-0.445,0.791-0.851,1.552-0.851c1.137,0,1.8,0.752,1.8,1.968v2.739c0,0.415-0.336,0.751-0.751,0.751
			c-0.416,0-0.751-0.336-0.751-0.751v-2.265c0-0.712-0.336-1.078-0.91-1.078c-0.574,0-0.939,0.366-0.939,1.078v2.265
			c0,0.415-0.336,0.751-0.751,0.751s-0.751-0.336-0.751-0.751V72.093z"/>
		<path fill="#405158" d="M163.729,77.937c-0.257-0.099-0.425-0.307-0.425-0.583c0-0.336,0.277-0.613,0.613-0.613
			c0.099,0,0.178,0.02,0.247,0.049c0.435,0.198,0.9,0.316,1.463,0.316c1.028,0,1.513-0.494,1.513-1.443v-0.257
			c-0.445,0.534-0.929,0.86-1.73,0.86c-1.236,0-2.354-0.9-2.354-2.472v-0.02c0-1.582,1.137-2.472,2.354-2.472
			c0.82,0,1.305,0.346,1.71,0.791v-0.01c0-0.405,0.336-0.741,0.751-0.741c0.415,0,0.751,0.336,0.751,0.751v3.412
			c0,0.949-0.228,1.641-0.672,2.086c-0.495,0.494-1.256,0.712-2.284,0.712C164.965,78.303,164.352,78.184,163.729,77.937z
			 M167.14,73.794v-0.02c0-0.722-0.563-1.226-1.295-1.226c-0.731,0-1.285,0.504-1.285,1.226v0.02c0,0.731,0.554,1.226,1.285,1.226
			C166.577,75.02,167.14,74.516,167.14,73.794z"/>
	</g>
	<g>
		<path fill="#405158" d="M173.008,185.523c0-0.425,0.336-0.761,0.761-0.761h1.938c2.175,0,3.678,1.492,3.678,3.44v0.02
			c0,1.948-1.503,3.461-3.678,3.461h-1.938c-0.425,0-0.761-0.336-0.761-0.762V185.523z M175.707,190.31
			c1.246,0,2.086-0.841,2.086-2.066v-0.021c0-1.226-0.84-2.086-2.086-2.086h-1.177v4.173H175.707z"/>
		<path fill="#405158" d="M183.096,191.802c-1.592,0-2.769-1.117-2.769-2.738v-0.02c0-1.514,1.078-2.759,2.621-2.759
			c1.77,0,2.551,1.453,2.551,2.551c0,0.435-0.306,0.722-0.702,0.722h-2.977c0.148,0.683,0.623,1.038,1.295,1.038
			c0.416,0,0.761-0.128,1.068-0.355c0.109-0.079,0.208-0.119,0.366-0.119c0.336,0,0.583,0.257,0.583,0.594
			c0,0.197-0.089,0.346-0.198,0.444C184.47,191.555,183.867,191.802,183.096,191.802z M184.065,188.618
			c-0.089-0.672-0.484-1.127-1.117-1.127c-0.623,0-1.028,0.445-1.147,1.127H184.065z"/>
		<path fill="#405158" d="M188.724,191.792h-0.079c-0.405,0-0.682-0.257-0.85-0.652l-1.622-3.747
			c-0.04-0.099-0.079-0.228-0.079-0.366c0-0.355,0.326-0.702,0.731-0.702c0.406,0,0.623,0.228,0.732,0.534l1.137,3.075l1.157-3.095
			c0.099-0.258,0.307-0.515,0.702-0.515s0.722,0.307,0.722,0.712c0,0.129-0.049,0.287-0.079,0.356l-1.622,3.747
			C189.406,191.525,189.129,191.792,188.724,191.792z"/>
		<path fill="#405158" d="M192.117,188.243v-0.021c0-1.968,1.553-3.579,3.688-3.579s3.668,1.592,3.668,3.56v0.02
			c0,1.968-1.552,3.579-3.688,3.579S192.117,190.21,192.117,188.243z M197.882,188.243v-0.021c0-1.187-0.87-2.175-2.096-2.175
			s-2.077,0.969-2.077,2.155v0.02c0,1.187,0.87,2.176,2.097,2.176C197.031,190.398,197.882,189.429,197.882,188.243z"/>
		<path fill="#405158" d="M200.673,187.076c0-0.415,0.336-0.752,0.751-0.752s0.751,0.337,0.751,0.752v0.069
			c0.366-0.495,0.87-0.86,1.651-0.86c1.236,0,2.413,0.969,2.413,2.738v0.021c0,1.77-1.157,2.738-2.413,2.738
			c-0.801,0-1.295-0.365-1.651-0.791v1.582c0,0.416-0.336,0.752-0.751,0.752s-0.751-0.336-0.751-0.752V187.076z M204.737,189.044
			v-0.021c0-0.88-0.593-1.463-1.295-1.463s-1.285,0.583-1.285,1.463v0.021c0,0.88,0.583,1.463,1.285,1.463
			S204.737,189.934,204.737,189.044z"/>
		<path fill="#405158" d="M207.211,191.18c-0.158-0.1-0.287-0.277-0.287-0.515c0-0.336,0.257-0.593,0.593-0.593
			c0.109,0,0.218,0.029,0.297,0.079c0.504,0.316,1.008,0.475,1.434,0.475c0.435,0,0.633-0.158,0.633-0.396v-0.021
			c0-0.326-0.514-0.435-1.098-0.612c-0.742-0.218-1.582-0.563-1.582-1.593v-0.02c0-1.077,0.87-1.681,1.938-1.681
			c0.554,0,1.127,0.148,1.642,0.405c0.217,0.109,0.356,0.307,0.356,0.563c0,0.337-0.267,0.594-0.603,0.594
			c-0.109,0-0.178-0.021-0.277-0.069c-0.425-0.208-0.83-0.336-1.146-0.336c-0.366,0-0.554,0.158-0.554,0.365v0.02
			c0,0.297,0.504,0.436,1.078,0.633c0.742,0.248,1.602,0.604,1.602,1.572v0.021c0,1.177-0.88,1.71-2.027,1.71
			C208.556,191.782,207.854,191.595,207.211,191.18z"/>
	</g>
	<g>
		<path fill="#405158" d="M586.286,89.609c0-0.425,0.337-0.761,0.762-0.761s0.762,0.336,0.762,0.761v5.517
			c0,0.425-0.337,0.762-0.762,0.762s-0.762-0.336-0.762-0.762V89.609z"/>
		<path fill="#405158" d="M589.383,91.221c0-0.416,0.336-0.752,0.751-0.752s0.751,0.336,0.751,0.752v0.059
			c0.347-0.445,0.791-0.85,1.553-0.85c1.137,0,1.8,0.751,1.8,1.967v2.739c0,0.416-0.336,0.752-0.752,0.752
			c-0.415,0-0.751-0.336-0.751-0.752v-2.264c0-0.712-0.336-1.078-0.91-1.078c-0.573,0-0.939,0.366-0.939,1.078v2.264
			c0,0.416-0.336,0.752-0.751,0.752s-0.751-0.336-0.751-0.752V91.221z"/>
		<path fill="#405158" d="M595.802,91.813h-0.06c-0.346,0-0.623-0.267-0.623-0.613s0.277-0.623,0.623-0.623h0.06v-0.336
			c0-0.583,0.148-1.009,0.425-1.286c0.277-0.277,0.683-0.415,1.217-0.415c0.236,0,0.444,0.01,0.612,0.04
			c0.257,0.04,0.515,0.267,0.515,0.603s-0.277,0.623-0.613,0.623h-0.129c-0.346,0-0.543,0.178-0.543,0.573v0.208h0.652
			c0.346,0,0.623,0.267,0.623,0.613s-0.277,0.613-0.623,0.613h-0.633v3.322c0,0.416-0.336,0.752-0.752,0.752
			c-0.415,0-0.751-0.336-0.751-0.752V91.813z"/>
		<path fill="#405158" d="M599.322,91.221c0-0.416,0.337-0.752,0.752-0.752s0.752,0.336,0.752,0.752v0.237
			c0.217-0.515,0.573-0.989,1.018-0.989c0.465,0,0.732,0.307,0.732,0.732c0,0.396-0.258,0.633-0.564,0.702
			c-0.761,0.178-1.186,0.761-1.186,1.829v1.404c0,0.416-0.337,0.752-0.752,0.752s-0.752-0.336-0.752-0.752V91.221z"/>
		<path fill="#405158" d="M602.895,94.306v-0.02c0-1.157,0.88-1.691,2.135-1.691c0.534,0,0.92,0.089,1.296,0.218v-0.089
			c0-0.623-0.386-0.969-1.138-0.969c-0.415,0-0.751,0.059-1.038,0.148c-0.089,0.03-0.147,0.04-0.217,0.04
			c-0.347,0-0.623-0.267-0.623-0.613c0-0.267,0.168-0.494,0.405-0.583c0.475-0.178,0.988-0.277,1.69-0.277
			c0.821,0,1.414,0.218,1.79,0.594c0.396,0.396,0.573,0.979,0.573,1.69v2.413c0,0.406-0.326,0.722-0.731,0.722
			c-0.436,0-0.722-0.307-0.722-0.623v-0.01c-0.366,0.405-0.87,0.672-1.603,0.672C603.715,95.927,602.895,95.354,602.895,94.306z
			 M606.345,93.959v-0.267c-0.257-0.119-0.593-0.198-0.959-0.198c-0.643,0-1.038,0.257-1.038,0.732v0.02
			c0,0.405,0.336,0.643,0.82,0.643C605.87,94.889,606.345,94.503,606.345,93.959z"/>
		<path fill="#405158" d="M608.928,95.324c-0.158-0.099-0.287-0.277-0.287-0.514c0-0.336,0.257-0.593,0.594-0.593
			c0.108,0,0.217,0.03,0.296,0.079c0.505,0.316,1.009,0.475,1.435,0.475c0.435,0,0.633-0.158,0.633-0.396v-0.02
			c0-0.327-0.515-0.435-1.098-0.613c-0.742-0.217-1.582-0.563-1.582-1.592v-0.02c0-1.078,0.87-1.681,1.938-1.681
			c0.554,0,1.127,0.148,1.642,0.405c0.218,0.109,0.355,0.307,0.355,0.563c0,0.336-0.267,0.594-0.603,0.594
			c-0.109,0-0.178-0.02-0.277-0.069c-0.425-0.208-0.83-0.336-1.146-0.336c-0.366,0-0.554,0.158-0.554,0.366v0.02
			c0,0.296,0.504,0.435,1.077,0.633c0.742,0.247,1.603,0.603,1.603,1.572v0.02c0,1.177-0.88,1.71-2.027,1.71
			C610.272,95.927,609.57,95.739,608.928,95.324z"/>
		<path fill="#405158" d="M614.181,94.325v-2.512h-0.05c-0.355,0-0.643-0.287-0.643-0.643s0.287-0.643,0.643-0.643h0.05v-0.663
			c0-0.415,0.336-0.751,0.751-0.751s0.752,0.336,0.752,0.751v0.663h0.662c0.355,0,0.643,0.287,0.643,0.643s-0.287,0.643-0.643,0.643
			h-0.662v2.265c0,0.346,0.148,0.514,0.484,0.514c0.049,0,0.148-0.01,0.178-0.01c0.336,0,0.623,0.277,0.623,0.623
			c0,0.267-0.178,0.484-0.386,0.563c-0.276,0.109-0.534,0.148-0.86,0.148C614.803,95.917,614.181,95.551,614.181,94.325z"/>
		<path fill="#405158" d="M618.037,91.221c0-0.416,0.337-0.752,0.752-0.752s0.752,0.336,0.752,0.752v0.237
			c0.217-0.515,0.573-0.989,1.018-0.989c0.465,0,0.732,0.307,0.732,0.732c0,0.396-0.258,0.633-0.564,0.702
			c-0.761,0.178-1.186,0.761-1.186,1.829v1.404c0,0.416-0.337,0.752-0.752,0.752s-0.752-0.336-0.752-0.752V91.221z"/>
		<path fill="#405158" d="M626.987,95.136c0,0.416-0.336,0.752-0.751,0.752s-0.752-0.336-0.752-0.752v-0.059
			c-0.346,0.445-0.791,0.85-1.552,0.85c-1.138,0-1.8-0.751-1.8-1.967v-2.739c0-0.416,0.336-0.752,0.752-0.752
			c0.415,0,0.751,0.336,0.751,0.752v2.264c0,0.712,0.336,1.078,0.909,1.078c0.574,0,0.939-0.366,0.939-1.078v-2.264
			c0-0.416,0.337-0.752,0.752-0.752s0.751,0.336,0.751,0.752V95.136z"/>
		<path fill="#405158" d="M628.077,93.208v-0.02c0-1.513,1.157-2.758,2.778-2.758c0.801,0,1.365,0.217,1.81,0.593
			c0.099,0.079,0.237,0.257,0.237,0.515c0,0.375-0.307,0.672-0.682,0.672c-0.198,0-0.347-0.079-0.436-0.148
			c-0.267-0.208-0.544-0.336-0.939-0.336c-0.751,0-1.285,0.663-1.285,1.444v0.02c0,0.811,0.524,1.463,1.345,1.463
			c0.396,0,0.702-0.138,0.989-0.366c0.078-0.059,0.227-0.138,0.405-0.138c0.355,0,0.633,0.287,0.633,0.643
			c0,0.198-0.089,0.356-0.218,0.475c-0.445,0.405-1.009,0.682-1.879,0.682C629.244,95.947,628.077,94.721,628.077,93.208z"/>
		<path fill="#405158" d="M634.229,94.325v-2.512h-0.05c-0.355,0-0.643-0.287-0.643-0.643s0.287-0.643,0.643-0.643h0.05v-0.663
			c0-0.415,0.336-0.751,0.751-0.751s0.752,0.336,0.752,0.751v0.663h0.662c0.355,0,0.643,0.287,0.643,0.643s-0.287,0.643-0.643,0.643
			h-0.662v2.265c0,0.346,0.148,0.514,0.484,0.514c0.049,0,0.148-0.01,0.178-0.01c0.336,0,0.623,0.277,0.623,0.623
			c0,0.267-0.178,0.484-0.386,0.563c-0.276,0.109-0.534,0.148-0.86,0.148C634.852,95.917,634.229,95.551,634.229,94.325z"/>
		<path fill="#405158" d="M642.901,95.136c0,0.416-0.336,0.752-0.751,0.752s-0.752-0.336-0.752-0.752v-0.059
			c-0.346,0.445-0.791,0.85-1.552,0.85c-1.138,0-1.8-0.751-1.8-1.967v-2.739c0-0.416,0.336-0.752,0.752-0.752
			c0.415,0,0.751,0.336,0.751,0.752v2.264c0,0.712,0.336,1.078,0.909,1.078c0.574,0,0.939-0.366,0.939-1.078v-2.264
			c0-0.416,0.337-0.752,0.752-0.752s0.751,0.336,0.751,0.752V95.136z"/>
		<path fill="#405158" d="M644.248,91.221c0-0.416,0.337-0.752,0.752-0.752s0.752,0.336,0.752,0.752v0.237
			c0.217-0.515,0.573-0.989,1.018-0.989c0.465,0,0.732,0.307,0.732,0.732c0,0.396-0.258,0.633-0.564,0.702
			c-0.761,0.178-1.186,0.761-1.186,1.829v1.404c0,0.416-0.337,0.752-0.752,0.752s-0.752-0.336-0.752-0.752V91.221z"/>
		<path fill="#405158" d="M650.746,95.947c-1.592,0-2.769-1.117-2.769-2.739v-0.02c0-1.513,1.078-2.758,2.62-2.758
			c1.771,0,2.552,1.453,2.552,2.551c0,0.435-0.307,0.722-0.702,0.722h-2.977c0.148,0.683,0.623,1.038,1.295,1.038
			c0.416,0,0.762-0.128,1.068-0.355c0.108-0.079,0.208-0.119,0.366-0.119c0.336,0,0.583,0.257,0.583,0.594
			c0,0.197-0.089,0.346-0.197,0.445C652.121,95.7,651.518,95.947,650.746,95.947z M651.715,92.763
			c-0.089-0.672-0.484-1.127-1.117-1.127c-0.623,0-1.028,0.445-1.146,1.127H651.715z"/>
	</g>
	<g>
		<path fill="#405158" d="M769.311,115.972v-5.399c0-0.425,0.336-0.761,0.761-0.761h3.837c0.375,0,0.682,0.307,0.682,0.682
			c0,0.376-0.307,0.672-0.682,0.672h-3.085v1.404h2.64c0.376,0,0.683,0.307,0.683,0.682s-0.307,0.672-0.683,0.672h-2.64v1.454h3.134
			c0.376,0,0.683,0.306,0.683,0.682s-0.307,0.672-0.683,0.672h-3.886C769.646,116.733,769.311,116.396,769.311,115.972z"/>
		<path fill="#405158" d="M775.848,110.207c0-0.415,0.337-0.751,0.752-0.751s0.751,0.336,0.751,0.751v5.834
			c0,0.415-0.336,0.751-0.751,0.751s-0.752-0.336-0.752-0.751V110.207z"/>
		<path fill="#405158" d="M778.449,115.21v-0.02c0-1.157,0.881-1.691,2.137-1.691c0.533,0,0.919,0.089,1.295,0.218v-0.089
			c0-0.623-0.386-0.969-1.137-0.969c-0.416,0-0.752,0.06-1.039,0.148c-0.089,0.029-0.148,0.04-0.217,0.04
			c-0.347,0-0.623-0.267-0.623-0.613c0-0.267,0.168-0.494,0.405-0.583c0.475-0.178,0.988-0.276,1.69-0.276
			c0.821,0,1.414,0.217,1.79,0.593c0.396,0.396,0.573,0.979,0.573,1.691v2.413c0,0.405-0.326,0.722-0.731,0.722
			c-0.436,0-0.722-0.306-0.722-0.623v-0.01c-0.366,0.406-0.87,0.673-1.602,0.673C779.271,116.832,778.449,116.258,778.449,115.21z
			 M781.9,114.864v-0.267c-0.257-0.119-0.593-0.198-0.959-0.198c-0.643,0-1.038,0.257-1.038,0.731v0.02
			c0,0.405,0.336,0.643,0.82,0.643C781.426,115.793,781.9,115.408,781.9,114.864z"/>
		<path fill="#405158" d="M784.483,116.229c-0.158-0.099-0.287-0.277-0.287-0.514c0-0.336,0.257-0.593,0.594-0.593
			c0.108,0,0.217,0.03,0.296,0.079c0.505,0.316,1.009,0.475,1.434,0.475c0.436,0,0.633-0.158,0.633-0.396v-0.02
			c0-0.326-0.514-0.435-1.097-0.613c-0.742-0.217-1.582-0.563-1.582-1.592v-0.02c0-1.078,0.87-1.681,1.938-1.681
			c0.554,0,1.127,0.148,1.642,0.405c0.218,0.109,0.355,0.307,0.355,0.564c0,0.336-0.267,0.593-0.603,0.593
			c-0.109,0-0.179-0.02-0.277-0.069c-0.425-0.208-0.83-0.336-1.146-0.336c-0.366,0-0.554,0.158-0.554,0.366v0.02
			c0,0.297,0.504,0.435,1.077,0.633c0.742,0.247,1.603,0.603,1.603,1.572v0.02c0,1.177-0.881,1.711-2.027,1.711
			C785.828,116.832,785.126,116.644,784.483,116.229z"/>
		<path fill="#405158" d="M789.736,115.23v-2.511h-0.05c-0.356,0-0.643-0.287-0.643-0.643s0.286-0.643,0.643-0.643h0.05v-0.663
			c0-0.415,0.336-0.751,0.751-0.751s0.752,0.336,0.752,0.751v0.663h0.662c0.356,0,0.643,0.287,0.643,0.643s-0.286,0.643-0.643,0.643
			h-0.662v2.264c0,0.346,0.147,0.514,0.484,0.514c0.049,0,0.148-0.01,0.178-0.01c0.336,0,0.623,0.276,0.623,0.623
			c0,0.267-0.178,0.485-0.386,0.564c-0.277,0.108-0.534,0.148-0.86,0.148C790.359,116.822,789.736,116.456,789.736,115.23z"/>
		<path fill="#405158" d="M793.573,110.167c0-0.435,0.366-0.702,0.841-0.702s0.84,0.267,0.84,0.702v0.02
			c0,0.435-0.365,0.712-0.84,0.712s-0.841-0.277-0.841-0.712V110.167z M793.662,112.125c0-0.415,0.337-0.751,0.752-0.751
			s0.751,0.336,0.751,0.751v3.916c0,0.415-0.336,0.751-0.751,0.751s-0.752-0.336-0.752-0.751V112.125z"/>
		<path fill="#405158" d="M796.323,114.113v-0.02c0-1.513,1.157-2.759,2.778-2.759c0.801,0,1.365,0.218,1.81,0.594
			c0.099,0.079,0.237,0.257,0.237,0.514c0,0.376-0.307,0.673-0.682,0.673c-0.198,0-0.347-0.079-0.436-0.148
			c-0.267-0.208-0.544-0.336-0.939-0.336c-0.751,0-1.285,0.663-1.285,1.444v0.02c0,0.811,0.524,1.463,1.345,1.463
			c0.396,0,0.702-0.138,0.989-0.366c0.078-0.06,0.227-0.139,0.405-0.139c0.355,0,0.633,0.287,0.633,0.643
			c0,0.198-0.089,0.356-0.218,0.475c-0.445,0.405-1.009,0.682-1.879,0.682C797.49,116.852,796.323,115.625,796.323,114.113z"/>
		<path fill="#405158" d="M768.875,122.65c-0.029-0.089-0.06-0.198-0.06-0.287c0-0.425,0.356-0.741,0.781-0.741
			c0.356,0,0.643,0.227,0.741,0.543l1.375,4.242l1.384-4.202c0.119-0.356,0.386-0.603,0.771-0.603h0.119
			c0.386,0,0.652,0.237,0.771,0.603l1.385,4.202l1.374-4.242c0.099-0.296,0.356-0.543,0.731-0.543c0.416,0,0.752,0.316,0.752,0.731
			c0,0.089-0.029,0.208-0.06,0.297l-1.938,5.438c-0.139,0.386-0.426,0.623-0.791,0.623h-0.158c-0.366,0-0.643-0.228-0.781-0.623
			l-1.364-3.965l-1.365,3.965c-0.138,0.396-0.415,0.623-0.781,0.623h-0.158c-0.365,0-0.652-0.237-0.791-0.623L768.875,122.65z"/>
		<path fill="#405158" d="M779.31,125.982v-0.02c0-1.522,1.227-2.758,2.878-2.758c1.641,0,2.857,1.216,2.857,2.739v0.02
			c0,1.523-1.227,2.759-2.878,2.759C780.526,128.721,779.31,127.505,779.31,125.982z M783.562,125.982v-0.02
			c0-0.781-0.563-1.463-1.395-1.463c-0.86,0-1.374,0.663-1.374,1.444v0.02c0,0.781,0.563,1.463,1.395,1.463
			C783.047,127.426,783.562,126.764,783.562,125.982z"/>
		<path fill="#405158" d="M786.135,123.995c0-0.416,0.336-0.752,0.751-0.752s0.751,0.336,0.751,0.752v0.237
			c0.218-0.515,0.574-0.989,1.019-0.989c0.465,0,0.732,0.307,0.732,0.732c0,0.396-0.258,0.633-0.563,0.702
			c-0.762,0.178-1.188,0.761-1.188,1.829v1.404c0,0.416-0.336,0.752-0.751,0.752s-0.751-0.336-0.751-0.752V123.995z"/>
		<path fill="#405158" d="M790.27,122.077c0-0.416,0.336-0.751,0.751-0.751s0.751,0.336,0.751,0.751v3.283l1.879-1.78
			c0.218-0.208,0.396-0.336,0.663-0.336c0.405,0,0.662,0.327,0.662,0.673c0,0.257-0.139,0.455-0.346,0.652l-1.187,1.019l1.414,1.908
			c0.128,0.178,0.188,0.316,0.188,0.484c0,0.405-0.326,0.683-0.702,0.683c-0.297,0-0.475-0.099-0.652-0.346l-1.315-1.81
			l-0.604,0.544v0.86c0,0.416-0.336,0.752-0.751,0.752s-0.751-0.336-0.751-0.752V122.077z"/>
		<path fill="#405158" d="M796.343,124.588h-0.06c-0.346,0-0.623-0.267-0.623-0.613s0.277-0.623,0.623-0.623h0.06v-0.336
			c0-0.583,0.148-1.009,0.425-1.286c0.277-0.277,0.683-0.415,1.217-0.415c0.236,0,0.444,0.01,0.612,0.04
			c0.257,0.04,0.515,0.267,0.515,0.603s-0.277,0.623-0.613,0.623h-0.129c-0.346,0-0.543,0.178-0.543,0.573v0.208h0.652
			c0.346,0,0.623,0.267,0.623,0.613s-0.277,0.613-0.623,0.613h-0.633v3.322c0,0.416-0.336,0.752-0.752,0.752
			c-0.415,0-0.751-0.336-0.751-0.752V124.588z"/>
		<path fill="#405158" d="M799.508,125.982v-0.02c0-1.522,1.227-2.758,2.878-2.758c1.641,0,2.857,1.216,2.857,2.739v0.02
			c0,1.523-1.227,2.759-2.878,2.759C800.725,128.721,799.508,127.505,799.508,125.982z M803.76,125.982v-0.02
			c0-0.781-0.563-1.463-1.395-1.463c-0.859,0-1.374,0.663-1.374,1.444v0.02c0,0.781,0.563,1.463,1.395,1.463
			C803.246,127.426,803.76,126.764,803.76,125.982z"/>
		<path fill="#405158" d="M806.332,123.995c0-0.416,0.337-0.752,0.752-0.752s0.752,0.336,0.752,0.752v0.237
			c0.217-0.515,0.573-0.989,1.018-0.989c0.465,0,0.732,0.307,0.732,0.732c0,0.396-0.258,0.633-0.564,0.702
			c-0.761,0.178-1.186,0.761-1.186,1.829v1.404c0,0.416-0.337,0.752-0.752,0.752s-0.752-0.336-0.752-0.752V123.995z"/>
		<path fill="#405158" d="M810.062,125.982v-0.02c0-1.513,1.157-2.758,2.778-2.758c0.801,0,1.365,0.217,1.81,0.593
			c0.099,0.079,0.237,0.257,0.237,0.515c0,0.375-0.307,0.672-0.682,0.672c-0.198,0-0.347-0.079-0.436-0.148
			c-0.267-0.208-0.544-0.336-0.939-0.336c-0.751,0-1.285,0.663-1.285,1.444v0.02c0,0.811,0.524,1.463,1.345,1.463
			c0.396,0,0.702-0.138,0.989-0.366c0.078-0.059,0.227-0.138,0.405-0.138c0.355,0,0.633,0.287,0.633,0.643
			c0,0.198-0.089,0.356-0.218,0.475c-0.445,0.405-1.009,0.682-1.879,0.682C811.229,128.721,810.062,127.495,810.062,125.982z"/>
		<path fill="#405158" d="M818.329,128.721c-1.592,0-2.769-1.117-2.769-2.739v-0.02c0-1.513,1.078-2.758,2.62-2.758
			c1.771,0,2.552,1.453,2.552,2.551c0,0.435-0.307,0.722-0.702,0.722h-2.977c0.148,0.683,0.623,1.038,1.296,1.038
			c0.415,0,0.761-0.128,1.067-0.355c0.108-0.079,0.208-0.119,0.366-0.119c0.336,0,0.583,0.257,0.583,0.594
			c0,0.197-0.089,0.346-0.198,0.445C819.704,128.474,819.101,128.721,818.329,128.721z M819.299,125.537
			c-0.09-0.672-0.485-1.127-1.118-1.127c-0.622,0-1.028,0.445-1.146,1.127H819.299z"/>
	</g>
	<g>
		
			<line fill="none" stroke="#676767" stroke-width="2.1859" stroke-miterlimit="10" x1="280.224" y1="78.411" x2="308.219" y2="77.089"/>
		
			<line fill="none" stroke="#676767" stroke-width="2.1859" stroke-miterlimit="10" x1="290.002" y1="34.604" x2="314" y2="44.178"/>
	</g>
	<g>
		<circle fill="#FFCD4D" cx="263.659" cy="51.046" r="20.402"/>
		
			<circle fill="none" stroke="#676767" stroke-width="1.0949" stroke-miterlimit="10" stroke-dasharray="3,5" cx="263.658" cy="51.046" r="16.406"/>
		<path fill="none" stroke="#6AABB7" stroke-width="3" stroke-miterlimit="10" d="M292.925,42.465l-4.092,0.39
			c-0.23-0.713-0.486-1.415-0.773-2.098l3.343-2.379c0.442-0.315,0.546-0.929,0.23-1.371l-5.548-7.795
			c-0.314-0.442-0.927-0.546-1.37-0.231l-3.351,2.385c-0.554-0.498-1.128-0.973-1.722-1.422l1.71-3.74
			c0.225-0.494,0.008-1.078-0.487-1.303l-8.704-3.976c-0.492-0.226-1.075-0.008-1.3,0.485l-1.706,3.732
			c-0.726-0.153-1.462-0.271-2.206-0.364l-0.39-4.092c-0.04-0.405-0.319-0.73-0.685-0.845c-0.122-0.038-0.253-0.053-0.389-0.04
			l-9.524,0.907c-0.541,0.051-0.936,0.531-0.884,1.071l0.39,4.092c-0.713,0.231-1.415,0.486-2.099,0.775l-2.379-3.343
			c-0.315-0.442-0.929-0.545-1.371-0.231l-7.795,5.548c-0.442,0.315-0.544,0.929-0.231,1.371l2.385,3.35
			c-0.498,0.554-0.973,1.128-1.423,1.723l-3.74-1.709c-0.494-0.226-1.077-0.008-1.303,0.485l-3.977,8.703
			c-0.225,0.493-0.007,1.076,0.485,1.302l3.733,1.706c-0.155,0.726-0.271,1.462-0.365,2.207l-4.092,0.39
			c-0.54,0.051-0.936,0.532-0.885,1.071l0.908,9.525c0.051,0.54,0.531,0.937,1.07,0.885l4.093-0.39
			c0.232,0.713,0.488,1.415,0.775,2.099l-3.343,2.379c-0.442,0.315-0.546,0.929-0.231,1.371l5.548,7.795
			c0.315,0.442,0.928,0.545,1.371,0.231l3.35-2.385c0.554,0.498,1.128,0.973,1.722,1.422l-1.709,3.74
			c-0.225,0.494-0.008,1.077,0.486,1.303l8.702,3.977c0.494,0.225,1.077,0.008,1.303-0.485l1.705-3.732
			c0.726,0.154,1.462,0.271,2.207,0.364l0.39,4.093c0.051,0.54,0.53,0.936,1.07,0.885l9.527-0.907
			c0.539-0.052,0.936-0.532,0.884-1.072l-0.39-4.093c0.713-0.231,1.415-0.486,2.097-0.773l2.38,3.343
			c0.315,0.442,0.929,0.545,1.37,0.23l7.796-5.548c0.442-0.315,0.545-0.929,0.23-1.37l-2.385-3.351
			c0.499-0.553,0.973-1.128,1.423-1.721l3.74,1.709c0.493,0.226,1.078,0.008,1.303-0.486l3.976-8.702
			c0.225-0.494,0.009-1.077-0.485-1.302l-3.731-1.706c0.153-0.726,0.271-1.462,0.364-2.207l4.092-0.39
			c0.54-0.051,0.937-0.532,0.886-1.072l-0.908-9.524C293.946,42.81,293.465,42.414,292.925,42.465z"/>
		<circle fill="#6AABB7" cx="263.659" cy="51.046" r="17.563"/>
		<path fill="#FFCD4D" d="M287.595,51.046c0,13.22-10.716,23.937-23.938,23.937c-13.217,0-23.934-10.717-23.934-23.937
			s10.717-23.937,23.934-23.937C276.879,27.109,287.595,37.826,287.595,51.046z"/>
		<g>
			<path fill="#405158" d="M243.888,47.679c0-0.425,0.336-0.761,0.761-0.761h0.168c0.326,0,0.554,0.168,0.692,0.396l1.839,2.996
				l1.849-3.006c0.158-0.257,0.376-0.386,0.683-0.386h0.168c0.425,0,0.761,0.336,0.761,0.761v5.498c0,0.425-0.336,0.762-0.761,0.762
				c-0.416,0-0.751-0.346-0.751-0.762v-3.451l-1.335,2.057c-0.158,0.237-0.356,0.386-0.633,0.386s-0.475-0.148-0.633-0.386
				l-1.315-2.027v3.441c0,0.415-0.336,0.742-0.751,0.742c-0.416,0-0.742-0.327-0.742-0.742V47.679z"/>
			<path fill="#405158" d="M252.058,51.259v-0.02c0-1.522,1.227-2.758,2.877-2.758c1.642,0,2.858,1.216,2.858,2.739v0.02
				c0,1.523-1.227,2.759-2.877,2.759C253.274,53.998,252.058,52.781,252.058,51.259z M256.31,51.259v-0.02
				c0-0.781-0.563-1.463-1.394-1.463c-0.86,0-1.375,0.663-1.375,1.444v0.02c0,0.781,0.563,1.463,1.394,1.463
				C255.795,52.702,256.31,52.04,256.31,51.259z"/>
			<path fill="#405158" d="M258.882,47.353c0-0.416,0.336-0.751,0.751-0.751s0.751,0.336,0.751,0.751v1.987
				c0.366-0.494,0.87-0.86,1.651-0.86c1.236,0,2.413,0.969,2.413,2.739v0.02c0,1.77-1.157,2.739-2.413,2.739
				c-0.801,0-1.295-0.366-1.651-0.791v0.01c0,0.405-0.336,0.742-0.751,0.742s-0.751-0.336-0.751-0.752V47.353z M262.946,51.239
				v-0.02c0-0.88-0.593-1.463-1.295-1.463s-1.286,0.583-1.286,1.463v0.02c0,0.88,0.583,1.463,1.286,1.463
				S262.946,52.129,262.946,51.239z"/>
			<path fill="#405158" d="M265.539,47.313c0-0.435,0.366-0.702,0.84-0.702s0.84,0.267,0.84,0.702v0.02
				c0,0.436-0.366,0.712-0.84,0.712s-0.84-0.276-0.84-0.712V47.313z M265.628,49.271c0-0.416,0.336-0.752,0.751-0.752
				c0.415,0,0.751,0.336,0.751,0.752v3.915c0,0.416-0.336,0.752-0.751,0.752c-0.416,0-0.751-0.336-0.751-0.752V49.271z"/>
			<path fill="#405158" d="M268.615,47.353c0-0.416,0.336-0.751,0.751-0.751c0.415,0,0.751,0.336,0.751,0.751v5.833
				c0,0.416-0.336,0.752-0.751,0.752c-0.416,0-0.751-0.336-0.751-0.752V47.353z"/>
			<path fill="#405158" d="M271.513,47.313c0-0.435,0.366-0.702,0.84-0.702s0.84,0.267,0.84,0.702v0.02
				c0,0.436-0.366,0.712-0.84,0.712s-0.84-0.276-0.84-0.712V47.313z M271.602,49.271c0-0.416,0.336-0.752,0.751-0.752
				c0.415,0,0.751,0.336,0.751,0.752v3.915c0,0.416-0.336,0.752-0.751,0.752c-0.416,0-0.751-0.336-0.751-0.752V49.271z"/>
			<path fill="#405158" d="M274.766,52.376v-2.512h-0.049c-0.356,0-0.643-0.287-0.643-0.643s0.287-0.643,0.643-0.643h0.049v-0.663
				c0-0.415,0.336-0.751,0.751-0.751c0.416,0,0.751,0.336,0.751,0.751v0.663h0.663c0.356,0,0.643,0.287,0.643,0.643
				s-0.287,0.643-0.643,0.643h-0.663v2.265c0,0.346,0.148,0.514,0.485,0.514c0.049,0,0.148-0.01,0.178-0.01
				c0.336,0,0.623,0.277,0.623,0.623c0,0.267-0.178,0.484-0.386,0.563c-0.277,0.109-0.534,0.148-0.86,0.148
				C275.389,53.968,274.766,53.602,274.766,52.376z"/>
			<path fill="#405158" d="M278.901,55.352c-0.217-0.079-0.475-0.257-0.475-0.623c0-0.366,0.287-0.613,0.593-0.613
				c0.119,0,0.188,0.02,0.247,0.04c0.129,0.04,0.208,0.059,0.316,0.059c0.267,0,0.396-0.049,0.534-0.316l0.049-0.118l-1.81-4.192
				c-0.04-0.099-0.079-0.248-0.079-0.346c0-0.425,0.327-0.722,0.742-0.722c0.376,0,0.593,0.208,0.722,0.564l1.147,3.085l1.107-3.075
				c0.119-0.316,0.336-0.574,0.722-0.574c0.385,0,0.712,0.297,0.712,0.692c0,0.119-0.04,0.287-0.069,0.356l-1.849,4.439
				c-0.445,1.078-0.89,1.483-1.79,1.483C279.385,55.491,279.148,55.441,278.901,55.352z"/>
		</g>
	</g>
	<g>
		
			<line fill="none" stroke="#676767" stroke-width="2.1859" stroke-miterlimit="10" x1="376.186" y1="42.93" x2="400.615" y2="34.122"/>
		
			<line fill="none" stroke="#676767" stroke-width="2.1859" stroke-miterlimit="10" x1="375.394" y1="80.739" x2="395.958" y2="87.243"/>
	</g>
	<g>
		<g>
			<path fill="none" d="M444.676,29.135l0.121-1.676c-4.01-0.112-8.109,0.43-12.151,1.703c-4.413,1.39-8.377,3.532-11.805,6.236
				l1.102,1.275C428.391,31.618,436.45,28.927,444.676,29.135z"/>
			<path fill="none" d="M411.722,49.573c1.932-4.16,4.578-7.758,7.713-10.735l-1.1-1.274c-6.277,5.945-10.308,13.95-11.328,22.553
				l1.678,0.122C409.119,56.638,410.11,53.042,411.722,49.573z"/>
			<path fill="none" d="M408.444,63.544l-1.676-0.123c-0.113,4.011,0.428,8.108,1.703,12.151c1.39,4.412,3.531,8.378,6.235,11.805
				l1.275-1.102C410.926,79.829,408.236,71.77,408.444,63.544z"/>
			<path fill="none" d="M479.083,65.367l1.677,0.122c0.112-4.011-0.43-8.108-1.703-12.151c-1.39-4.411-3.531-8.377-6.237-11.805
				l-1.275,1.102C476.601,49.082,479.292,57.141,479.083,65.367z"/>
			<path fill="none" d="M458.646,32.414c4.16,1.932,7.759,4.578,10.736,7.714l1.274-1.101c-5.945-6.277-13.95-10.307-22.554-11.328
				l-0.121,1.679C451.582,29.811,455.178,30.803,458.646,32.414z"/>
			<path fill="none" d="M442.852,99.776l-0.122,1.676c4.011,0.112,8.109-0.429,12.151-1.703c4.412-1.39,8.377-3.531,11.805-6.236
				l-1.102-1.275C459.137,97.292,451.079,99.984,442.852,99.776z"/>
			<path fill="none" d="M478.841,68.672c-0.433,3.602-1.424,7.197-3.036,10.666c-1.932,4.16-4.578,7.759-7.713,10.735l1.1,1.274
				c6.276-5.944,10.307-13.95,11.328-22.552L478.841,68.672z"/>
			<path fill="none" d="M428.881,96.497c-4.16-1.932-7.758-4.577-10.735-7.714l-1.273,1.101c5.944,6.277,13.95,10.308,22.552,11.329
				l0.123-1.679C435.946,99.1,432.351,98.108,428.881,96.497z"/>
			<path fill="none" stroke="#6AABB7" stroke-width="3" stroke-miterlimit="10" d="M486.858,85.216l2.976,1.831
				c1.26,0.775,2.918,0.257,3.507-1.1c0.288-0.666,0.563-1.336,0.825-2.013c0.521-1.346-0.238-2.848-1.63-3.228l-1.159-0.316
				c-1.84-0.502-3.138-2.233-2.952-4.131c0.24-2.45,2.613-4.005,4.885-3.386l1.033,0.281c1.427,0.39,2.872-0.574,3.056-2.042
				c0.089-0.72,0.164-1.442,0.225-2.168c0.121-1.438-1.03-2.666-2.473-2.637l-1.23,0.024c-1.881,0.037-3.59-1.232-3.969-3.077
				c-0.5-2.44,1.351-4.634,3.724-4.681l1.065-0.021c1.479-0.029,2.594-1.363,2.354-2.823c-0.116-0.713-0.249-1.427-0.396-2.141
				c-0.292-1.413-1.74-2.266-3.115-1.832l-1.257,0.396c-2.036,0.641-4.226-0.5-4.867-2.535c-0.642-2.036,0.5-4.226,2.535-4.867
				l1.016-0.32c1.411-0.444,2.104-2.036,1.466-3.37c-0.313-0.657-0.64-1.306-0.979-1.945c-0.676-1.276-2.309-1.686-3.507-0.882
				l-1.005,0.674c-1.583,1.062-3.743,0.909-5.055-0.475c-1.694-1.785-1.314-4.599,0.64-5.91l0.892-0.598
				c1.229-0.825,1.446-2.551,0.454-3.649c-0.487-0.541-0.985-1.07-1.493-1.589c-1.008-1.03-2.688-0.962-3.61,0.146l-0.776,0.932
				c-1.221,1.465-3.335,1.927-4.985,0.969c-2.128-1.235-2.556-4.042-1.05-5.851l0.679-0.814c0.948-1.137,0.669-2.854-0.592-3.629
				c-0.617-0.38-1.243-0.748-1.875-1.103c-1.258-0.705-2.851-0.167-3.424,1.156l-0.478,1.102c-0.758,1.75-2.657,2.788-4.509,2.334
				c-2.391-0.586-3.593-3.158-2.657-5.318l0.423-0.977c0.588-1.357-0.16-2.924-1.586-3.314c-0.699-0.192-1.403-0.37-2.111-0.533
				c-1.406-0.325-2.786,0.641-2.963,2.073l-0.162,1.309c-0.263,2.118-2.21,3.637-4.329,3.375c-1.904,0.599-3.79-0.972-3.544-2.952
				l0.302-2.44c0.182-1.468-0.979-2.762-2.459-2.733c-0.724,0.014-1.451,0.043-2.178,0.087c-1.44,0.087-2.49,1.401-2.257,2.824
				l0.214,1.305c0.381,2.323-1.412,4.524-3.874,4.509c-1.907-0.011-3.495-1.482-3.803-3.364l-0.155-0.939
				c-0.238-1.453-1.706-2.375-3.11-1.933c-0.009,0.002-0.019,0.006-0.028,0.009c-0.696,0.219-1.385,0.452-2.067,0.698
				c-1.351,0.487-1.978,2.044-1.355,3.338l0.521,1.084c0.825,1.72,0.367,3.834-1.189,4.937c-2.008,1.423-4.738,0.647-5.758-1.475
				l-0.464-0.967c-0.641-1.333-2.315-1.793-3.545-0.971c-0.606,0.405-1.202,0.822-1.787,1.249c-1.167,0.851-1.34,2.524-0.373,3.596
				l0.814,0.904c1.277,1.417,1.433,3.575,0.25,5.072c-1.526,1.931-4.365,1.956-5.94,0.207l-0.714-0.792
				c-0.991-1.1-2.732-1.068-3.678,0.071c-0.464,0.558-0.917,1.126-1.357,1.702c-0.875,1.145-0.57,2.797,0.658,3.552l1.122,0.69
				c1.817,1.119,2.389,3.521,1.271,5.338c0.616,1.952-1.523,3.619-3.267,2.547l-2.974-1.831c-1.26-0.775-2.918-0.257-3.506,1.1
				c-0.29,0.666-0.564,1.336-0.827,2.013c-0.521,1.346,0.238,2.848,1.63,3.228l1.267,0.345c2.06,0.561,3.285,2.705,2.724,4.764
				c-0.561,2.06-2.706,3.285-4.765,2.724l-1.033-0.281c-1.428-0.389-2.873,0.574-3.056,2.042c-0.09,0.72-0.165,1.443-0.225,2.168
				c-0.12,1.438,1.031,2.666,2.473,2.637l1.324-0.025c2.134-0.042,3.915,1.669,3.956,3.803l0,0c0.042,2.134-1.67,3.915-3.804,3.956
				l-1.065,0.021c-1.479,0.029-2.596,1.362-2.355,2.823c0.117,0.714,0.249,1.428,0.396,2.141c0.291,1.413,1.74,2.266,3.116,1.832
				l1.256-0.396c2.036-0.641,4.226,0.5,4.867,2.536l0,0c0.641,2.036-0.5,4.226-2.535,4.867l-1.015,0.32
				c-1.411,0.444-2.105,2.035-1.467,3.369c0.315,0.657,0.641,1.306,0.98,1.945c0.674,1.276,2.309,1.686,3.507,0.882l1.004-0.673
				c1.584-1.062,3.743-0.909,5.055,0.474c1.695,1.786,1.315,4.599-0.64,5.91l-0.892,0.598c-1.229,0.825-1.446,2.55-0.455,3.649
				c0.488,0.54,0.985,1.07,1.494,1.588c1.008,1.03,2.688,0.962,3.61-0.146l0.847-1.018c1.366-1.64,3.825-1.864,5.465-0.499l0,0
				c1.64,1.366,1.865,3.825,0.499,5.466l-0.678,0.814c-0.948,1.136-0.669,2.854,0.591,3.628c0.618,0.381,1.244,0.747,1.876,1.103
				c1.258,0.705,2.851,0.167,3.424-1.156l0.522-1.203c0.848-1.959,3.145-2.867,5.103-2.018c1.959,0.849,2.867,3.145,2.018,5.103
				l-0.422,0.977c-0.588,1.357,0.159,2.924,1.586,3.315c0.7,0.191,1.403,0.369,2.112,0.532c1.407,0.325,2.785-0.641,2.963-2.072
				l0.162-1.31c0.263-2.118,2.21-3.636,4.329-3.374c2.118,0.262,3.635,2.21,3.374,4.329l-0.132,1.063
				c-0.182,1.468,0.979,2.762,2.458,2.733c0.725-0.015,1.452-0.043,2.179-0.088c1.439-0.087,2.489-1.4,2.256-2.823l-0.213-1.305
				c-0.345-2.107,1.096-4.113,3.203-4.458c2.105-0.345,4.111,1.096,4.457,3.202l0.172,1.05c0.237,1.453,1.707,2.375,3.11,1.934
				c0.009-0.003,0.019-0.007,0.027-0.009c0.697-0.219,1.386-0.453,2.068-0.699c1.351-0.488,1.977-2.044,1.355-3.339l-0.57-1.184
				c-0.924-1.924-0.106-4.254,1.818-5.179c1.923-0.925,4.253-0.107,5.178,1.817l0.464,0.967c0.641,1.333,2.316,1.793,3.545,0.971
				c0.605-0.405,1.202-0.821,1.788-1.249c1.165-0.851,1.338-2.524,0.372-3.596l-0.889-0.987c-1.429-1.585-1.301-4.051,0.285-5.48
				c1.585-1.429,4.052-1.301,5.479,0.285l0.715,0.792c0.991,1.1,2.731,1.068,3.678-0.07c0.463-0.558,0.917-1.126,1.357-1.703
				c0.875-1.145,0.57-2.797-0.658-3.552l-1.122-0.69c-1.817-1.118-2.39-3.52-1.271-5.337
				C482.978,85.811,485.116,84.144,486.858,85.216z M472.821,41.533c2.706,3.427,4.847,7.394,6.237,11.805
				c1.273,4.043,1.815,8.141,1.703,12.151l-1.677-0.122c0.208-8.226-2.482-16.285-7.538-22.732L472.821,41.533z M470.655,39.027
				l-1.274,1.101c-2.977-3.137-6.576-5.782-10.736-7.714c-3.468-1.611-7.064-2.603-10.665-3.036l0.121-1.679
				C456.706,28.72,464.71,32.75,470.655,39.027z M432.646,29.162c4.042-1.273,8.141-1.815,12.151-1.703l-0.121,1.676
				c-8.227-0.208-16.286,2.483-22.733,7.539l-1.102-1.275C424.27,32.693,428.234,30.551,432.646,29.162z M418.335,37.564l1.1,1.274
				c-3.136,2.977-5.781,6.575-7.713,10.735c-1.611,3.469-2.603,7.064-3.037,10.666l-1.678-0.122
				C408.027,51.514,412.058,43.509,418.335,37.564z M414.706,87.378c-2.705-3.427-4.845-7.394-6.235-11.805
				c-1.274-4.043-1.815-8.14-1.703-12.151l1.676,0.123c-0.208,8.226,2.482,16.285,7.537,22.732L414.706,87.378z M416.873,89.884
				l1.273-1.101c2.977,3.137,6.576,5.782,10.735,7.714c3.469,1.611,7.064,2.603,10.667,3.036l-0.123,1.679
				C430.823,100.191,422.817,96.161,416.873,89.884z M431.478,90.907c-14.609-6.785-20.951-24.128-14.166-38.737
				s24.128-20.951,38.738-14.166c14.608,6.785,20.951,24.128,14.166,38.737C463.43,91.35,446.087,97.692,431.478,90.907z
				 M454.881,99.749c-4.042,1.274-8.14,1.815-12.151,1.703l0.122-1.676c8.227,0.208,16.286-2.483,22.732-7.539l1.102,1.275
				C463.258,96.218,459.292,98.359,454.881,99.749z M469.192,91.347l-1.1-1.274c3.136-2.977,5.782-6.575,7.713-10.735
				c1.611-3.469,2.603-7.064,3.036-10.666l1.679,0.123C479.499,77.397,475.468,85.403,469.192,91.347z"/>
		</g>
		<circle fill="#FFCD4D" cx="443.616" cy="64.443" r="40.021"/>
		<g>
			<g>
				<g>
					<circle fill="none" stroke="#676767" stroke-width="0.6" stroke-miterlimit="10" cx="443.616" cy="64.442" r="30.208"/>
					<circle fill="none" stroke="#676767" stroke-width="0.6" stroke-miterlimit="10" cx="443.616" cy="64.443" r="39.319"/>
					
						<line fill="none" stroke="#676767" stroke-width="0.6" stroke-miterlimit="10" x1="478.533" y1="82.52" x2="470.443" y2="78.331"/>
					
						<line fill="none" stroke="#676767" stroke-width="0.6" stroke-miterlimit="10" x1="482.021" y1="72.865" x2="473.122" y2="70.914"/>
					
						<line fill="none" stroke="#676767" stroke-width="0.6" stroke-miterlimit="10" x1="482.893" y1="62.639" x2="473.792" y2="63.056"/>
					
						<line fill="none" stroke="#676767" stroke-width="0.6" stroke-miterlimit="10" x1="481.088" y1="52.534" x2="472.405" y2="55.293"/>
					
						<line fill="none" stroke="#676767" stroke-width="0.6" stroke-miterlimit="10" x1="476.729" y1="43.241" x2="469.057" y2="48.153"/>
					
						<line fill="none" stroke="#676767" stroke-width="0.6" stroke-miterlimit="10" x1="470.112" y1="35.394" x2="463.973" y2="42.124"/>
					
						<line fill="none" stroke="#676767" stroke-width="0.6" stroke-miterlimit="10" x1="461.693" y1="29.525" x2="457.502" y2="37.615"/>
					
						<line fill="none" stroke="#676767" stroke-width="0.6" stroke-miterlimit="10" x1="452.039" y1="26.036" x2="450.086" y2="34.935"/>
					
						<line fill="none" stroke="#676767" stroke-width="0.6" stroke-miterlimit="10" x1="441.811" y1="25.165" x2="442.23" y2="34.265"/>
					
						<line fill="none" stroke="#676767" stroke-width="0.6" stroke-miterlimit="10" x1="431.707" y1="26.969" x2="434.466" y2="35.652"/>
					
						<line fill="none" stroke="#676767" stroke-width="0.6" stroke-miterlimit="10" x1="422.415" y1="31.328" x2="427.327" y2="39.001"/>
					
						<line fill="none" stroke="#676767" stroke-width="0.6" stroke-miterlimit="10" x1="414.567" y1="37.944" x2="421.295" y2="44.083"/>
					
						<line fill="none" stroke="#676767" stroke-width="0.6" stroke-miterlimit="10" x1="408.698" y1="46.366" x2="416.787" y2="50.554"/>
					
						<line fill="none" stroke="#676767" stroke-width="0.6" stroke-miterlimit="10" x1="405.21" y1="56.019" x2="414.107" y2="57.97"/>
					
						<line fill="none" stroke="#676767" stroke-width="0.6" stroke-miterlimit="10" x1="404.339" y1="66.247" x2="413.438" y2="65.828"/>
					
						<line fill="none" stroke="#676767" stroke-width="0.6" stroke-miterlimit="10" x1="406.143" y1="76.351" x2="414.825" y2="73.591"/>
					
						<line fill="none" stroke="#676767" stroke-width="0.6" stroke-miterlimit="10" x1="410.501" y1="85.644" x2="418.175" y2="80.732"/>
					
						<line fill="none" stroke="#676767" stroke-width="0.6" stroke-miterlimit="10" x1="417.117" y1="93.49" x2="423.257" y2="86.761"/>
					
						<line fill="none" stroke="#676767" stroke-width="0.6" stroke-miterlimit="10" x1="425.539" y1="99.359" x2="429.728" y2="91.27"/>
					
						<line fill="none" stroke="#676767" stroke-width="0.6" stroke-miterlimit="10" x1="435.191" y1="102.849" x2="437.142" y2="93.95"/>
					
						<line fill="none" stroke="#676767" stroke-width="0.6" stroke-miterlimit="10" x1="445.419" y1="103.72" x2="445.001" y2="94.619"/>
					
						<line fill="none" stroke="#676767" stroke-width="0.6" stroke-miterlimit="10" x1="455.523" y1="101.916" x2="452.765" y2="93.233"/>
					
						<line fill="none" stroke="#676767" stroke-width="0.6" stroke-miterlimit="10" x1="464.816" y1="97.556" x2="459.903" y2="89.884"/>
					
						<line fill="none" stroke="#676767" stroke-width="0.6" stroke-miterlimit="10" x1="472.664" y1="90.941" x2="465.934" y2="84.801"/>
				</g>
			</g>
		</g>
	</g>
	<g>
		<path fill="#405158" d="M428.958,64.789v-3.253c0-0.425,0.336-0.761,0.762-0.761c0.425,0,0.761,0.336,0.761,0.761v3.213
			c0,1.127,0.563,1.71,1.493,1.71c0.93,0,1.493-0.563,1.493-1.661v-3.263c0-0.425,0.336-0.761,0.762-0.761
			c0.425,0,0.761,0.336,0.761,0.761v3.204c0,2.096-1.177,3.125-3.036,3.125S428.958,66.825,428.958,64.789z"/>
		<path fill="#405158" d="M436.614,61.536c0-0.425,0.336-0.761,0.761-0.761s0.761,0.336,0.761,0.761v5.517
			c0,0.425-0.336,0.762-0.761,0.762s-0.761-0.336-0.761-0.762V61.536z"/>
		<path fill="#405158" d="M439.136,68.229l3.866-8.078c0.109-0.228,0.287-0.346,0.524-0.346c0.316,0,0.583,0.267,0.583,0.563
			c0,0.109-0.04,0.218-0.069,0.287l-3.866,8.079c-0.109,0.227-0.287,0.346-0.524,0.346c-0.316,0-0.583-0.267-0.583-0.564
			C439.067,68.407,439.107,68.299,439.136,68.229z"/>
		<path fill="#405158" d="M445.001,64.789v-3.253c0-0.425,0.336-0.761,0.762-0.761c0.425,0,0.761,0.336,0.761,0.761v3.213
			c0,1.127,0.563,1.71,1.493,1.71c0.93,0,1.493-0.563,1.493-1.661v-3.263c0-0.425,0.336-0.761,0.762-0.761
			c0.425,0,0.761,0.336,0.761,0.761v3.204c0,2.096-1.177,3.125-3.036,3.125S445.001,66.825,445.001,64.789z"/>
		<path fill="#405158" d="M452.39,66.529l1.869-2.294l-1.76-2.146c-0.119-0.148-0.228-0.346-0.228-0.564
			c0-0.425,0.316-0.751,0.751-0.751c0.326,0,0.514,0.128,0.702,0.375l1.513,2.017l1.503-1.978c0.208-0.267,0.405-0.415,0.742-0.415
			s0.692,0.267,0.692,0.702c0,0.218-0.079,0.396-0.227,0.583l-1.76,2.155l1.859,2.284c0.119,0.148,0.228,0.346,0.228,0.563
			c0,0.425-0.316,0.752-0.751,0.752c-0.326,0-0.514-0.129-0.702-0.376l-1.622-2.126l-1.602,2.086
			c-0.208,0.267-0.406,0.416-0.742,0.416s-0.692-0.267-0.692-0.702C452.163,66.895,452.242,66.717,452.39,66.529z"/>
	</g>
	<g>
		<path fill="#405158" d="M902.856,63.248l2.412-5.448c0.168-0.376,0.475-0.604,0.89-0.604h0.09c0.415,0,0.711,0.228,0.88,0.604
			l2.412,5.448c0.05,0.109,0.079,0.208,0.079,0.307c0,0.405-0.316,0.732-0.722,0.732c-0.356,0-0.593-0.208-0.731-0.524l-0.465-1.087
			h-3.046l-0.484,1.137c-0.128,0.296-0.386,0.475-0.702,0.475c-0.396,0-0.701-0.316-0.701-0.712
			C902.768,63.465,902.807,63.356,902.856,63.248z M907.138,61.33l-0.959-2.284l-0.96,2.284H907.138z"/>
		<path fill="#405158" d="M910.996,65.462c-0.257-0.099-0.425-0.306-0.425-0.583c0-0.336,0.276-0.613,0.612-0.613
			c0.1,0,0.179,0.02,0.248,0.049c0.435,0.198,0.899,0.316,1.463,0.316c1.028,0,1.513-0.494,1.513-1.443v-0.257
			c-0.444,0.534-0.93,0.86-1.73,0.86c-1.235,0-2.353-0.9-2.353-2.472V61.3c0-1.582,1.137-2.472,2.353-2.472
			c0.821,0,1.306,0.346,1.711,0.791v-0.01c0-0.405,0.336-0.742,0.751-0.742c0.416,0,0.752,0.336,0.752,0.752v3.411
			c0,0.949-0.228,1.641-0.673,2.086c-0.494,0.495-1.255,0.712-2.284,0.712C912.232,65.828,911.619,65.71,910.996,65.462z
			 M914.407,61.319V61.3c0-0.722-0.563-1.226-1.295-1.226s-1.286,0.504-1.286,1.226v0.02c0,0.732,0.555,1.227,1.286,1.227
			S914.407,62.042,914.407,61.319z"/>
		<path fill="#405158" d="M917.218,57.661c0-0.435,0.366-0.702,0.841-0.702s0.84,0.267,0.84,0.702v0.02
			c0,0.436-0.365,0.712-0.84,0.712s-0.841-0.276-0.841-0.712V57.661z M917.307,59.619c0-0.416,0.337-0.752,0.752-0.752
			s0.751,0.336,0.751,0.752v3.915c0,0.416-0.336,0.752-0.751,0.752s-0.752-0.336-0.752-0.752V59.619z"/>
		<path fill="#405158" d="M920.294,57.701c0-0.416,0.337-0.751,0.752-0.751s0.751,0.336,0.751,0.751v5.833
			c0,0.416-0.336,0.752-0.751,0.752s-0.752-0.336-0.752-0.752V57.701z"/>
		<path fill="#405158" d="M925.724,64.345c-1.592,0-2.769-1.117-2.769-2.739v-0.02c0-1.513,1.078-2.758,2.62-2.758
			c1.771,0,2.552,1.453,2.552,2.551c0,0.435-0.307,0.722-0.702,0.722h-2.977c0.148,0.683,0.623,1.038,1.296,1.038
			c0.415,0,0.761-0.128,1.067-0.355c0.108-0.079,0.208-0.119,0.366-0.119c0.336,0,0.583,0.257,0.583,0.594
			c0,0.197-0.089,0.346-0.198,0.445C927.099,64.098,926.495,64.345,925.724,64.345z M926.693,61.161
			c-0.09-0.672-0.485-1.127-1.118-1.127c-0.622,0-1.028,0.445-1.146,1.127H926.693z"/>
	</g>
	<g>
		<g>
			<circle fill="#FFCD4D" cx="341.402" cy="63.837" r="33.878"/>
			<path fill="#6AABB7" d="M364.363,22.092l-3.756,5.394c-0.487-0.25-0.977-0.498-1.479-0.73c-0.501-0.231-1.006-0.444-1.512-0.654
				l1.685-6.352c0.139-0.525-0.173-1.062-0.698-1.202l-8.474-2.248c-0.524-0.14-1.063,0.173-1.201,0.697l-1.683,6.341
				c-1.095-0.139-2.191-0.23-3.287-0.277l-0.588-6.534c-0.048-0.541-0.526-0.939-1.066-0.891l-8.731,0.787
				c-0.54,0.048-0.94,0.526-0.892,1.066l0.589,6.546c-1.071,0.245-2.135,0.524-3.183,0.854l-2.79-5.942
				c-0.23-0.491-0.816-0.702-1.307-0.472l-7.936,3.725c-0.492,0.231-0.703,0.816-0.474,1.308l2.793,5.947
				c-0.923,0.593-1.823,1.224-2.697,1.894l-4.655-4.63c-0.386-0.382-1.006-0.38-1.39,0.004l-6.182,6.215
				c-0.384,0.384-0.382,1.007,0.002,1.39l4.654,4.629c-0.659,0.871-1.285,1.775-1.878,2.708l-5.962-2.761
				c-0.063-0.029-0.125-0.05-0.188-0.065c-0.445-0.105-0.919,0.113-1.119,0.543l-3.684,7.955c-0.172,0.37-0.094,0.791,0.165,1.074
				c0.086,0.095,0.191,0.174,0.315,0.231l5.963,2.762c-0.329,1.057-0.613,2.119-0.852,3.184l-6.54-0.554
				c-0.068-0.005-0.135-0.005-0.2,0.003c-0.454,0.052-0.824,0.418-0.864,0.892l-0.742,8.735c-0.035,0.406,0.183,0.775,0.522,0.954
				c0.112,0.06,0.238,0.098,0.374,0.109l6.543,0.555c0.055,1.101,0.156,2.195,0.3,3.283l-6.344,1.717
				c-0.523,0.142-0.833,0.681-0.691,1.205l2.291,8.461c0.141,0.525,0.681,0.835,1.206,0.692l6.338-1.716
				c0.426,1.014,0.9,2.005,1.408,2.981l-5.377,3.784c-0.442,0.313-0.55,0.925-0.236,1.369l5.047,7.168
				c0.313,0.444,0.925,0.551,1.369,0.237l5.366-3.778c0.744,0.805,1.522,1.583,2.336,2.329l-3.749,5.384
				c-0.308,0.445-0.201,1.057,0.245,1.367l7.195,5.01c0.444,0.31,1.057,0.201,1.367-0.246l3.757-5.394
				c0.486,0.25,0.976,0.498,1.477,0.73c0.501,0.231,1.007,0.444,1.513,0.654l-1.685,6.354c-0.139,0.524,0.173,1.062,0.698,1.202
				l8.473,2.247c0.524,0.139,1.064-0.174,1.202-0.699l1.682-6.341c1.096,0.139,2.193,0.229,3.287,0.276l0.59,6.537
				c0.048,0.54,0.524,0.94,1.065,0.891l8.731-0.788c0.541-0.048,0.94-0.525,0.891-1.066l-0.59-6.547
				c1.073-0.245,2.137-0.524,3.183-0.855l2.791,5.945c0.231,0.491,0.815,0.702,1.307,0.471l7.936-3.725
				c0.492-0.231,0.703-0.817,0.472-1.308l-2.793-5.949c0.922-0.593,1.822-1.224,2.698-1.894l4.656,4.632
				c0.385,0.383,1.006,0.382,1.389-0.003l6.183-6.215c0.383-0.386,0.384-1.008-0.003-1.391l-4.656-4.631
				c0.659-0.871,1.285-1.774,1.878-2.708l5.964,2.762c0.063,0.029,0.126,0.05,0.19,0.065c0.444,0.105,0.917-0.112,1.117-0.543
				l3.683-7.955c0.209-0.452,0.045-0.978-0.365-1.238c-0.037-0.023-0.073-0.049-0.114-0.067l-5.964-2.762
				c0.328-1.057,0.613-2.118,0.851-3.184l6.542,0.556c0.135,0.011,0.266-0.005,0.388-0.045c0.364-0.118,0.641-0.445,0.676-0.852
				l0.741-8.735c0.04-0.474-0.262-0.898-0.701-1.026c-0.063-0.019-0.129-0.03-0.195-0.037l-6.543-0.555
				c-0.055-1.1-0.156-2.195-0.3-3.282l6.342-1.718c0.524-0.142,0.834-0.681,0.691-1.205l-2.291-8.462
				c-0.141-0.523-0.682-0.833-1.205-0.691l-6.337,1.716c-0.426-1.012-0.9-2.004-1.406-2.979l5.375-3.784
				c0.442-0.313,0.549-0.925,0.236-1.37l-5.046-7.168c-0.312-0.443-0.925-0.55-1.369-0.238l-5.366,3.778
				c-0.744-0.804-1.521-1.582-2.336-2.329l3.749-5.382c0.31-0.446,0.199-1.058-0.245-1.368l-7.193-5.01
				C365.285,21.539,364.672,21.648,364.363,22.092z M371.952,77.092c-7.611,16.432-27.102,23.583-43.534,15.974
				c-16.432-7.611-23.584-27.102-15.973-43.534c7.61-16.432,27.101-23.584,43.533-15.974
				C372.412,41.169,379.563,60.66,371.952,77.092z"/>
			<circle fill="#6AABB7" cx="354.614" cy="80.478" r="4.259"/>
			<circle fill="#6AABB7" cx="344.666" cy="85.979" r="2.621"/>
			<circle fill="#6AABB7" cx="334.672" cy="84.239" r="2.621"/>
		</g>
		<g>
			<path fill="#405158" d="M313.593,55.004l2.152-4.86c0.15-0.335,0.423-0.538,0.794-0.538h0.079c0.371,0,0.635,0.203,0.785,0.538
				l2.152,4.86c0.044,0.097,0.071,0.185,0.071,0.273c0,0.361-0.282,0.652-0.644,0.652c-0.317,0-0.529-0.185-0.653-0.467l-0.415-0.97
				h-2.716l-0.432,1.014c-0.115,0.265-0.344,0.423-0.626,0.423c-0.353,0-0.626-0.282-0.626-0.635
				C313.513,55.198,313.549,55.102,313.593,55.004z M317.412,53.293l-0.855-2.038l-0.855,2.038H317.412z"/>
			<path fill="#405158" d="M320.548,51.768c0-0.371,0.3-0.67,0.67-0.67s0.67,0.3,0.67,0.67v0.062
				c0.326-0.441,0.776-0.767,1.473-0.767c1.103,0,2.152,0.864,2.152,2.443v0.018c0,1.579-1.032,2.443-2.152,2.443
				c-0.714,0-1.155-0.327-1.473-0.706v1.411c0,0.37-0.3,0.67-0.67,0.67s-0.67-0.3-0.67-0.67V51.768z M324.173,53.522v-0.018
				c0-0.785-0.529-1.305-1.155-1.305c-0.626,0-1.146,0.521-1.146,1.305v0.018c0,0.785,0.52,1.306,1.146,1.306
				C323.644,54.828,324.173,54.316,324.173,53.522z"/>
			<path fill="#405158" d="M326.498,51.768c0-0.371,0.3-0.67,0.67-0.67s0.67,0.3,0.67,0.67v0.062
				c0.326-0.441,0.776-0.767,1.473-0.767c1.103,0,2.152,0.864,2.152,2.443v0.018c0,1.579-1.032,2.443-2.152,2.443
				c-0.714,0-1.155-0.327-1.473-0.706v1.411c0,0.37-0.3,0.67-0.67,0.67s-0.67-0.3-0.67-0.67V51.768z M330.123,53.522v-0.018
				c0-0.785-0.529-1.305-1.155-1.305c-0.626,0-1.146,0.521-1.146,1.305v0.018c0,0.785,0.52,1.306,1.146,1.306
				C329.594,54.828,330.123,54.316,330.123,53.522z"/>
			<path fill="#405158" d="M332.51,50.057c0-0.371,0.3-0.67,0.67-0.67c0.371,0,0.67,0.3,0.67,0.67v5.204c0,0.37-0.3,0.67-0.67,0.67
				c-0.37,0-0.67-0.3-0.67-0.67V50.057z"/>
			<path fill="#405158" d="M335.093,50.021c0-0.388,0.326-0.626,0.75-0.626s0.75,0.238,0.75,0.626v0.018
				c0,0.388-0.327,0.635-0.75,0.635s-0.75-0.247-0.75-0.635V50.021z M335.172,51.768c0-0.371,0.3-0.67,0.67-0.67
				c0.371,0,0.67,0.3,0.67,0.67v3.493c0,0.37-0.3,0.67-0.67,0.67c-0.37,0-0.67-0.3-0.67-0.67V51.768z"/>
			<path fill="#405158" d="M337.543,53.54v-0.018c0-1.349,1.032-2.46,2.478-2.46c0.714,0,1.217,0.194,1.614,0.529
				c0.088,0.07,0.211,0.229,0.211,0.458c0,0.335-0.273,0.6-0.608,0.6c-0.176,0-0.309-0.07-0.388-0.132
				c-0.238-0.185-0.485-0.3-0.838-0.3c-0.67,0-1.146,0.591-1.146,1.288v0.018c0,0.723,0.467,1.306,1.199,1.306
				c0.353,0,0.626-0.124,0.882-0.327c0.07-0.053,0.203-0.124,0.361-0.124c0.318,0,0.564,0.256,0.564,0.573
				c0,0.177-0.079,0.318-0.194,0.423c-0.397,0.362-0.899,0.609-1.676,0.609C338.584,55.983,337.543,54.89,337.543,53.54z"/>
			<path fill="#405158" d="M342.523,54.519v-0.018c0-1.032,0.785-1.508,1.905-1.508c0.476,0,0.82,0.079,1.155,0.194v-0.08
				c0-0.556-0.344-0.864-1.014-0.864c-0.371,0-0.67,0.053-0.926,0.132c-0.079,0.026-0.132,0.035-0.194,0.035
				c-0.309,0-0.556-0.238-0.556-0.546c0-0.238,0.15-0.441,0.361-0.521c0.423-0.159,0.882-0.247,1.508-0.247
				c0.732,0,1.261,0.194,1.596,0.529c0.353,0.353,0.512,0.873,0.512,1.508v2.152c0,0.361-0.291,0.644-0.653,0.644
				c-0.388,0-0.644-0.273-0.644-0.556v-0.009c-0.326,0.362-0.776,0.6-1.429,0.6C343.255,55.966,342.523,55.454,342.523,54.519z
				 M345.602,54.21v-0.238c-0.229-0.106-0.529-0.177-0.855-0.177c-0.573,0-0.926,0.229-0.926,0.653v0.018
				c0,0.362,0.3,0.573,0.732,0.573C345.178,55.04,345.602,54.696,345.602,54.21z"/>
			<path fill="#405158" d="M348.201,54.537v-2.24h-0.044c-0.318,0-0.574-0.256-0.574-0.573c0-0.318,0.256-0.573,0.574-0.573h0.044
				v-0.591c0-0.37,0.3-0.67,0.67-0.67c0.37,0,0.67,0.3,0.67,0.67v0.591h0.591c0.317,0,0.573,0.255,0.573,0.573
				c0,0.317-0.256,0.573-0.573,0.573h-0.591v2.02c0,0.309,0.132,0.458,0.432,0.458c0.044,0,0.132-0.009,0.159-0.009
				c0.3,0,0.555,0.247,0.555,0.556c0,0.238-0.159,0.432-0.344,0.503c-0.247,0.097-0.476,0.132-0.767,0.132
				C348.757,55.957,348.201,55.63,348.201,54.537z"/>
			<path fill="#405158" d="M351.621,50.021c0-0.388,0.326-0.626,0.75-0.626s0.75,0.238,0.75,0.626v0.018
				c0,0.388-0.327,0.635-0.75,0.635s-0.75-0.247-0.75-0.635V50.021z M351.701,51.768c0-0.371,0.3-0.67,0.67-0.67
				c0.371,0,0.67,0.3,0.67,0.67v3.493c0,0.37-0.3,0.67-0.67,0.67c-0.37,0-0.67-0.3-0.67-0.67V51.768z"/>
			<path fill="#405158" d="M354.072,53.54v-0.018c0-1.358,1.093-2.46,2.566-2.46c1.464,0,2.549,1.085,2.549,2.443v0.018
				c0,1.358-1.094,2.461-2.566,2.461C355.156,55.983,354.072,54.898,354.072,53.54z M357.864,53.54v-0.018
				c0-0.697-0.503-1.305-1.244-1.305c-0.768,0-1.226,0.591-1.226,1.288v0.018c0,0.697,0.503,1.306,1.244,1.306
				C357.405,54.828,357.864,54.237,357.864,53.54z"/>
			<path fill="#405158" d="M360.154,51.768c0-0.371,0.3-0.67,0.67-0.67s0.67,0.3,0.67,0.67v0.053
				c0.309-0.397,0.706-0.758,1.385-0.758c1.014,0,1.605,0.67,1.605,1.755v2.443c0,0.37-0.3,0.67-0.67,0.67
				c-0.37,0-0.67-0.3-0.67-0.67v-2.02c0-0.635-0.3-0.961-0.811-0.961c-0.512,0-0.838,0.326-0.838,0.961v2.02
				c0,0.37-0.3,0.67-0.67,0.67s-0.67-0.3-0.67-0.67V51.768z"/>
			<path fill="#405158" d="M313.937,60.961c0-0.379,0.3-0.679,0.679-0.679h1.729c1.94,0,3.281,1.332,3.281,3.069v0.018
				c0,1.737-1.341,3.087-3.281,3.087h-1.729c-0.379,0-0.679-0.3-0.679-0.679V60.961z M316.344,65.229
				c1.111,0,1.861-0.75,1.861-1.843v-0.018c0-1.094-0.75-1.861-1.861-1.861h-1.049v3.722H316.344z"/>
			<path fill="#405158" d="M322.929,66.562c-1.42,0-2.469-0.997-2.469-2.443v-0.018c0-1.349,0.961-2.46,2.337-2.46
				c1.579,0,2.275,1.296,2.275,2.275c0,0.388-0.273,0.644-0.626,0.644h-2.655c0.132,0.608,0.556,0.926,1.155,0.926
				c0.371,0,0.679-0.115,0.953-0.317c0.097-0.071,0.185-0.106,0.326-0.106c0.3,0,0.521,0.229,0.521,0.529
				c0,0.176-0.08,0.309-0.176,0.397C324.155,66.341,323.617,66.562,322.929,66.562z M323.793,63.722
				c-0.079-0.6-0.432-1.006-0.997-1.006c-0.556,0-0.917,0.397-1.023,1.006H323.793z"/>
			<path fill="#405158" d="M327.945,66.553h-0.071c-0.361,0-0.608-0.229-0.758-0.582l-1.446-3.343
				c-0.036-0.088-0.071-0.203-0.071-0.326c0-0.318,0.291-0.626,0.653-0.626c0.361,0,0.556,0.203,0.652,0.476l1.014,2.743
				l1.032-2.761c0.088-0.229,0.273-0.458,0.626-0.458c0.353,0,0.644,0.273,0.644,0.635c0,0.114-0.044,0.255-0.071,0.317
				l-1.446,3.343C328.554,66.314,328.307,66.553,327.945,66.553z"/>
			<path fill="#405158" d="M333.181,66.562c-1.42,0-2.469-0.997-2.469-2.443v-0.018c0-1.349,0.961-2.46,2.337-2.46
				c1.579,0,2.275,1.296,2.275,2.275c0,0.388-0.273,0.644-0.626,0.644h-2.655c0.132,0.608,0.556,0.926,1.155,0.926
				c0.371,0,0.679-0.115,0.953-0.317c0.097-0.071,0.185-0.106,0.326-0.106c0.3,0,0.521,0.229,0.521,0.529
				c0,0.176-0.08,0.309-0.176,0.397C334.407,66.341,333.869,66.562,333.181,66.562z M334.045,63.722
				c-0.079-0.6-0.432-1.006-0.997-1.006c-0.556,0-0.917,0.397-1.023,1.006H334.045z"/>
			<path fill="#405158" d="M336.407,60.635c0-0.371,0.3-0.67,0.67-0.67c0.371,0,0.67,0.3,0.67,0.67v5.204c0,0.37-0.3,0.67-0.67,0.67
				c-0.37,0-0.67-0.3-0.67-0.67V60.635z"/>
			<path fill="#405158" d="M338.778,64.118v-0.018c0-1.358,1.093-2.46,2.566-2.46c1.464,0,2.549,1.085,2.549,2.443v0.018
				c0,1.358-1.094,2.461-2.566,2.461C339.862,66.562,338.778,65.477,338.778,64.118z M342.57,64.118v-0.018
				c0-0.697-0.503-1.305-1.244-1.305c-0.768,0-1.226,0.591-1.226,1.288v0.018c0,0.697,0.503,1.306,1.244,1.306
				C342.111,65.406,342.57,64.815,342.57,64.118z"/>
			<path fill="#405158" d="M344.86,62.346c0-0.371,0.3-0.67,0.67-0.67s0.67,0.3,0.67,0.67v0.062
				c0.326-0.441,0.776-0.767,1.473-0.767c1.103,0,2.152,0.864,2.152,2.443v0.018c0,1.579-1.032,2.443-2.152,2.443
				c-0.714,0-1.155-0.327-1.473-0.706v1.411c0,0.37-0.3,0.67-0.67,0.67s-0.67-0.3-0.67-0.67V62.346z M348.485,64.101v-0.018
				c0-0.785-0.529-1.305-1.155-1.305c-0.626,0-1.146,0.521-1.146,1.305v0.018c0,0.785,0.52,1.306,1.146,1.306
				C347.956,65.406,348.485,64.895,348.485,64.101z"/>
			<path fill="#405158" d="M350.81,62.346c0-0.371,0.3-0.67,0.67-0.67s0.67,0.3,0.67,0.67v0.053
				c0.309-0.397,0.714-0.758,1.394-0.758c0.617,0,1.084,0.273,1.332,0.75c0.415-0.485,0.908-0.75,1.552-0.75
				c0.997,0,1.596,0.6,1.596,1.737v2.461c0,0.37-0.3,0.67-0.67,0.67c-0.371,0-0.67-0.3-0.67-0.67v-2.02
				c0-0.635-0.282-0.961-0.785-0.961c-0.502,0-0.811,0.326-0.811,0.961v2.02c0,0.37-0.3,0.67-0.67,0.67c-0.371,0-0.67-0.3-0.67-0.67
				v-2.02c0-0.635-0.282-0.961-0.785-0.961c-0.502,0-0.811,0.326-0.811,0.961v2.02c0,0.37-0.3,0.67-0.67,0.67s-0.67-0.3-0.67-0.67
				V62.346z"/>
			<path fill="#405158" d="M361.425,66.562c-1.42,0-2.469-0.997-2.469-2.443v-0.018c0-1.349,0.961-2.46,2.337-2.46
				c1.579,0,2.275,1.296,2.275,2.275c0,0.388-0.273,0.644-0.626,0.644h-2.655c0.132,0.608,0.556,0.926,1.155,0.926
				c0.371,0,0.679-0.115,0.953-0.317c0.097-0.071,0.185-0.106,0.326-0.106c0.3,0,0.521,0.229,0.521,0.529
				c0,0.176-0.08,0.309-0.176,0.397C362.651,66.341,362.113,66.562,361.425,66.562z M362.289,63.722
				c-0.079-0.6-0.432-1.006-0.997-1.006c-0.556,0-0.917,0.397-1.023,1.006H362.289z"/>
			<path fill="#405158" d="M364.588,62.346c0-0.371,0.3-0.67,0.67-0.67s0.67,0.3,0.67,0.67v0.053
				c0.309-0.397,0.706-0.758,1.385-0.758c1.014,0,1.605,0.67,1.605,1.755v2.443c0,0.37-0.3,0.67-0.67,0.67
				c-0.37,0-0.67-0.3-0.67-0.67v-2.02c0-0.635-0.3-0.961-0.811-0.961c-0.512,0-0.838,0.326-0.838,0.961v2.02
				c0,0.37-0.3,0.67-0.67,0.67s-0.67-0.3-0.67-0.67V62.346z"/>
			<path fill="#405158" d="M370.301,65.115v-2.24h-0.044c-0.318,0-0.574-0.256-0.574-0.573c0-0.318,0.256-0.573,0.574-0.573h0.044
				v-0.591c0-0.37,0.3-0.67,0.67-0.67c0.37,0,0.67,0.3,0.67,0.67v0.591h0.591c0.317,0,0.573,0.255,0.573,0.573
				c0,0.317-0.256,0.573-0.573,0.573h-0.591v2.02c0,0.309,0.132,0.458,0.432,0.458c0.044,0,0.132-0.009,0.159-0.009
				c0.3,0,0.555,0.247,0.555,0.556c0,0.238-0.159,0.432-0.344,0.503c-0.247,0.097-0.476,0.132-0.767,0.132
				C370.856,66.535,370.301,66.208,370.301,65.115z"/>
		</g>
	</g>
	<g>
		<path fill="#405158" d="M49.935,197.324c0-0.425,0.336-0.761,0.761-0.761h1.938c2.175,0,3.678,1.492,3.678,3.44v0.02
			c0,1.948-1.503,3.461-3.678,3.461h-1.938c-0.425,0-0.761-0.336-0.761-0.762V197.324z M52.634,202.11
			c1.246,0,2.086-0.841,2.086-2.066v-0.021c0-1.226-0.84-2.086-2.086-2.086h-1.177v4.173H52.634z"/>
		<path fill="#405158" d="M57.195,201.962v-0.02c0-1.157,0.88-1.691,2.136-1.691c0.534,0,0.919,0.089,1.295,0.218v-0.089
			c0-0.623-0.386-0.969-1.137-0.969c-0.416,0-0.751,0.059-1.038,0.147c-0.089,0.03-0.148,0.04-0.218,0.04
			c-0.346,0-0.623-0.268-0.623-0.613c0-0.267,0.168-0.494,0.405-0.583c0.475-0.179,0.989-0.277,1.69-0.277
			c0.821,0,1.414,0.218,1.79,0.594c0.396,0.396,0.573,0.979,0.573,1.69v2.413c0,0.405-0.326,0.722-0.731,0.722
			c-0.435,0-0.722-0.307-0.722-0.623v-0.01c-0.366,0.405-0.87,0.672-1.602,0.672C58.016,203.583,57.195,203.01,57.195,201.962z
			 M60.646,201.615v-0.267c-0.257-0.119-0.593-0.197-0.959-0.197c-0.643,0-1.038,0.257-1.038,0.731v0.02
			c0,0.405,0.336,0.643,0.82,0.643C60.171,202.545,60.646,202.159,60.646,201.615z"/>
		<path fill="#405158" d="M63.564,201.981v-2.512h-0.049c-0.356,0-0.643-0.286-0.643-0.643c0-0.355,0.287-0.643,0.643-0.643h0.049
			v-0.662c0-0.416,0.336-0.752,0.751-0.752c0.416,0,0.751,0.336,0.751,0.752v0.662h0.663c0.356,0,0.643,0.287,0.643,0.643
			c0,0.356-0.287,0.643-0.643,0.643h-0.663v2.265c0,0.346,0.148,0.514,0.484,0.514c0.05,0,0.148-0.01,0.178-0.01
			c0.336,0,0.623,0.277,0.623,0.623c0,0.267-0.178,0.484-0.386,0.563c-0.277,0.109-0.534,0.148-0.86,0.148
			C64.188,203.573,63.564,203.208,63.564,201.981z"/>
		<path fill="#405158" d="M67.106,201.962v-0.02c0-1.157,0.88-1.691,2.136-1.691c0.534,0,0.919,0.089,1.295,0.218v-0.089
			c0-0.623-0.386-0.969-1.137-0.969c-0.416,0-0.751,0.059-1.038,0.147c-0.089,0.03-0.148,0.04-0.218,0.04
			c-0.346,0-0.623-0.268-0.623-0.613c0-0.267,0.168-0.494,0.405-0.583c0.475-0.179,0.989-0.277,1.69-0.277
			c0.821,0,1.414,0.218,1.79,0.594c0.396,0.396,0.573,0.979,0.573,1.69v2.413c0,0.405-0.326,0.722-0.731,0.722
			c-0.435,0-0.722-0.307-0.722-0.623v-0.01c-0.366,0.405-0.87,0.672-1.602,0.672C67.927,203.583,67.106,203.01,67.106,201.962z
			 M70.557,201.615v-0.267c-0.257-0.119-0.593-0.197-0.959-0.197c-0.643,0-1.038,0.257-1.038,0.731v0.02
			c0,0.405,0.336,0.643,0.82,0.643C70.082,202.545,70.557,202.159,70.557,201.615z"/>
		<path fill="#405158" d="M49.796,214.622c-0.168-0.119-0.287-0.336-0.287-0.574c0-0.395,0.316-0.701,0.712-0.701
			c0.198,0,0.336,0.068,0.435,0.138c0.524,0.386,1.098,0.623,1.77,0.623c0.623,0,0.999-0.247,0.999-0.652v-0.02
			c0-0.386-0.237-0.584-1.394-0.88c-1.394-0.356-2.294-0.742-2.294-2.116v-0.02c0-1.256,1.008-2.087,2.422-2.087
			c0.841,0,1.572,0.218,2.195,0.613c0.168,0.099,0.336,0.307,0.336,0.604c0,0.396-0.316,0.701-0.712,0.701
			c-0.148,0-0.267-0.039-0.386-0.108c-0.504-0.297-0.979-0.465-1.453-0.465c-0.583,0-0.89,0.268-0.89,0.604v0.02
			c0,0.455,0.297,0.604,1.493,0.91c1.404,0.365,2.195,0.87,2.195,2.076v0.02c0,1.374-1.048,2.146-2.541,2.146
			C51.487,215.452,50.567,215.176,49.796,214.622z"/>
		<path fill="#405158" d="M55.85,212.733v-0.02c0-1.514,1.157-2.759,2.779-2.759c0.801,0,1.364,0.218,1.809,0.593
			c0.099,0.079,0.237,0.258,0.237,0.515c0,0.376-0.306,0.672-0.682,0.672c-0.198,0-0.346-0.079-0.435-0.148
			c-0.267-0.207-0.544-0.336-0.939-0.336c-0.751,0-1.285,0.663-1.285,1.443v0.021c0,0.811,0.524,1.463,1.345,1.463
			c0.396,0,0.702-0.139,0.989-0.365c0.079-0.06,0.228-0.139,0.405-0.139c0.356,0,0.633,0.286,0.633,0.643
			c0,0.197-0.089,0.355-0.217,0.475c-0.445,0.405-1.009,0.682-1.879,0.682C57.017,215.472,55.85,214.246,55.85,212.733z"/>
		<path fill="#405158" d="M61.735,208.788c0-0.436,0.366-0.702,0.84-0.702s0.84,0.267,0.84,0.702v0.02
			c0,0.436-0.366,0.712-0.84,0.712s-0.84-0.276-0.84-0.712V208.788z M61.824,210.746c0-0.415,0.336-0.752,0.751-0.752
			c0.415,0,0.751,0.337,0.751,0.752v3.915c0,0.416-0.336,0.752-0.751,0.752c-0.416,0-0.751-0.336-0.751-0.752V210.746z"/>
		<path fill="#405158" d="M67.253,215.472c-1.592,0-2.769-1.117-2.769-2.738v-0.02c0-1.514,1.078-2.759,2.621-2.759
			c1.77,0,2.551,1.453,2.551,2.551c0,0.435-0.306,0.722-0.702,0.722h-2.977c0.148,0.683,0.623,1.038,1.295,1.038
			c0.416,0,0.761-0.128,1.068-0.355c0.109-0.079,0.208-0.119,0.366-0.119c0.336,0,0.583,0.257,0.583,0.594
			c0,0.197-0.089,0.346-0.198,0.444C68.627,215.225,68.024,215.472,67.253,215.472z M68.222,212.288
			c-0.089-0.672-0.484-1.127-1.117-1.127c-0.623,0-1.028,0.445-1.147,1.127H68.222z"/>
		<path fill="#405158" d="M70.805,210.746c0-0.415,0.336-0.752,0.751-0.752s0.751,0.337,0.751,0.752v0.06
			c0.346-0.445,0.791-0.851,1.552-0.851c1.137,0,1.8,0.751,1.8,1.968v2.738c0,0.416-0.336,0.752-0.751,0.752
			c-0.416,0-0.751-0.336-0.751-0.752v-2.264c0-0.712-0.336-1.078-0.91-1.078c-0.574,0-0.939,0.366-0.939,1.078v2.264
			c0,0.416-0.336,0.752-0.751,0.752s-0.751-0.336-0.751-0.752V210.746z"/>
		<path fill="#405158" d="M76.71,212.733v-0.02c0-1.514,1.157-2.759,2.778-2.759c0.801,0,1.364,0.218,1.81,0.593
			c0.099,0.079,0.237,0.258,0.237,0.515c0,0.376-0.307,0.672-0.683,0.672c-0.198,0-0.346-0.079-0.435-0.148
			c-0.267-0.207-0.543-0.336-0.939-0.336c-0.752,0-1.286,0.663-1.286,1.443v0.021c0,0.811,0.524,1.463,1.345,1.463
			c0.396,0,0.702-0.139,0.989-0.365c0.079-0.06,0.228-0.139,0.405-0.139c0.356,0,0.633,0.286,0.633,0.643
			c0,0.197-0.089,0.355-0.217,0.475c-0.445,0.405-1.009,0.682-1.879,0.682C77.876,215.472,76.71,214.246,76.71,212.733z"/>
		<path fill="#405158" d="M84.978,215.472c-1.592,0-2.769-1.117-2.769-2.738v-0.02c0-1.514,1.078-2.759,2.621-2.759
			c1.77,0,2.551,1.453,2.551,2.551c0,0.435-0.306,0.722-0.702,0.722h-2.977c0.148,0.683,0.623,1.038,1.295,1.038
			c0.416,0,0.761-0.128,1.068-0.355c0.109-0.079,0.208-0.119,0.366-0.119c0.336,0,0.583,0.257,0.583,0.594
			c0,0.197-0.089,0.346-0.198,0.444C86.352,215.225,85.749,215.472,84.978,215.472z M85.947,212.288
			c-0.089-0.672-0.484-1.127-1.117-1.127c-0.623,0-1.028,0.445-1.147,1.127H85.947z"/>
	</g>
	<g>
		<g>
			<path fill="#FBBD16" d="M960.357,186.004c-15.134,0-19.34,15.438-19.34,15.438h5.298c0,0,0.558-7.234,14.599-7.234
				c12.466,0,12.963,7.234,12.963,7.234h5.82C979.697,201.16,974.354,186.004,960.357,186.004z"/>
			<g>
				<path fill="#030303" d="M981.676,213.519c0.18-0.843,0.346-1.657,0.346-1.952c0-3.005-0.635-5.862-1.768-8.452h-6.377
					c0.773,1.5,1.212,3.217,1.432,5.083c-4.352-2.671-9.471-4.216-14.951-4.216c-5.519,0-10.671,1.567-15.043,4.275
					c0.12-1.867,0.393-3.61,1.001-5.143h-5.855c-1.132,2.59-1.764,5.447-1.764,8.452c0,0.343-0.016,1.396-0.023,2.375
					c-4.31,5.008-6.922,11.521-6.922,18.647c0,15.798,12.809,24.868,28.606,24.868c15.801,0,28.607-9.07,28.607-24.868
					C988.965,225.262,986.206,218.581,981.676,213.519z"/>
				<path d="M986.551,221.065c-0.55,8.09-6.574,17.713-16.418,24.833c-8.224,5.946-17.276,8.817-24.612,8.426
					c4.326,2.051,9.405,3.123,14.837,3.123c15.801,0,28.607-9.07,28.607-24.869C988.965,228.482,988.102,224.59,986.551,221.065z"/>
			</g>
			<path fill="#F5EC49" d="M951,189.71c-3.747,1.833-6.252,7.24-6.252,7.24c1.947-2.621,3.285-4.352,6.502-6.324
				c3.218-1.974,6.118-2.531,9.698-3.285C960.948,187.341,954.747,187.88,951,189.71z"/>
		</g>
		
			<line fill="none" stroke="#676767" stroke-width="2" stroke-miterlimit="10" x1="960.974" y1="193.979" x2="962.333" y2="63.307"/>
		<g>
			<g>
				<path fill="none" stroke="#676767" stroke-width="2.1859" stroke-miterlimit="10" d="M959.367,184.444L959.367,184.444
					c-3.843,0-5.999-0.467-6.411-1.391c-0.181-0.4-0.058-0.844,0.365-1.316c0.532-0.594,1.224-0.895,2.059-0.895
					c2.588,0,5.709,2.93,5.842,3.054l0.509,0.481l-0.7,0.033C961.023,184.412,960.328,184.444,959.367,184.444z M955.38,181.439
					c-0.667,0-1.193,0.229-1.611,0.696c-0.252,0.28-0.342,0.509-0.268,0.675c0.225,0.501,1.882,1.037,5.866,1.037l0,0
					c0.33,0,0.629-0.004,0.878-0.009C959.249,183.013,957.121,181.439,955.38,181.439z"/>
			</g>
			<g>
				<path fill="none" stroke="#676767" stroke-width="2.1859" stroke-miterlimit="10" d="M961.016,184.412h-0.321l0.023-0.32
					c0.021-0.283,0.548-7.048,4.952-6.835c2.085,0.098,3.5,0.925,3.693,2.16c0.155,0.998-0.593,2.404-3.156,3.357
					C961.927,184.366,961.097,184.412,961.016,184.412z M965.48,177.85c-3.138,0-3.951,4.534-4.125,5.9
					c0.537-0.124,1.815-0.483,4.644-1.536c2.226-0.827,2.893-1.94,2.771-2.706c-0.143-0.922-1.37-1.571-3.128-1.654
					C965.587,177.852,965.533,177.85,965.48,177.85z"/>
			</g>
			<g>
				<path fill="none" stroke="#676767" stroke-width="2.1859" stroke-miterlimit="10" d="M961.375,185.946
					c-0.136,0-0.259-0.092-0.291-0.23l-0.068-0.293l-0.068,0.293c-0.038,0.161-0.198,0.26-0.359,0.223
					c-0.16-0.037-0.26-0.197-0.224-0.358l0.651-2.778l0.65,2.778c0.038,0.161-0.062,0.321-0.223,0.358
					C961.421,185.944,961.397,185.946,961.375,185.946z"/>
			</g>
		</g>
		<g>
			<g>
				<path fill="#FFCD4D" d="M944.047,240.886c0.343,0.17,0.676,0.17,0.998,0c0.322-0.168,0.481-0.469,0.481-0.893v-7.783h0.646
					v8.766c0.331-0.217,0.682-0.379,1.028-0.456c1.592-0.354,3.06-0.146,4.658-0.061c0.345,0.019,0.656,0.099,0.938,0.218v-8.467
					h0.645v7.719c0,0.469,0.16,0.808,0.483,1.021c0.321,0.212,0.653,0.212,0.997,0c0.342-0.213,0.515-0.552,0.515-1.021v-7.973
					c0-0.895-0.302-1.627-0.902-2.203c-0.599-0.572-1.413-0.859-2.444-0.859h-5.212c-0.987,0-1.792,0.277-2.413,0.828
					c-0.623,0.555-0.935,1.277-0.935,2.17v8.102C943.531,240.417,943.705,240.718,944.047,240.886z"/>
				<path fill="#FFCD4D" d="M946.687,225.417c0,0.744,0.268,1.383,0.804,1.914c0.536,0.53,1.179,0.795,1.93,0.795
					c0.752,0,1.384-0.265,1.9-0.795c0.514-0.531,0.771-1.17,0.771-1.914c0-0.743-0.257-1.382-0.771-1.913
					c-0.517-0.531-1.148-0.798-1.9-0.798c-0.751,0-1.394,0.267-1.93,0.798S946.687,224.674,946.687,225.417L946.687,225.417z
					 M946.687,225.417"/>
			</g>
			<g>
				<g>
					<rect x="966.28" y="222.438" fill="#FFCD4D" width="13.354" height="18.631"/>
					<g>
						<g>
							<rect x="968.166" y="223.874" fill="#010101" width="2.262" height="2.261"/>
							<rect x="971.858" y="223.874" fill="#010101" width="2.261" height="2.261"/>
							<rect x="975.55" y="223.874" fill="#010101" width="2.261" height="2.261"/>
						</g>
						<g>
							<rect x="968.136" y="227.274" fill="#010101" width="2.261" height="2.261"/>
							<rect x="971.826" y="227.274" fill="#010101" width="2.262" height="2.261"/>
							<rect x="975.519" y="227.274" fill="#010101" width="2.261" height="2.261"/>
						</g>
						<g>
							<rect x="968.104" y="230.675" fill="#010101" width="2.261" height="2.262"/>
							<rect x="971.795" y="230.675" fill="#010101" width="2.262" height="2.262"/>
							<rect x="975.487" y="230.675" fill="#010101" width="2.261" height="2.262"/>
						</g>
						<g>
							<rect x="968.072" y="234.075" fill="#010101" width="2.261" height="2.262"/>
							<rect x="971.764" y="234.075" fill="#010101" width="2.262" height="2.262"/>
							<rect x="975.455" y="234.075" fill="#010101" width="2.262" height="2.262"/>
						</g>
						<g>
							<rect x="968.041" y="237.477" fill="#010101" width="2.261" height="2.261"/>
							<rect x="971.187" y="237.325" fill="#010101" width="3.262" height="3.744"/>
							<rect x="975.425" y="237.477" fill="#010101" width="2.259" height="2.261"/>
						</g>
					</g>
				</g>
			</g>
			<g>
				<path fill="none" stroke="#FFCD4D" stroke-width="2" stroke-miterlimit="10" d="M972.754,243.251c0,0-8.205,15.141-22.752,1.707
					"/>
				<polyline fill="#FFCD4D" points="948.983,246.522 948.145,243.879 951.094,242.942 				"/>
			</g>
			<g>
				<path fill="none" stroke="#FFCD4D" stroke-width="2" stroke-miterlimit="10" d="M948.145,220.208c0,0,8.205-15.141,22.752-1.707
					"/>
				<polyline fill="#FFCD4D" points="971.915,216.937 972.754,219.58 969.805,220.517 				"/>
			</g>
		</g>
	</g>
</g>
</svg>
