<?xml version="1.0" encoding="utf-8"?>
<!-- Generator: Adobe Illustrator 16.0.0, SVG Export Plug-In . SVG Version: 6.00 Build 0)  -->
<!DOCTYPE svg PUBLIC "-//W3C//DTD SVG 1.1//EN" "http://www.w3.org/Graphics/SVG/1.1/DTD/svg11.dtd">
<svg version="1.1" id="Layer_1" xmlns="http://www.w3.org/2000/svg" xmlns:xlink="http://www.w3.org/1999/xlink" x="0px" y="0px"
	 width="100px" height="100px" viewBox="0 0 100 100" enable-background="new 0 0 100 100" xml:space="preserve">
<path fill="#0AB4C5" d="M5.094,73.618c0,0-2.344-51.118,44.41-51.118c46.997,0,43.904,54.199,44.407,50.983"/>
<path fill="#F4BA0B" d="M17.05,73.618c0,0-4.698-38.514,32.421-39.194C85.517,33.763,81.514,75.98,81.89,73.515"/>
<image display="none" overflow="visible" width="350" height="350" xlink:href="../../../../../Users/Vignila sweet/AppData/Roaming/Skype/live#3az3vigneshwar/media_messaging/media_cache_v2/^62E5C47A484A51B9325EB49CA3CA22BA8F680C3D900C510022^pimgpsh_fullsize_distr.jpg"  transform="matrix(0.09 0 0 0.09 -23.6665 39.167)">
</image>
<g>
	
		<line fill="none" stroke="#000000" stroke-width="0.5" stroke-linecap="round" stroke-miterlimit="10" x1="4.915" y1="65.954" x2="4.915" y2="73.618"/>
	<g>
		
			<line fill="none" stroke="#000000" stroke-width="0.5" stroke-linecap="round" stroke-miterlimit="10" x1="49.463" y1="28.113" x2="49.461" y2="38.332"/>
		
			<line fill="none" stroke="#000000" stroke-width="0.5" stroke-linecap="round" stroke-miterlimit="10" x1="76.207" y1="67.751" x2="86.426" y2="67.752"/>
		
			<line fill="none" stroke="#000000" stroke-width="0.5" stroke-linecap="round" stroke-miterlimit="10" x1="12.101" y1="67.751" x2="22.319" y2="67.752"/>
		<path fill="none" stroke="#000000" stroke-width="0.5" stroke-linecap="round" stroke-miterlimit="10" d="M17.049,66.044
			c0.014-17.893,14.52-32.387,32.414-32.37c17.893,0.014,32.423,14.531,32.411,32.423"/>
		
			<line fill="none" stroke="#000000" stroke-width="0.5" stroke-linecap="round" stroke-miterlimit="10" x1="81.874" y1="65.849" x2="81.874" y2="73.513"/>
		
			<line fill="none" stroke="#000000" stroke-width="0.5" stroke-linecap="round" stroke-miterlimit="10" x1="17.049" y1="65.954" x2="17.049" y2="73.618"/>
		<g>
			<path fill="none" stroke="#000000" stroke-width="0.5" stroke-linecap="round" stroke-miterlimit="10" d="M4.915,66.834
				c0.065-24.533,20.017-44.367,44.548-44.298c24.531,0.065,44.354,20.006,44.286,44.536"/>
			
				<line fill="none" stroke="#000000" stroke-width="0.5" stroke-linecap="round" stroke-miterlimit="10" x1="93.749" y1="65.635" x2="93.749" y2="73.299"/>
		</g>
		<g>
			<g>
				<path fill="none" stroke="#000000" stroke-width="0.5" stroke-linecap="round" stroke-miterlimit="10" d="M40.171,73.68
					c0.013-5.104,4.162-9.226,9.262-9.212c5.103,0.014,9.223,4.16,9.209,9.261"/>
			</g>
		</g>
		
			<line fill="none" stroke="#000000" stroke-width="0.5" stroke-linecap="round" stroke-miterlimit="10" x1="33.031" y1="33.103" x2="38.43" y2="42.124"/>
		
			<line fill="none" stroke="#000000" stroke-width="0.5" stroke-linecap="round" stroke-miterlimit="10" x1="65.254" y1="33.103" x2="61.132" y2="42.124"/>
		
			<line fill="none" stroke="#000000" stroke-width="0.5" stroke-linecap="round" stroke-miterlimit="10" x1="78.076" y1="43.021" x2="70.157" y2="49.633"/>
		
			<line fill="none" stroke="#000000" stroke-width="0.5" stroke-linecap="round" stroke-miterlimit="10" x1="84.624" y1="55.553" x2="74.972" y2="57.834"/>
		
			<line fill="none" stroke="#000000" stroke-width="0.5" stroke-linecap="round" stroke-miterlimit="10" x1="14.299" y1="55.553" x2="23.951" y2="57.834"/>
		
			<line fill="none" stroke="#000000" stroke-width="0.5" stroke-linecap="round" stroke-miterlimit="10" x1="20.367" y1="42.862" x2="27.782" y2="49.449"/>
		
			<line fill="none" stroke="#000000" stroke-width="0.5" stroke-linecap="round" stroke-miterlimit="10" x1="0.923" y1="73.706" x2="98" y2="73.706"/>
		
			<polyline fill="none" stroke="#000000" stroke-width="0.5" stroke-linecap="round" stroke-linejoin="bevel" stroke-miterlimit="10" points="
			53.313,65.121 56.854,58.905 65.187,55.482 61.239,63.476 55.716,66.408 		"/>
		<path fill="none" stroke="#231F20" stroke-width="0.5" stroke-linecap="round" stroke-miterlimit="10" d="M70.316,49.793
			c0,0,6.889,5.908,5.398,23.471"/>
	</g>
</g>
</svg>
